<?xml version="1.0" encoding="utf-8"?>
<!-- Generator: Adobe Illustrator 22.0.0, SVG Export Plug-In . SVG Version: 6.00 Build 0)  -->
<svg version="1.1" id="图层_1" xmlns="http://www.w3.org/2000/svg" xmlns:xlink="http://www.w3.org/1999/xlink" x="0px" y="0px"
	 viewBox="0 0 60 60" style="enable-background:new 0 0 60 60;" xml:space="preserve">
<style type="text/css">
	.st0{fill:#E52929;}
	.st1{fill:#D02929;}
	.st2{fill:#CB5756;}
	.st3{fill:#F52B2B;}
	.st4{fill:#7B0D0D;}
	.st5{fill:#FDFDFD;}
	.st6{fill:#DADADA;}
	.st7{fill:#969696;}
	.st8{fill:#BEBEBE;}
	.st9{fill:#ACACAC;}
	.st10{fill:#080808;}
	.st11{fill:#DEDEDE;}
	.st12{fill:#CDCDCD;}
	.st13{fill:#BDBDBD;}
	.st14{fill:#AFAFAF;}
	.st15{fill:#060606;}
	.st16{fill:#FEFEFE;}
	.st17{fill:#CCD8DF;}
	.st18{fill:#BDC6CC;}
	.st19{fill:#A4B0B6;}
	.st20{fill:#809197;}
	.st21{fill:#FFFFFF;}
	.st22{fill:#223636;}
	.st23{fill:#C1494C;}
	.st24{fill:#DEDBE1;}
	.st25{fill:#BA1B13;}
	.st26{fill:#B10D05;}
	.st27{fill:#171014;}
</style>
<g>
	<path class="st11" d="M10.1,9.4c0.1-0.2,0.3-0.3,0.5-0.3c-0.3,0.6,0.1,1.3-0.2,1.9c0,0,0,0.1,0,0.1c0.6,0.4,0.2,1.1,0.3,1.6
		c0.1,1.2-0.6,2.3-0.4,3.5c0.1,0.4-0.1,1-0.7,1c-0.1,0-0.2,0.1-0.2,0.3c0,0.3,0.4,0.8,0.8,0.8c0.9,0,1.7-0.3,2.5-0.6
		c0.6-0.2,1.2-0.5,1.8-0.5c-0.1,0.1-0.2,0.2-0.2,0.2l0,0c-0.1,0-0.3,0-0.4,0.1l0,0c-0.1,0-0.3,0-0.4,0.1c-0.1,0-0.1,0.1-0.2,0.1
		c-0.1-0.1-0.1-0.1-0.2,0l0,0c-0.1,0-0.2,0-0.2,0.1c-0.4,0.3-0.8,0.4-1.3,0.5c-0.1,0-0.3,0-0.4,0.1l0,0c0,0-0.1,0.1-0.1,0.1l0,0
		c-0.1,0-0.3,0-0.4,0.1c-0.8,0.7-1.3,1.6-1.4,2.7c-0.1,0.9,0.1,1.7-0.6,2.5c-0.4,0.5-0.2,1.3-0.2,2c0,0.5,0.6,0.2,0.9,0.4
		c0.1,0,0.1,0.1,0.2,0.2c0.6,0.5,1,0.5,1.7,0.2c0.9-0.4,1.8-0.7,2.7-0.9c0.9-0.2,1.9,0.1,2.7-0.7c0,0,0.2,0,0.2,0
		c0.9,0.2,1.9,0.4,2.8,0.6c2.3,0.4,4.7,0.6,7.1,0.6c0.4,0,0.7,0.1,0.9,0.3c0.3,0.2,0.6,0.3,0.9,0c0.2-0.2,0.5-0.4,0.8-0.3
		c1.2,0.3,2.3,0.1,3.5,0.2c1.3,0.2,2.6,0.3,4,0.3c1.4,0,2.6-0.1,3.7-1c0.2-0.2,0.4-0.2,0.6-0.2c1.1,0,2.2,0.4,3.3,0.6
		c1.6,0.4,3.1,0.9,4.6,1.5c0.8,0.3,1.7,0.6,2.6,1c0.5,0.2,0.9,0.4,1,1c0,0.2,0.2,0.4,0.4,0.5c0.8,0.5,1.5,1.1,2.3,1.5
		c1.3,0.6,1.4,2,2.2,3c0,0,0,0.2,0,0.2c-0.2,0.4-0.1,0.9-0.1,1.3c0,0.1-0.1,0.4,0.2,0.4c0.2,0,0.3-0.1,0.4-0.2
		c0.2-0.6,0.5-1.1,0.4-1.8c-0.1-1-0.5-1.8-1-2.7c-0.1-0.1-0.1-0.2,0-0.3c0.1-0.1,0.2,0,0.3,0.1c0.3,0.3,0.5,0.5,0.7,0.9
		c0.1,0.4,0.3,0.8,0.8,0.9c0.2,0.8,0.1,1.5,0.1,2.3C59,38,58,39.9,56.5,41.6c-1,1.1-2.3,2-3.6,2.7c-2.4,1.3-4.9,2.3-7.5,3
		c-0.1,0-0.2,0.1-0.3,0.2c-0.9,1.3-2.3,1.9-3.7,2.5c-1,0.5-2.1,0.8-3.2,1c0.1-0.4,0.1-0.8,0.2-1.2c0,0,1-0.3,1-0.3
		c0.1,0,0.1-0.1,0.2-0.1c0.7-0.2,1-0.8,1.3-1.3c0.4-0.6-0.2-1.2-1.1-1.4c0.3,0.5,0.1,1.9-0.3,2.3c-0.2,0.2-0.5,0.5-0.8,0.3
		c-0.3-0.1-0.1-0.5-0.1-0.7c0-0.1,0.1-0.2,0.2-0.2c0.4-0.3,0.4-1,0.2-1.4c-0.4-0.8-1.2-1.1-1.9-1.4c0,0-0.1-0.1-0.1-0.1l0,0
		c0-0.1-0.1-0.1-0.2,0c-0.1,0-0.1,0-0.2,0c-0.1-0.1-0.1-0.2-0.2-0.2c-0.9-0.3-1.8-0.6-2.8-0.6c-0.8,0-1.6-0.2-2.4-0.2
		c-0.5,0-1.1-0.1-1.6-0.1c-0.3,0-0.6,0.1-0.9,0.1c-0.8,0-1.7,0-2.4,0.5c-0.6-0.1-1.3-0.3-2,0.1c0.1,0,0.2,0,0.2,0.1
		c0.4,0.2,0.8,0.7,1.4,0.4c0.1-0.1,0.1,0.2,0.1,0.3c-0.1,0.6,0.2,1.1,0.8,1.4c0.2,0.1,0.2,0.3,0.2,0.4c0,0.5,0.1,1.1,0.3,1.6
		c0.1,0.3,0.1,0.6,0.5,0.8c0.2,0.1,0.4,0.4,0.2,0.7c-0.3,0.6,0.2,1,0.4,1.4c0,0.3,0.2,0.4,0.4,0.4c0.6,0,1.1,0,1.7,0c1,0,1,0,1-1
		c0.3,0,0.5,0,0.5-0.4c-0.1-0.3-0.3-0.2-0.4-0.1c-0.2-1.1-0.3-2.2,0.6-3.1c0,0,0.1,0,0.1,0c0.3,0.1,0.3,0,0.4-0.2c0-0.1,0-0.2,0-0.2
		c0.4-0.3,0.5-0.7,0.2-1.2c-0.1-0.1,0.1-0.4-0.2-0.3c-0.3,0.1-0.1,0.3,0,0.4c-0.2,0-0.5,0-0.7,0c-0.1-0.1-0.2-0.1-0.4-0.1
		c-1.2-0.2-2.4,0-3.6,0c-0.1,0-0.3,0-0.3-0.1c-0.2-0.3-0.4-0.4-0.5,0c0,0-0.1,0-0.2,0c-0.1-0.1-0.2-0.1-0.3-0.1
		c-0.1-0.1-0.1-0.3-0.1-0.5c0.6-0.4,1.3-0.3,2-0.4c1.4-0.1,2.8,0,4.2,0.1c0.4,0,0.6,0.2,0.6,0.6c0,0.2,0,0.4,0,0.6
		c0,0.4,0.1,0.5,0.5,0.5c0.4-0.1,0.3-0.4,0.1-0.6c0-0.8,0.1-0.9,0.8-0.7c0.5,0.1,1,0.2,1.4,0.3c0.8,0.3,1.5,0.7,2.2,1.2
		c0.1,0.1,0.4,0.2,0.1,0.4c-0.9,0-1.7,0.1-2.5-0.5c-0.3-0.3-0.8-0.2-1.1-0.2c-0.3,0-0.8,0.1-0.8,0.5c-0.1,1.3-0.7,2.4-1.1,3.5
		c-0.1,0.3-0.2,0.6-0.1,0.9c-0.2,0.1-0.5,0.2-0.5,0.6c0,0.1-0.1,0.2,0.1,0.3c0.6,0.1,1.2,0.5,1.9,0.4c0.1,0,0.2,0,0.3-0.1
		c0.9-0.4,1.6-1.1,2.3-1.7c0.2-0.1,0.4-0.3,0.4-0.5c0-0.6,0.3-0.9,0.8-1.2c0.2,0,0.2,0.2,0.2,0.3c-0.9,1.4-1.7,2.8-3.3,3.5
		c-0.3,0.1-0.2,0.5-0.1,0.7c0.1,0.3,0.3,0.1,0.5,0c0.8-0.3,1.5-0.9,2.1-1.5c-0.3,0.9-1,1.4-1.7,1.7c-2.1,0.9-4.4,1.5-6.7,1.3
		c-0.5,0-0.9-0.1-1.3-0.2c-1.3-0.4-2.6-0.9-3.8-1.7c-0.8-0.6-1.3-1.4-1.7-2.3c-0.1-0.3-0.3-0.5-0.6-0.6c-0.8-0.3-1.7-0.6-2.5-0.9
		c-0.6-0.3-1.2-0.5-1.7-0.9c-0.6-0.4-1.2-0.6-1.8-0.6c-0.5,0-1,0.2-1.5-0.1c0-0.5-0.3-0.6-0.7-0.6c-0.5,0.1,0,0.4-0.1,0.6
		c-0.5,0-1,0.1-1.6-0.1c-0.2-0.1-0.5,0-0.6,0.4c-0.2,1.1-0.4,2.2-0.6,3.3c0,0.1,0,0.2-0.1,0.3c-0.2-0.2-0.1-0.4,0-0.6
		c0.1-1,0.4-2,0-3c-0.1-0.2-0.1-0.5,0-0.7c0.1-0.3,0.2-0.5,0.5-0.2c0.1,0.1,0.2,0.3,0.3,0.1c0.1-0.2,0-0.3-0.1-0.5
		c-0.3-0.4-0.8-0.2-1.2-0.2c-0.2-0.2-0.3-0.3-0.5-0.5c-0.1-0.1-0.2-0.2-0.1-0.3c0-0.1,0.2-0.1,0.3,0c1.3,0.2,2.6,0.5,4,0.7
		c0.6,0.1,1.3,0.3,2,0.2c-0.2-0.2-0.3-0.3-0.3-0.4c-0.4-0.5-1-0.8-1-1.5c-0.2-0.5-0.1-1.1-0.1-1.6c0.3-0.6,0.8-1.1,1.3-1.6
		c0.6-0.6,1.3-0.9,2-1.3c0.3-0.1,0.7-0.2,0.4-0.7c-0.4-0.6-0.8-1.1-1-1.7c-0.1-0.2-0.4-0.3-0.5-0.5c-0.2-0.3-0.6-0.5-0.7-0.9
		c0-0.1-0.2-0.2-0.4-0.2c-0.1,0-0.2,0-0.2,0.1c-0.8,0.2-1.4,0.7-1.8,1.3l0,0c-0.7,0.3-1.1,1.2-1,2c0.1,0.3,0.2,0.7-0.2,0.8
		c-0.7,0.1-1.4,0.7-2.2,0.5c-0.1,0-0.2,0-0.4,0C9,41.3,8.6,41,8.2,41.2c-0.4,0.2-0.7,0.2-1.1,0.2c-0.1,0-0.3,0-0.4,0.1
		c-0.2,0.3-0.1,0.7-0.1,1c0,0.2,0.1,0.5-0.2,0.5c0-0.5,0-0.9,0-1.4c0-0.4-0.3-0.5-0.7-0.6c0.3,0.3,0.3,0.7,0.2,1.1
		c-0.1,0.6-0.1,1.2,0.3,1.6c0.2,0.2,0.3,0.4,0.3,0.7c0,0.1,0,0.3-0.1,0.4c-0.2-0.2,0-0.5-0.3-0.7c-0.1,1.1-0.2,2.1-0.4,3
		c-0.1,0.8-0.1,1.6-0.2,2.4c-0.1,1.1-0.1,2.3-0.2,3.4c0,0.4,0.2,0.5,0.6,0.3C6.1,53.6,6,54,6.4,54c0.2,0.1,0.2,0.9,0.7,0.4
		c0.2,0,0.3,0,0.5,0.1c0,0.2,0,0.3,0.2,0.4c0.2,0,0.4-0.1,0.4-0.4c0.2-0.2,0.4-0.1,0.6-0.1c0.2,0.1,0.3,0.2,0.5,0.3
		c0.4,0.4,0.5,0.2,0.6-0.3c0-0.4,0-0.7,0.1-1c0.2-0.4-0.1-0.8,0.3-1.1c-0.1,0.9,0.1,1.9-0.4,2.8c-0.6,1.2-2.3,1.7-3.1,1.4
		c-1.6-0.5-2-1.8-1.9-3.2C5,52.6,5.1,51.8,5.1,51c0.1-1.8,0.3-3.6,0.3-5.4c0-1-0.1-2,0.2-3c0.1-0.3-0.1-0.6-0.3-0.8
		c-1.1-1-2.1-2.1-2.7-3.4c-0.9-1.8-1.1-3.8-0.7-5.8c0.3-0.1,0.4-0.3,0.5-0.6c0.3-1.4,0.8-2.7,1.1-4.1c0.1-0.4,0.4-0.8,0.3-1.2
		c-0.2-0.9,0.1-1.8,0-2.7c0,0,0,0,0,0c0.1-0.5,0.3-0.9,0.8-1.1c0.1,0,0.1-0.2,0.1-0.2c0.1-0.6,0.7-0.5,1.1-0.8
		c0.1-0.1,0.2,0.1,0.2,0.2c-0.1,0.3-0.3,0.6-0.3,1c0,0.1-0.1,0.2-0.2,0.2c-0.4,0-0.6,0.3-0.7,0.6c-0.4,0.9,0,1.8,0.3,2.7
		c0.1,0.3,0.3,0.5,0.2,0.9c-0.1,0.3,0,0.5,0.4,0.5c0.5,0,1,0.1,1.4,0.6c0.1,0.1,0.2,0.3,0.5,0.2c0.5-0.3,1-0.6,1.5-0.9
		c0.1-0.1,0.2-0.1,0.2-0.3c0-0.1-0.1-0.1-0.2-0.2c-0.2-0.1-0.3,0-0.4,0.1c-0.1,0.1-0.2,0.3-0.3,0.4c0,0-0.1,0-0.2,0c0,0,0-0.1,0-0.1
		c0.6-0.7-0.2-0.5-0.4-0.5C7,27,6.7,26.5,7.1,25.8c0.1-0.2,0.2-0.4,0.2-0.6c-0.2-1,0.1-2,0.1-3c0-0.6,0.2-1.3,0.7-1.7
		c0.1-0.1,0.2-0.2,0-0.4C8,20,8,20.1,7.9,20.2c-0.2,0.3-0.7,0.4-0.9,0.6c-0.1,0.1-0.3,0.2-0.4,0c-0.1-0.1,0.1-0.3,0.2-0.3
		c0.7-0.4,1.2-1.1,2.1-1.2c0.3-0.1,0.6-0.2,0.9-0.6c-0.4,0-0.6,0.2-1,0.2c-0.4,0-0.6-0.1-0.3-0.5C8.6,18,8.8,17.6,8.7,17
		c-0.1-0.3,0.1-0.6,0.4-0.8c0.2-0.2,0.3-0.3,0.3-0.6c-0.1-1.3,0.3-2.6-0.6-3.7c0-0.1-0.1-0.2,0-0.2c0.2-0.5-0.1-0.7-0.5-0.9
		C8.6,10,9.3,9.8,10,9.4c0,0.1,0,0.2,0.1,0.3c0,0,0.1,0,0.1,0C10.2,9.6,10.2,9.5,10.1,9.4z M22.6,45.6c0.1,0,0.2,0,0.2-0.1
		c0.1,0,0.1,0,0.2-0.1c0,0,0,0,0,0c0,0-0.1,0.1-0.1,0.1C22.7,45.5,22.6,45.5,22.6,45.6c-0.1,0-0.1,0-0.2,0c0,0,0,0,0,0
		C22.5,45.7,22.6,45.6,22.6,45.6z M31.6,54c0.1,0,0.2,0,0.3,0c0,0.1,0,0.2-0.1,0.3c0,0.2-0.1,0.3,0.1,0.4c0.2,0.1,0.3-0.1,0.4-0.2
		c0-0.1,0.1-0.1,0.1-0.1c0.2-0.2,0.6-0.2,0.5-0.5c-0.1-0.3-0.5,0.1-0.7,0c0-0.3-0.2-0.4-0.4-0.5c-0.2,0-0.5-0.1-0.7-0.1
		c-0.3,0-0.6,0-0.9,0c-0.6-0.1-0.8,0.2-0.7,0.7c-0.2,0-0.5,0.1-0.7-0.1c0.1-0.1,0.3-0.1,0.4-0.2c0.1-0.1,0.1-0.2,0.1-0.3
		c0-0.1-0.1-0.2-0.2-0.2c-0.3,0.1-0.7-0.1-0.8,0.5c-0.1,0-0.2,0-0.2,0c-0.2-0.1-0.4-0.2-0.5,0.1c-0.1,0.2,0,0.4,0.3,0.6
		c0.3,0.1,0.5,0.4,0.8,0.3c0.6,0.2,1.1,0.1,1.7,0.1c0.6,0.1,1,0,1.1-0.7C31.4,54.3,31.6,54.3,31.6,54z M39.3,38.2
		c-0.3,0.2-0.2,0.6-0.4,0.9c0,0-0.1-0.1-0.1-0.1c0,0.1,0,0.2,0,0.3c-0.1,0.7-0.1,0.8,0.7,0.9c0.8,0.1,1.5,0.5,2.3,0.8
		c0.3,0.1,0.6,0.4,0.4,0.8c-0.4,0.6-0.3,0.7,0.3,1.1c0.6,0.3,1.1,0.7,1.5,1.3c0.6,1.1,0.8,1.1,2.1,0.8c0.2-0.1,0.2,0.1,0.3,0.2
		c0.1,0.3,0.3,0.3,0.5,0.1c0.4-0.4,0.8-0.8,1.3-1.2c0.2-0.1,0.4-0.3-0.1-0.5c-0.3-0.1,0-0.3-0.1-0.4c0-0.2,0.4-0.5-0.1-0.6
		c0-0.2,0.1-0.3,0.3-0.4c0.5-0.4,1-0.9,1.5-1.3c0.3-0.1,0.5-0.4,0.7-0.6c0.2,0,0.3-0.1,0.3-0.3c0-0.2-0.2-0.2-0.3-0.2
		c-0.3,0-0.7,0.1-1-0.2c-0.4-0.5-0.5-0.2-0.6,0.2c-0.3-0.5-0.8-0.3-1.2-0.3c-0.1,0-0.2,0-0.4,0c0.5-0.3,1-0.2,1.6-0.3
		c0.2-0.1,0.5-0.1,0.9-0.2c-0.4,0-0.6-0.1-0.9,0.1c-0.2,0-0.4,0-0.6,0c0.2-0.5,0-0.9-0.4-1.2c-1.1-0.8-2.4-1.5-3.7-2.1
		c-0.7-0.3-1.3-0.6-1.9-1.2c-0.1-0.1,0-0.4-0.3-0.3c-0.3,0.1-0.4,0.2-0.4,0.5c-0.3,0-0.4,0.2-0.5,0.4c-0.4,0.3-0.4,0.7-0.6,1
		c-0.3,0.6-0.6,1.2-0.9,1.8C39.3,38.2,39.3,38.2,39.3,38.2z M20.3,34.3c0.2-0.2,0.6,0,0.7-0.5c-0.9,0-1.5-0.5-2.1-1
		c-0.1-0.1-0.3-0.2-0.4-0.1c-0.2,0.1-0.2,0.3-0.1,0.5c0.1,0.2,0.2,0.5,0.5,0.6c0.4,0.1,0.8,0.3,1.2,0.4c-0.4,0.5-0.8,0-1.3-0.1
		c0.2,0.7,0.4,1.3,0.8,1.8c0,0.2,0.1,0.4,0.2,0.6c0.4,0.6,0.7,1.3,0.9,2c0.1,0.2,0.1,0.4,0.3,0.4c0.1,0.3,0.4,0.2,0.6,0.2
		c0.6-0.1,1.1-0.2,1.7-0.3c-0.3,0.4-0.8,0.2-1.2,0.5c0.5,0.1,0.9,0.1,1.3,0c0.9-0.2,1.8-0.2,2.6,0.1c0.9,0.3,1.8,0.3,2.6,0.4
		c1.4,0.1,2.8,0.3,4.2,0.4c0.9,0.1,1.7,0.1,2.4-0.6c0.1-0.1,0.3-0.1,0.3-0.3c-0.1-0.2-0.3-0.2-0.4-0.2c0-0.1,0-0.2,0-0.3
		c0,0-0.1-0.1-0.1-0.1c0,0,0-0.1,0-0.1c0.1-0.7,0.2-1.4,0.4-2.2c0.4-0.9,0.5-1.9,0.7-2.9c0-0.2,0.1-0.5-0.2-0.4
		c-0.5,0.1-0.9,0-1.4,0c-0.9,0.1-1.7,0.1-2.6,0.2c-0.8,0.1-1.6-0.1-2.4,0c-0.3,0.1-0.9,0.1-1.1-0.3c0-0.1,0-0.3,0.1-0.3
		c0.5-0.3,0.3-0.4-0.1-0.7c-0.6-0.5-1.3-0.3-1.9-0.3c-0.3,0-0.7,0.2-0.7,0.5c0,0.2,0.1,0.5,0.4,0.6c0,0,0,0.1,0,0.2
		c-0.1,0.6-0.6,0.5-0.9,0.3c-0.4-0.2-0.8-0.2-1.1,0c-0.6,0.4-1.2,0.3-1.8,0.3c-0.3,0-0.7,0-0.9,0.4C21.1,34.2,20.7,34.6,20.3,34.3z
		 M22.6,49.7c0.5,1.1,1.3,2,2.3,2.7c0.4,0.3,0.7,0.6,1.1-0.1c0-0.1,0.2-0.1,0.3-0.1c0,0.3,0.2,0.5,0.4,0.4c0.3,0,0.7,0,0.9-0.3
		c0.1-0.2,0-0.3-0.2-0.3c-0.2,0-0.5,0.1-0.7-0.1c0.2-0.1,0.4-0.1,0.7-0.2c-0.5-1.3-1-2.5-1.2-3.8c-0.1-0.6-0.3-1-0.8-1.3
		c0-0.1,0-0.3-0.2-0.3c-0.2,0,0,0.2-0.1,0.3c-0.3,0.2-0.6,0.1-0.9,0.2c0-0.3,0.3-0.3,0.5-0.3c0.2,0,0.2-0.1,0.2-0.3
		c0-0.1-0.1-0.2-0.2-0.2c-0.4-0.1-0.8,0.4-0.6,0.8c-0.6,0.5-1.2,0.6-1.9,0.5c-0.3,0-0.4,0.2-0.3,0.4C22.1,48.4,22.2,49.1,22.6,49.7z
		 M22.3,50.3c-0.1,0.2,0,0.4,0,0.6c0.5,1.4,1.3,2.3,2.6,2.9c0.1,0.1,0.4,0.3,0.4,0.1c0.1-0.2,0.1-0.5-0.1-0.7
		c-0.1-0.1-0.2-0.1-0.3-0.2c-0.9-0.5-1.7-1.1-2.2-2.1C22.7,50.7,22.6,50.5,22.3,50.3z M33.9,47.9c0.1-0.5-0.3-0.5-0.5-0.6
		c-0.3-0.1-0.2,0.2-0.2,0.4c0,0.1,0,0.2,0,0.4c0,0.2-0.3,0.5,0,0.5c0.2,0,0.7-0.1,0.7-0.5C33.9,48,33.9,47.9,33.9,47.9z M35.1,46.6
		c0.1-0.1,0.4,0,0.4-0.2c0-0.2-0.2-0.3-0.4-0.4c-0.2-0.1-0.4-0.3-0.6-0.1c-0.1,0.1-0.2,0.3-0.2,0.4c0,0.2,0.2,0.2,0.4,0.2
		C34.9,46.5,35,46.4,35.1,46.6z M31.8,50c0,0.3,0.2,0.6,0.3,0.6c0.3-0.1,0.2-0.3,0.3-0.5c0-0.2-0.1-0.4-0.4-0.4
		C31.8,49.6,31.9,49.8,31.8,50z M32.4,48.1c-0.2,0.4-0.3,0.8-0.3,1.3C32.5,48.9,32.6,48.5,32.4,48.1z M50.2,39.2
		c-0.1,0.1-0.4-0.1-0.4,0.2c0,0.3,0.3,0.2,0.5,0.3c0.1,0,0.3-0.1,0.3-0.3C50.7,39.1,50.4,39.3,50.2,39.2z M8.9,55.4
		c0.1,0.1-0.1,0.3,0.2,0.3c0.2,0,0.3-0.2,0.3-0.4c0-0.2-0.1-0.3-0.3-0.3C8.8,55,8.9,55.2,8.9,55.4z M42.3,33.6
		c-0.1,0.1-0.1,0.1-0.1,0.2c0,0.1,0.1,0.1,0.1,0.1c0.1,0,0.1-0.1,0.1-0.2C42.4,33.7,42.3,33.6,42.3,33.6z M12.7,47.6
		c0-0.1,0-0.1-0.1-0.1c0,0-0.1,0-0.1,0c0,0.1,0,0.1,0.1,0.1C12.6,47.6,12.6,47.6,12.7,47.6z M10.2,18.5
		C10.2,18.5,10.2,18.5,10.2,18.5c0,0.1,0,0.1,0.1,0.1c0,0,0-0.1,0-0.1C10.2,18.5,10.2,18.5,10.2,18.5z M51.1,39.7
		C51.1,39.6,51.2,39.6,51.1,39.7c0-0.1,0-0.1-0.1-0.1C51,39.5,51,39.6,51.1,39.7C51,39.6,51.1,39.6,51.1,39.7z M9.1,19.6
		C9.1,19.6,9.1,19.6,9.1,19.6c0,0.1,0,0.1,0.1,0.1C9.2,19.7,9.2,19.6,9.1,19.6C9.2,19.6,9.1,19.6,9.1,19.6z M12,47.3
		C11.9,47.2,11.9,47.2,12,47.3c-0.1,0-0.1,0-0.1,0.1C11.9,47.3,11.9,47.4,12,47.3C12,47.3,12,47.3,12,47.3z M24.2,45.1
		C24.2,45,24.1,45,24.2,45.1c-0.1-0.1-0.2,0-0.2,0C24,45.1,24.1,45.1,24.2,45.1C24.1,45.1,24.2,45.1,24.2,45.1z M23.4,45.3
		C23.3,45.3,23.3,45.3,23.4,45.3C23.3,45.3,23.3,45.3,23.4,45.3C23.3,45.3,23.3,45.3,23.4,45.3C23.3,45.3,23.3,45.3,23.4,45.3z"/>
	<path class="st12" d="M11.7,18.3c0.5-0.1,0.9-0.2,1.3-0.5c0.1,0,0.2,0,0.2-0.1c0,0,0,0,0,0c0.1,0,0.1,0,0.2,0
		c0.1,0,0.1-0.1,0.2-0.1c0.1,0,0.3,0,0.4-0.1c0,0,0,0,0,0c0.1,0,0.3,0,0.4-0.1c0,0,0,0,0,0c0.3,0,0.5-0.1,0.7-0.1
		c0.5-0.2,1.1-0.4,1.7-0.3c0,1-0.6,1.8-0.7,2.8c0,0.1-0.1,0.1-0.1,0.2c-0.3,0.2-0.4,0.5-0.4,0.8c0.2,0.9-0.3,1.7-0.4,2.5
		c-0.1,0.7-0.1,0.7,0.6,0.9c0.6,0.2,1.2,0.3,1.7,0.2c1.1,0,2.2,0.1,3.2-0.2c0.1,0,0.3,0,0.4,0c0.7,0,1.5,0.1,2.2,0
		c1-0.2,1.9-0.2,2.9-0.2c0.8,0,1.7,0.1,2.5,0.1c1.5,0,3,0,4.5,0.1c2.1,0.1,4.1,0.4,6.1,0.6c0.5,0.1,1,0.2,1.5,0.2
		c1.7,0.1,3.4,0.5,5.1,0.8c1.7,0.3,3.3,0.4,5,0.4c0.2,0,0.6-0.1,0.6-0.4c0-0.3-0.2-0.3-0.4-0.3c-0.2,0-0.3-0.1-0.2-0.3
		c0.3-0.6,0-1.2-0.1-1.8c-0.1-0.7-0.4-1.4-0.5-2.2c-0.1-0.8-0.2-1.6-0.5-2.3c0.2,0,0.2-0.1,0.1-0.2c-0.1-0.1-0.2-0.1-0.3-0.2
		c0.4-0.3,0.7,0.1,1,0.1c0.2,0,0.6,0.1,0.5-0.2c-0.2-0.6,0.1-1.1,0-1.6c-0.1-0.4-0.2-0.9,0-1.4c0.1-0.3-0.1-0.7-0.5-0.7
		c-0.2,0-0.5,0.1-0.4-0.3c0-0.3,0.2-0.4,0.4-0.3c0.2,0.1,0.3,0,0.3-0.2c0-0.1-0.1-0.2-0.2-0.2c-0.5-0.1-0.7-0.4-0.6-0.9
		c0.1-0.3,0.2-0.5,0-0.8c-0.1-0.1,0-0.2,0.1-0.3c0.2-0.1,0.4-0.1,0.5,0c0.2,0,0.2,0.2,0.1,0.3c-0.1,0.2-0.2,0.5,0.1,0.6
		c0.3,0.1,0.3-0.3,0.4-0.5c0.1-0.1,0.1-0.2,0.1-0.3c0.4-0.5,0-1.1,0.3-1.6c1.6,0.9,2.9,2,4.1,3.3c1.1,1.3,2,2.6,2.4,4.3
		c0.2,0.7,0.1,1.5,0.2,2.3c0.2,1.8,0.3,3.7,0.4,5.5c0.2,2.1,0.4,4.2,0.6,6.2c0,0.6,0,1.2,0,1.7c-0.5-0.1-0.6-0.5-0.8-0.9
		c-0.2-0.4-0.4-0.6-0.7-0.9c-0.1-0.1-0.2-0.2-0.3-0.1c-0.1,0.1-0.1,0.2,0,0.3c0.5,0.8,0.8,1.7,1,2.7c0.1,0.7-0.2,1.2-0.4,1.8
		c0,0.1-0.2,0.3-0.4,0.2c-0.2,0-0.2-0.2-0.2-0.4c0-0.4-0.1-0.9,0.1-1.3c0-0.1,0-0.2,0-0.2c-0.8-0.9-0.8-2.4-2.2-3
		c-0.8-0.4-1.5-1-2.3-1.5c-0.2-0.1-0.3-0.3-0.4-0.5c-0.1-0.6-0.5-0.8-1-1c-0.8-0.3-1.7-0.6-2.6-1c-1.5-0.6-3-1.2-4.6-1.5
		c-1.1-0.3-2.1-0.6-3.3-0.6c-0.2,0-0.4,0-0.6,0.2c-1,1-2.3,1.1-3.7,1c-1.3,0-2.7-0.1-4-0.3c-1.2-0.1-2.4,0.1-3.5-0.2
		c-0.3-0.1-0.6,0.1-0.8,0.3c-0.3,0.2-0.6,0.2-0.9,0c-0.3-0.2-0.6-0.3-0.9-0.3c-2.4,0-4.7-0.2-7.1-0.6c-0.9-0.2-1.9-0.4-2.8-0.6
		c-0.1,0-0.2,0-0.2,0c-0.8,0.7-1.8,0.4-2.7,0.7c-0.9,0.3-1.9,0.5-2.7,0.9c-0.7,0.3-1.1,0.3-1.7-0.2c-0.1-0.1-0.1-0.1-0.2-0.2
		c-0.3-0.2-0.9,0.1-0.9-0.4c-0.1-0.7-0.2-1.5,0.2-2c0.6-0.8,0.5-1.7,0.6-2.5c0.1-1.1,0.6-2,1.4-2.7c0.1,0,0.3,0,0.4-0.1c0,0,0,0,0,0
		c0,0,0.1-0.1,0.1-0.1c0,0,0,0,0,0C11.4,18.4,11.6,18.4,11.7,18.3z M52.5,20c-0.2-0.1-0.3-0.3-0.5-0.2C52.1,20,52.2,20.1,52.5,20z"
		/>
	<path class="st13" d="M51.6,10c-0.2,0.5,0.1,1.1-0.3,1.6c-0.1,0.1-0.1,0.2-0.1,0.3c-0.1,0.2-0.1,0.5-0.4,0.5
		c-0.3-0.1-0.2-0.4-0.1-0.6c0-0.1,0-0.3-0.1-0.3c-0.2,0-0.4-0.1-0.5,0c-0.1,0.1-0.2,0.2-0.1,0.3c0.2,0.3,0.1,0.5,0,0.8
		c-0.2,0.5,0,0.9,0.6,0.9c0.1,0,0.2,0.1,0.2,0.2c0,0.2-0.1,0.3-0.3,0.2c-0.3-0.1-0.4,0-0.4,0.3c0,0.4,0.2,0.2,0.4,0.3
		c0.4,0.1,0.6,0.4,0.5,0.7c-0.2,0.5-0.1,0.9,0,1.4c0.1,0.5-0.2,1,0,1.6c0.1,0.3-0.3,0.2-0.5,0.2c-0.3,0-0.7-0.4-1-0.1
		c-1-0.4-2.1-0.9-3.1-1.2c-2.6-0.7-5.2-1.4-7.9-1.8c-2-0.3-4.1-0.5-6.1-0.5c-2.5-0.1-5.1,0-7.6,0.2c0-0.3-0.3-0.2-0.5-0.2
		c-0.2,0.1-0.4,0.1-0.6,0.1c-1,0-2.1,0.1-3.1,0.3c-0.4,0.1-0.7,0-1.1-0.1c-0.4-0.1-0.5-0.3-0.1-0.6c0.4-0.3,0.8-0.7,0.7-1.3
		c0-0.1,0.1-0.2,0.2-0.3c0.6-0.1,0.9-0.6,0.9-1.2c0-0.7,0.4-1.3,0.6-2c0.3-0.9,0.3-1.8,0.4-2.8c0.1-0.5,0-1,0.3-1.3
		c0.3-0.3,0.3-0.5,0.2-0.7c1-0.3,2.1-0.3,3.1-0.4c1.8-0.2,3.7-0.3,5.6-0.2C37.8,4.7,44.1,5.9,49.9,9C50.5,9.3,51,9.7,51.6,10z
		 M39,15.2c0.2,0,0.4,0,0.7,0c0.2,0,0.3,0,0.4-0.2c0.1-0.2,0-0.3-0.2-0.4c-0.2-0.2-0.4-0.4-0.2-0.7c0.1-0.1-0.1-0.2-0.1-0.3
		c-0.4-1-1.5-1.3-2.1-2.2c-0.1-0.1-0.3-0.2-0.4-0.1c-0.4,0.1-0.7-0.2-0.8-0.5c-0.1-0.4-0.1-0.6-0.7-0.6c-0.6,0-1.3-0.4-1.9-0.6
		c-0.4-0.1-0.6-0.1-1,0c-0.5,0.2-0.5,0.7-0.9,1c-0.9,0.5-1.8,1.1-2.6,1.8c-0.4,0.3-0.7,0.6-1.1,0.9c-0.3,0.2-0.6,0.2-0.8,0.4
		c-0.3,0.4-0.2,0.6,0.2,0.8c0.5,0.2,0.9,0.2,1.4,0.2c1.8-0.1,3.6,0.1,5.4,0.1c0.1,0,0.2,0,0.3,0C36.1,14.9,37.6,15.2,39,15.2z"/>
	<path class="st12" d="M22.6,5.2c0.1,0.3,0.1,0.5-0.2,0.7c-0.3,0.3-0.3,0.9-0.3,1.3c-0.1,0.9-0.2,1.8-0.4,2.8
		c-0.2,0.7-0.6,1.2-0.6,2c0,0.6-0.2,1-0.9,1.2c-0.1,0-0.2,0.1-0.2,0.3c0.1,0.6-0.3,1-0.7,1.3c-0.3,0.3-0.2,0.4,0.1,0.6
		c0.4,0.1,0.7,0.2,1.1,0.1c1-0.2,2-0.3,3.1-0.3c0.2,0,0.4,0,0.6-0.1c0.2,0,0.4-0.1,0.5,0.2c-0.2,0-0.4,0-0.6,0
		c-1.7,0.2-3.5,0.5-5.2,0.8c-0.2-0.2-0.5-0.2-0.6,0.1c-0.1,0-0.2,0-0.2,0c-0.7,0-1.3,0.1-1.9,0.5l0,0c-0.3,0-0.6,0-0.8,0.2l0,0
		c-0.1,0-0.3,0-0.4,0.1c0,0-0.1,0.1-0.1,0.1c-0.1-0.1-0.2-0.1-0.2,0l0,0c-0.7,0-1.2,0.3-1.8,0.5c-0.8,0.3-1.7,0.5-2.5,0.6
		c-0.4,0-0.8-0.5-0.8-0.8c0-0.1,0.1-0.3,0.2-0.3c0.7,0,0.8-0.6,0.7-1c-0.2-1.2,0.5-2.3,0.4-3.5c-0.1-0.5,0.3-1.2-0.3-1.6
		c0,0-0.1-0.1,0-0.1c0.3-0.6-0.1-1.3,0.2-1.9C14.1,7,18,6,21.9,5.2C22.1,5.2,22.4,5.2,22.6,5.2z"/>
	<path class="st12" d="M3.8,23.8c0.1,0.9-0.2,1.8,0,2.7c0.1,0.4-0.3,0.8-0.3,1.2c-0.2,1.4-0.7,2.7-1.1,4.1c-0.1,0.3-0.2,0.5-0.5,0.6
		c0.1-1.3,0.3-2.7,0.4-4c0.1-1.4,0.3-2.7,0.4-4.1c0.1-1.4,0.3-2.7,0.4-4.1c0.1-0.8,0.2-1.6,0.2-2.4c0.1-1.6,0.8-2.9,1.7-4.1
		c0.8-1.1,1.7-2.1,2.7-2.9c0.1-0.1,0.3-0.2,0.4-0.2c0.4,0.2,0.7,0.4,0.5,0.9c0,0.1,0,0.2,0,0.2c0.9,1.1,0.4,2.5,0.6,3.7
		c0,0.3-0.1,0.4-0.3,0.6c-0.3,0.2-0.4,0.6-0.4,0.8c0.1,0.5-0.1,0.9-0.3,1.4c-0.2,0.4-0.1,0.5,0.3,0.5c0.3,0,0.6-0.2,1-0.2
		c-0.2,0.4-0.5,0.5-0.9,0.6c-0.9,0.2-1.4,0.8-2.1,1.2c-0.1,0.1-0.3,0.2-0.2,0.3c0.1,0.2,0.3,0.1,0.4,0c0.3-0.3,0.7-0.3,0.9-0.6
		C8,20.1,8,20,8.2,20.1c0.2,0.1,0.1,0.3,0,0.4c-0.5,0.4-0.8,1.1-0.7,1.7c0,1-0.3,2-0.1,3c0.1,0.2,0,0.4-0.2,0.6
		C6.7,26.5,7,27,7.9,27.1c0.2,0,1-0.2,0.4,0.5c0,0,0,0.1,0,0.1c0.1,0,0.2,0,0.2,0c0.1-0.1,0.2-0.2,0.3-0.4c0.1-0.1,0.2-0.2,0.4-0.1
		c0.1,0,0.2,0.1,0.2,0.2c0,0.1-0.1,0.2-0.2,0.3c-0.5,0.3-1,0.6-1.5,0.9c-0.3,0.2-0.4-0.1-0.5-0.2c-0.4-0.4-0.9-0.5-1.4-0.6
		c-0.4,0-0.5-0.2-0.4-0.5c0.1-0.4,0-0.6-0.2-0.9c-0.4-0.9-0.7-1.7-0.3-2.7c0.1-0.3,0.2-0.7,0.7-0.6c0.1,0,0.2,0,0.2-0.2
		c0-0.4,0.2-0.7,0.3-1c0.1-0.2-0.1-0.3-0.2-0.2c-0.4,0.3-1,0.2-1.1,0.8c0,0.1-0.1,0.2-0.1,0.2C4.1,22.9,4,23.4,3.8,23.8
		c0-0.1,0-0.2-0.1-0.2c-0.1,0-0.1,0.2-0.1,0.3c0,0,0,0,0,0.1c0,0,0,0,0.1,0C3.7,23.9,3.8,23.9,3.8,23.8z M6.2,21.2
		c-0.2-0.1-0.3,0-0.4,0.1c0,0,0,0.1,0.1,0.1C6,21.5,6.1,21.4,6.2,21.2z"/>
	<path class="st12" d="M10.3,52.3c-0.4,0.3-0.2,0.7-0.3,1.1c-0.1,0.3-0.1,0.7-0.1,1c-0.1,0.4-0.2,0.7-0.6,0.3
		c-0.1-0.1-0.3-0.2-0.5-0.3C9,54,9.5,53.8,9.5,53.2c-0.1-2.1,0.3-4.2,0.4-6.3c0.4-0.1,0.8-0.2,1.2,0.2c0.1,0.1,0.2,0.3,0.1,0.5
		c-0.1,0.2-0.2,0-0.3-0.1c-0.3-0.3-0.5-0.1-0.5,0.2c-0.1,0.2-0.1,0.5,0,0.7c0.4,1,0.1,2,0,3c0,0.2-0.1,0.4,0,0.6
		C10.3,52.1,10.3,52.2,10.3,52.3z"/>
	<path class="st13" d="M37.5,52.5c-0.6,0.6-1.3,1.2-2.1,1.5c-0.2,0.1-0.4,0.3-0.5,0c-0.1-0.2-0.2-0.6,0.1-0.7
		c1.6-0.7,2.4-2.1,3.3-3.5c0,0,0.1,0,0.1,0c-0.1,0.4-0.1,0.8-0.2,1.2c-0.1,0.1-0.1,0.2-0.2,0.3C38,51.4,38,51.5,38,51.6
		c-0.1,0.2-0.2,0.4-0.3,0.6C37.6,52.2,37.5,52.3,37.5,52.5L37.5,52.5z"/>
	<path class="st12" d="M13.2,48.1c0.1-0.2-0.3-0.5,0.1-0.6c0.4-0.1,0.7,0.1,0.7,0.6C13.8,48.1,13.5,48.1,13.2,48.1z"/>
	<path class="st12" d="M10.1,9.4c0.1,0.1,0.2,0.2,0.1,0.3c0,0-0.1,0-0.1,0C9.9,9.7,10,9.5,10,9.4C10,9.4,10,9.4,10.1,9.4z"/>
	<path class="st11" d="M38,51.6c0-0.1,0-0.2,0.1-0.2C38.3,51.6,38.1,51.6,38,51.6z"/>
	<path class="st11" d="M37.5,52.5c0-0.2,0.1-0.2,0.2-0.3C37.7,52.4,37.7,52.4,37.5,52.5z"/>
	<path class="st14" d="M18,16.1c0.1,0,0.2,0,0.2,0c0.2,0,0.4-0.1,0.6-0.1c1.7-0.4,3.4-0.6,5.2-0.8c0.2,0,0.4,0,0.6,0
		c2.5-0.2,5.1-0.3,7.6-0.2c2,0.1,4.1,0.3,6.1,0.5c2.7,0.4,5.3,1,7.9,1.8c1.1,0.3,2.1,0.8,3.1,1.2c0.1,0.1,0.2,0.1,0.3,0.2
		c0.2,0.1,0.1,0.2-0.1,0.2c-0.1,0-0.1,0-0.2,0c-1.4-0.7-2.9-1.2-4.3-1.6c-1-0.3-2.1-0.5-3.1-0.8c0.2,0.2,0.5,0.4,0.1,0.7
		c-0.2,0.1,0,0.3,0.2,0.5c0.2,0.2,0.4,0.4,0.2,0.6c-0.3,0.4-0.1,0.6,0.1,0.8c0.2,0.2,0.3,0.5,0.3,0.8c0,0.2,0,0.4,0.2,0.4
		c0.5,0.2,0.6,0.6,0.7,1.1c0.1,0.3,0.1,0.7,0.3,1c0.2,0.4-0.3,1.4-0.7,1.4c-1.1,0-2.3,0-3.4,0c-1-0.1-2.1-0.3-3.1-0.2
		c-0.7,0-1.4,0.1-2.1,0c-0.8-0.2-1.6-0.1-2.4-0.1c-0.9,0-1.9,0-2.8-0.1c-1.1-0.1-2.3-0.3-3.4-0.2c-0.9,0.1-1.8,0-2.7-0.2
		c-0.7-0.1-0.8-0.4-0.7-1c0.1-0.6,0.3-1.2,0.4-1.7c0.3-1.4,0.8-2.8,1.5-4c0.1-0.2,0.3-0.3,0.2-0.5c-0.1-0.2-0.4-0.1-0.5-0.1
		c-1.5,0.2-3,0.3-4.4,0.6c-1.1,0.2-2.2,0.3-3.2,0.8c-0.6,0-1.1,0.2-1.7,0.3c-0.2,0.1-0.5,0.2-0.7,0.1c0.1-0.1,0.2-0.2,0.2-0.2
		c0,0,0,0,0,0c0.1,0,0.2,0,0.2,0c0,0,0.1-0.1,0.1-0.1c0.1,0,0.3,0,0.4-0.1c0,0,0,0,0,0c0.3,0,0.6,0,0.8-0.2c0,0,0,0,0,0
		C16.8,16.6,17.4,16.4,18,16.1z M39.3,15.9c0.6,0.3,1.2,0.3,1.8,0.3C40.5,16.1,39.9,16,39.3,15.9z M26.8,15.4
		C26.8,15.4,26.8,15.4,26.8,15.4c-0.3-0.1-0.5-0.1-0.8-0.1c0,0,0,0,0,0.1C26.3,15.4,26.5,15.4,26.8,15.4z M27.8,15.4
		c0.1,0,0.2-0.1,0.1-0.1c0,0-0.1-0.1-0.1-0.1c-0.1,0-0.1,0-0.1,0.1C27.7,15.4,27.8,15.4,27.8,15.4z M25.5,15.3
		C25.5,15.3,25.4,15.4,25.5,15.3c-0.1,0.1-0.1,0.2,0,0.2c0,0,0.1,0,0.1-0.1C25.7,15.3,25.6,15.3,25.5,15.3z"/>
	<path class="st13" d="M9.9,46.9c-0.1,2.1-0.4,4.2-0.4,6.3c0,0.5-0.5,0.7-0.7,1.1c-0.2,0-0.4-0.1-0.6,0.1c-0.2,0-0.4,0-0.6,0
		c-0.2-0.1-0.3-0.1-0.5-0.1c0-0.3-0.3-0.3-0.5-0.5c-0.1-0.2-0.2,0-0.3,0.1c-0.4,0-0.3-0.4-0.5-0.6c0-0.5-0.2-1-0.1-1.5
		c0.1,0,0.2,0,0.4,0c0,0.2-0.1,0.4,0.3,0.6c-0.1-0.3,0.1-0.6-0.3-0.8c-0.1-0.3,0-0.7-0.2-1c0-0.1,0-0.2,0-0.3c0.1,0,0.3,0,0.4-0.1
		c0.1,0,0.2-0.1,0.2-0.1c0-0.1-0.1-0.1-0.2-0.1c-0.2-0.4,0-0.9-0.1-1.3c0-0.1,0-0.2,0-0.4c0.2,0,0.2-0.1,0.2-0.2
		c0.1,0,0.2-0.1,0.2-0.1c0-0.1-0.1-0.1-0.2-0.1c-0.2-0.2-0.1-0.4-0.1-0.6c0-0.3,0.3-0.5,0.2-0.8C6.7,46.2,6.9,46,6.4,46
		c0-0.2,0-0.3,0-0.5c0-0.2,0.1-0.4,0-0.6c0.1-0.1,0.1-0.2,0.1-0.4c0.7-0.2,0.2-0.8,0.5-1.1c-0.5,0.3-0.6,0.1-0.6-0.3
		c0.3-0.1,0.2-0.3,0.2-0.5c0.1-0.3-0.1-0.7,0.1-1c0.3,0.4-0.1,0.9,0.4,1.2c0-0.5,0-0.9,0-1.4c0.4,0,0.7,0,1.1-0.2
		C8.6,41,9,41.3,9.4,41.3c0,0.1,0,0.2,0.2,0.2c0.2,0,0.2-0.1,0.2-0.2c0.8,0.2,1.4-0.4,2.2-0.5c0.5-0.1,0.3-0.5,0.2-0.8
		c-0.2-0.7,0.3-1.6,1-2c0,0.2-0.1,0.3-0.2,0.5c-0.4,0.5-0.5,1.1-0.3,1.7c0,0.1,0.1,0.2,0,0.3c-0.1,0.1-0.4,0.3-0.1,0.5
		c0.2,0.2,0.3-0.2,0.4-0.3c0.3-0.2,0.2-0.3,0.1-0.5c-0.3-0.2-0.2-0.5-0.2-0.7c0.1-0.5,0.3-0.8,0.6-1.2c0.1-0.1,0.4-0.3,0.3-0.6
		c-0.2,0.1-0.3,0.3-0.6,0.3c0.4-0.6,1-1.1,1.8-1.3c0.2,0.2,0.2,0,0.2-0.1c0.2,0,0.3,0.1,0.4,0.2c0.1,0.4,0.5,0.6,0.7,0.9
		c-0.2,0.1-0.4,0-0.5-0.1c-0.5,0-0.8,0.2-1.1,0.6c-0.7,0.9-0.8,1.9-0.7,3c-0.5,0-1,0.2-1.5,0.1c-0.1,0-0.3,0.1-0.3,0.2
		c0,0.4-0.3,0.4-0.6,0.5c-0.3,0.1-0.6,0.1-0.9,0.2c0.2,0.4,0.3,0.9,0.3,1.3c0.1,0.6-0.2,0.8-0.7,1c-0.2,0.1-0.2,0.2-0.1,0.4
		c0.2,0.4,1.6,1,2.1,0.9c0.7-0.1,1.2-0.8,1.9-0.8c0,0.7,0.7,1,1,1.5c0.1,0.1,0.2,0.2,0.3,0.4c-0.8,0-1.4-0.1-2-0.2
		c-1.3-0.2-2.7-0.4-4-0.7c-0.1,0-0.2,0-0.3,0c-0.1,0.1,0,0.2,0.1,0.3C9.5,46.6,9.7,46.8,9.9,46.9z M6.8,45.2c0-0.1,0-0.2-0.1-0.2
		c-0.1,0-0.1,0.1-0.1,0.2c0,0.1,0,0.2,0.1,0.2C6.8,45.4,6.8,45.3,6.8,45.2z M14.1,37.3c-0.1,0.1-0.1,0.1-0.1,0.2
		c0,0.1,0.1,0.1,0.1,0.1c0.1,0,0.1-0.1,0.1-0.2C14.3,37.4,14.2,37.4,14.1,37.3z M6.3,52.9C6.3,52.9,6.3,52.9,6.3,52.9
		c-0.1-0.1-0.1-0.1-0.1,0C6.2,52.9,6.2,53,6.3,52.9C6.3,53,6.3,53,6.3,52.9z M6.3,53.4C6.3,53.4,6.3,53.4,6.3,53.4
		c-0.1-0.1-0.1-0.1-0.1-0.1C6.2,53.4,6.2,53.4,6.3,53.4C6.3,53.5,6.3,53.4,6.3,53.4z"/>
	<path class="st15" d="M23.3,38.9c-0.6,0.1-1.1,0.2-1.7,0.3c-0.2,0-0.5,0.1-0.6-0.2c0.2-0.8,0-1.5,0.1-2.3c0.1-0.9,0.3-1.7,1.3-2.1
		c0.2,0,0.4-0.1,0.6-0.1c0.1,0,0.3,0,0.3-0.2l0,0l0,0c0.2,0.2,0.5,0.1,0.7,0.3c0.1-0.6,0.6-0.2,1-0.4c0,0.1,0.1,0.2,0.2,0.2
		c0.3-0.1,0.6-0.3,0.6,0.2c0,0.1,0.2,0,0.3-0.1c0.2-0.2,0.1-0.3,0-0.5c0.1,0.1,0.2,0.1,0.3,0c0,0.1,0,0.2,0.1,0.2
		c0.1,0,0.2-0.1,0.2-0.2c1.3-0.1,2.6,0,4-0.1c1-0.1,2,0.1,3.1,0.2c0.4,0,0.6,0.3,0.8,0.6c0.1,0.3,0.3,0.5,0.5,0.8
		c-0.1,0.8-0.2,1.7-0.2,2.5c0,0.4-0.2,0.6-0.6,0.5c-0.2-0.1-0.6,0.2-0.8-0.1c0.2-0.6-0.4-0.4-0.5-0.6c-0.1,0.5,0.5,0.3,0.4,0.7
		c-0.2-0.1-0.5,0.1-0.7-0.1c0-0.3,0-0.4-0.3-0.3c-0.2-0.1-0.3,0.3-0.5,0c0.3-0.2,0.7-0.1,0.8-0.5c0.1,0,0.2,0.1,0.2,0.1
		c0,0,0.1,0.1,0.1,0.1c0,0,0,0,0-0.1c0,0-0.1,0-0.1,0c0-0.1,0.1-0.2-0.1-0.2c-0.1,0-0.2,0-0.1,0.1c-0.1-0.1-0.3,0.2-0.5-0.1
		c-0.1-0.2,0.5,0,0.3-0.4c-0.1-0.2-1.3-0.5-1.5-0.5c-0.3,0-0.5,0.5-0.9,0c0.1,0.4,0.3,0.4,0.5,0.4l0,0c0,0.1,0,0.2,0,0.3
		c-0.2,0-0.2,0-0.1,0.2c0.1,0.2-0.1,0.3-0.1,0.2c-0.1-0.2-0.5,0-0.5-0.4c0-0.2,0-0.5,0-0.8c-0.3,0.4-0.7,0.3-0.9-0.1
		c0,0.5,0,0.5-0.3,0.5l0,0c-0.2-0.4-0.5-0.3-0.8-0.2c-0.1,0-0.6,0.2-0.6,0.2c-0.6-0.3-0.6-0.2-0.9,0.3c-0.1,0.1-0.2,0.1-0.2,0
		c0-0.6-0.3,0-0.4-0.1c-0.2,0-0.1,0.3-0.4,0.2c-0.1-0.1,0.2-0.3-0.1-0.4c-0.2-0.1-0.2,0.2-0.3,0.3c-0.3,0.2-0.3,0.7-0.6,0.9
		c0.1,0,0.1,0.1,0.2,0.1c0,0.2,0.1,0.3,0.3,0.2c-0.1-0.1-0.2-0.1-0.4-0.1c0.4-0.4,0.5,0,0.6,0.2c0,0,0,0,0,0
		C24.6,38.7,23.9,38.8,23.3,38.9z M30.4,37.4C30.4,37.4,30.4,37.3,30.4,37.4C30.3,37.3,30.3,37.3,30.4,37.4
		C30.3,37.4,30.3,37.4,30.4,37.4C30.4,37.4,30.4,37.4,30.4,37.4z"/>
	<path class="st15" d="M39.3,38.1c0.3-0.6,0.6-1.2,0.9-1.8c0.2,0,0.3,0,0.5,0c0.1,0.2,0.3,0.4,0.6,0.2l0,0c0.1,0,0.1,0,0.2-0.1
		c0.2,0.1,0.3,0.1,0.5,0c0.1,0,0.1,0,0.2,0c0,0,0,0,0,0l0,0c-0.1,0.2-0.5,0.1-0.4,0.4c0.1,0.2,0.3,0.1,0.5-0.1c0,0,0.1,0,0.1,0
		c0.1,0.1,0.2,0.1,0.4,0c0,0,0.1,0.1,0.1,0.1c-0.1,0.1-0.2,0.3,0,0.3c0.2,0,0.2-0.1,0.2-0.3c0.2,0,0.3,0,0.5,0c0,0,0,0.1,0,0.1
		c-0.1,0.1-0.2,0.1-0.1,0.2c0.1,0.1,0.1-0.1,0.2-0.1c0.2,0,0.1-0.1,0.1-0.2c0.5-0.1,0.5,0.5,0.8,0.6c1,0.4,1.6,1.1,1.8,2.2
		c0,0.9,0.1,1.8-0.2,2.7c0-0.9-0.5-0.4-0.9-0.4c0.1,0.2,0.1,0.3,0.2,0.5c-1.2-0.9-2.5-1.6-3.8-2.3c-0.1-0.2,0.3-0.1,0.2-0.3
		c-0.2,0-0.5-0.1-0.4,0.3c-0.1-0.1-0.1-0.1-0.2-0.1c0-0.3-0.2-0.5-0.4-0.7c0,0,0.2-0.3-0.1-0.3c-0.1,0-0.3,0.1-0.4,0.2
		c-0.2,0.1,0.2,0.3,0,0.4c-0.1,0-0.1-0.3-0.3-0.2c0.1-0.4,0.1-0.4-0.2-0.5c-0.2-0.1-0.4-0.3-0.2-0.5c0.3-0.4,0-0.3-0.2-0.3
		C39.5,38.2,39.4,38.1,39.3,38.1z M40.5,38.9c-0.1,0.1-0.2,0.1-0.2,0.2c0,0,0,0.1,0.1,0.1c0.1,0,0.2,0,0.1-0.1
		C40.6,39.1,40.6,39,40.5,38.9z"/>
	<path class="st14" d="M22.2,47.4c0.7,0.1,1.4,0,1.9-0.5c0,0,0.1,0,0.1,0c0.3-0.2,0.7,0,0.9-0.2c0.1,0,0.2,0,0.3,0
		c0.5,0.3,0.7,0.7,0.8,1.3c0.2,1.3,0.7,2.6,1.2,3.8c-0.2,0.1-0.5,0.1-0.7,0.2c-0.2,0.1-0.3,0.2-0.5,0.2c-0.1,0-0.3,0.1-0.3,0.1
		c-0.3,0.7-0.7,0.3-1.1,0.1c-1-0.7-1.8-1.6-2.3-2.7c0.2-0.1,0.2-0.3,0.2-0.5c-0.1-0.3-0.2-0.6-0.1-1C22.7,47.8,22.5,47.6,22.2,47.4z
		"/>
	<path class="st14" d="M34.6,52.8c-0.1,0.1-0.2,0.1-0.3,0.1c0.1-0.3-0.1-0.5-0.4-0.6c-0.4-0.2-0.7-0.4-1.1-0.6
		c0-0.3,0.1-0.6,0.1-0.9c0.3-1.2,1-2.3,1.1-3.5c0-0.4,0.5-0.5,0.8-0.5c0.4,0,0.8,0,1.1,0.2c0.7,0.6,1.6,0.5,2.5,0.5c0,0,0,0.1,0,0.1
		c-0.2,0-0.4,0-0.5,0c-0.4,0-0.7,0.1-0.5,0.6c0.1,0.2,0.1,0.5-0.1,0.8c-0.5,0.5-0.9,1.1-1.3,1.7c-0.2,0.4-0.4,0.9-0.9,1.1
		C35,52.1,34.8,52.4,34.6,52.8z"/>
	<path class="st12" d="M40.1,39.6c0.2-0.1,0.2,0.2,0.3,0.2c0.3,0.1,0.6,0.4,1,0.4c0.1,0,0.2-0.1,0.2,0.1c0.1,0.1,0.1,0.1,0.2,0.1
		c1.3,0.7,2.7,1.4,3.8,2.3c0,0.4,0.4,0.5,0.5,0.8c0.1,0.3,0.3,0.3,0.5,0c0.3-0.3,0.5-0.7,0.9-0.9c0.5,0.1,0.1,0.4,0.1,0.6
		c0,0.1-0.2,0.4,0.1,0.4c0.5,0.1,0.3,0.3,0.1,0.5c-0.5,0.3-0.9,0.8-1.3,1.2c-0.2,0.2-0.4,0.2-0.5-0.1c0-0.1,0-0.3-0.3-0.2
		c-1.3,0.3-1.5,0.3-2.1-0.8c-0.4-0.6-0.9-1-1.5-1.3c-0.6-0.3-0.7-0.4-0.3-1.1c0.2-0.4-0.1-0.7-0.4-0.8c-0.8-0.3-1.5-0.7-2.3-0.8
		c-0.7-0.1-0.8-0.2-0.7-0.9c0.1,0,0.1,0,0.2,0c0.2,0,0.4,0,0.5-0.1c0.3,0.3-0.1,0.3-0.2,0.5c0.1,0,0.1,0,0.2-0.1
		c0.1,0.1,0.2,0.1,0.3,0.1c0,0,0.1,0,0.1,0l0,0c0,0.2,0,0.3,0.2,0.2C40.1,39.7,40.1,39.7,40.1,39.6L40.1,39.6z"/>
	<path class="st14" d="M14.2,45.1c-0.7,0-1.2,0.7-1.9,0.8c-0.5,0.1-1.9-0.5-2.1-0.9c-0.1-0.1-0.1-0.3,0.1-0.4c0.5-0.2,0.8-0.5,0.7-1
		c-0.1-0.4-0.1-0.9-0.3-1.3c0.3-0.1,0.6-0.1,0.9-0.2c0.3-0.1,0.6-0.1,0.6-0.5c0-0.1,0.1-0.2,0.3-0.2c0.5,0.1,1-0.1,1.5-0.1
		c0.1,0.8,0.2,1.5,0.1,2.3C14.1,44.1,14,44.6,14.2,45.1z"/>
	<path class="st14" d="M31.6,51.4c0,1,0,1-1,1c-0.6,0-1.1,0-1.7,0c-0.3,0-0.4-0.1-0.4-0.4c0.1-0.7-0.2-1.3-0.1-1.9
		c0.4-0.4,0.3-1.7-0.1-2c-0.2-0.2-0.5-0.3-0.1-0.6c0.3-0.3,0.1-0.9-0.3-1.1c0-0.1,0-0.2,0-0.2c1.2,0,2.4-0.2,3.6,0
		c0.1,0,0.3,0,0.4,0.1c-0.5,0.6,0,1.1,0.2,1.6c-0.9,0.9-0.8,2-0.6,3.1C31.6,51,31.6,51.2,31.6,51.4z M30.5,47.9c-0.1,0-0.1,0-0.2,0
		c-0.1-0.1-0.1-0.1-0.3-0.1c-0.2,0-0.3-0.1-0.3-0.3c0-0.2,0.2-0.2,0.4-0.2c0.5,0,1-0.1,1.2,0.6c0.1-0.4,0.1-0.6,0.2-0.8
		c0.1-0.6,0.1-0.8-0.5-0.6c-0.7,0.2-1.3,0-1.9-0.1c-0.3,0-0.3,0-0.4,0.3c-0.1,0.6,0.5,1.1,0.4,1.7c0,0.1,0.1,0.1,0.1,0
		c0.1-0.1,0.3-0.1,0.4-0.1c0,0,0,0.1,0,0.1c0.1,0.8,0.1,0.8-0.2,1.8c0,0,0,0.1,0.1,0.1c0.4,0.2,0.3,0.5,0.3,0.9
		c-0.2,0-0.5,0-0.5,0.3c0,0.4,0.3,0.2,0.6,0.3c0.3,0.1,0.7-0.2,1,0c0.1,0,0.2-0.1,0.2-0.2c0-0.1,0-0.3-0.2-0.3c-0.1,0-0.3,0-0.4,0
		c0-0.7-0.1-1.4-0.1-2c0.1-0.1,0.2-0.4,0.5-0.4c0.3,0,0.6-0.2,0.6-0.5c0-0.3-0.4-0.3-0.6-0.3C30.7,47.9,30.6,47.9,30.5,47.9z"/>
	<path class="st12" d="M35,35.6c-0.2-0.3-0.3-0.5-0.5-0.8c-0.2-0.3-0.5-0.6-0.8-0.6c-1-0.1-2-0.3-3.1-0.2c-1.3,0.1-2.7,0-4,0.1
		c-0.1,0-0.2-0.1-0.3,0c-0.1,0.1-0.2,0.1-0.3,0c-0.4-0.1-0.7,0-1,0.1c-0.3,0.2-0.8-0.2-1,0.4c-0.2-0.2-0.5-0.1-0.7-0.3
		c-0.6-0.3-1.2-0.1-1.8-0.2c0.2-0.4,0.6-0.3,0.9-0.4c0.6,0,1.2,0.1,1.8-0.3c0.3-0.2,0.7-0.2,1.1,0c0.3,0.2,0.8,0.3,0.9-0.3
		c0.7,0.3,1.4,0.3,2.1,0c0.3,0.4,0.8,0.4,1.1,0.3c0.8-0.1,1.6,0.1,2.4,0c0.9-0.1,1.7-0.2,2.6-0.2c0.5,0,0.9,0.1,1.4,0
		c0.3-0.1,0.2,0.2,0.2,0.4c-0.2,1-0.3,2-0.7,2.9c-0.1-0.2-0.1-0.4-0.1-0.6C35.2,35.8,35.2,35.6,35,35.6z"/>
	<path class="st12" d="M23.3,38.9c0.6-0.1,1.3-0.2,1.9-0.3c0.1,0.3-0.2,0.3-0.2,0.5c0.9,0,1.8,0.1,2.7,0c1.6-0.2,3.2,0.1,4.9,0.1
		c0.9,0,1.7,0.1,2.6,0c0.2,0,0.3,0,0.4,0.2c0.1,0.2-0.2,0.2-0.3,0.3c-0.7,0.7-1.4,0.7-2.4,0.6c-1.4-0.1-2.8-0.3-4.2-0.4
		c-0.9-0.1-1.8-0.1-2.6-0.4c-0.8-0.3-1.7-0.3-2.6-0.1c-0.4,0.1-0.8,0.1-1.3,0C22.5,39.1,23.1,39.3,23.3,38.9z"/>
	<path class="st15" d="M14.1,43.5c0.1-0.8,0-1.5-0.1-2.3c-0.1-1.1,0-2.1,0.7-3c0.3-0.4,0.6-0.6,1.1-0.6c-0.1,0.3,0,0.9-0.5,0.9
		c-0.4,0.1-0.5,0.3-0.7,0.5c-0.1,0.1-0.3,0.2,0,0.4c0.1,0.1,0.5,0,0.7-0.1c0.2-0.1,0.4,0.2,0.8,0.3c-0.4-0.4-0.2-0.6,0-0.8
		c0.2-0.2,0.3-0.7,0.7-0.7c0.2,0.6,0.6,1.2,1,1.7c0.3,0.5-0.1,0.6-0.4,0.7c-0.7,0.4-1.4,0.7-2,1.3C14.8,42.4,14.4,43,14.1,43.5z"/>
	<path class="st13" d="M26.4,44.9c0.7-0.5,1.5-0.5,2.4-0.5c0.3,0,0.6-0.1,0.9-0.1c0.6,0,1.1,0.1,1.6,0.1c0.8,0,1.6,0.3,2.4,0.2
		c1,0,1.9,0.3,2.8,0.6c0.1,0,0.1,0.2,0.2,0.2c-0.3,0-0.4,0.2-0.4,0.5c-0.5-0.1-1-0.2-1.4-0.3c-0.8-0.2-0.8-0.1-0.8,0.7
		c0,0.2-0.1,0.4-0.1,0.6c-0.3,0-0.5-0.1-0.5-0.5c0-0.2,0-0.4,0-0.6c0-0.4-0.2-0.6-0.6-0.6c-1.4-0.1-2.8-0.2-4.2-0.1
		c-0.7,0-1.4-0.1-2,0.4C26.5,45.3,26.5,45.1,26.4,44.9z"/>
	<path class="st14" d="M47.7,42.6c-0.4,0.2-0.7,0.5-0.9,0.9c-0.2,0.2-0.4,0.3-0.5,0c-0.1-0.3-0.5-0.5-0.5-0.8
		c-0.1-0.1-0.1-0.3-0.2-0.5c0.4,0.1,0.8-0.4,0.9,0.4c0.3-0.9,0.2-1.8,0.2-2.7c0.2-0.1,0.3-0.2,0.5-0.3c0.1,0,0.2,0,0.4,0
		c0,0.2,0,0.4,0.3,0.4c0.6,0,1,0.6,1.6,0.7c0.2,0,0.1,0.3,0.2,0.4c-0.5,0.4-1,0.9-1.5,1.3C47.8,42.3,47.7,42.4,47.7,42.6z"/>
	<path class="st13" d="M47,39.5c-0.2,0.1-0.3,0.2-0.5,0.3c-0.2-1-0.8-1.8-1.8-2.2c-0.3-0.1-0.3-0.7-0.8-0.6c0,0,0,0,0,0
		c0-0.2-0.2,0-0.3-0.1l0,0c0-0.3-0.3-0.3-0.5-0.4c-0.1-0.1-0.1-0.1-0.2-0.1c-0.1,0-0.2-0.1-0.3-0.1l0,0c-0.1-0.1-0.2-0.2-0.3,0
		c0,0.1-0.1,0.1-0.1,0.2c-0.1,0-0.1,0-0.2,0c0,0,0-0.1,0-0.1c0.2-0.4-0.2-0.1-0.2-0.2c0-0.1,0-0.2-0.1-0.3c-0.3-0.1-0.5-0.3-0.7-0.6
		c0.1-0.2,0.2-0.4,0.5-0.4c0.5,0,0.7,0.5,1.1,0.7c1.2,0.6,2.4,1.1,3.6,1.7c0.6,0.3,1.3,0.7,1.5,1.5c0,0.3,0.3,0.3,0.5,0.3
		c0.2,0,0.4,0,0.6,0c0,0,0,0.1,0,0.1C48,39.3,47.5,39.1,47,39.5z"/>
	<path class="st13" d="M35.1,39.2c-0.9,0.1-1.7,0-2.6,0c-1.6,0-3.2-0.3-4.9-0.1c-0.9,0.1-1.8,0-2.7,0c0-0.3,0.4-0.3,0.2-0.5
		c0,0,0,0,0,0c0.3,0.1,0.4,0,0.4-0.3c0.1,0,0.1,0,0.2,0l0,0c0,0.1,0,0.1,0.1,0.1c0.1,0,0.2,0,0.2-0.1l0.1,0l0.1,0
		c0.1,0,0.2-0.1,0.3-0.1c0,0,0,0,0.1,0c-0.1,0.3,0.1,0.2,0.3,0.3l0,0c0.1,0.1,0.1,0.2,0.3,0.2c0.2-0.1,0.4,0.1,0.6-0.1
		c0.6,0,1.2,0,1.7,0c0.2,0,0.4,0,0.6,0c0.3,0,0.7,0,1,0c0.4,0,0.8,0,1.2,0c0.2,0.1,0.3,0.1,0.5,0l0,0c0.2,0.2,0.5,0.1,0.7,0.1l0.1,0
		c0.2,0.4,0.5,0.1,0.8,0.1c0.2,0.5,0.6,0.1,0.9,0.1c0,0,0,0.1,0,0.1c0,0,0.1,0.1,0.1,0.1C35.1,39.1,35.1,39.1,35.1,39.2z"/>
	<path class="st12" d="M26.4,44.9c0,0.2,0.1,0.4,0.1,0.6c0,0.2,0,0.3,0.1,0.5c0,0.1-0.1,0.4,0.1,0.4c0.2,0,0.1-0.2,0.2-0.3
		c0.1,0,0.2,0,0.2,0c0.1-0.5,0.3-0.3,0.5,0c0.1,0.1,0.2,0,0.3,0.1c0,0.1,0,0.2,0,0.2c-0.3,0-0.3,0.3-0.3,0.5c0.1,0.5,0.1,1,0.4,1.4
		c0.4,0.6,0.5,1.2,0.4,1.9c-0.1,0.6,0.2,1.3,0.1,1.9c-0.3-0.4-0.7-0.8-0.4-1.4c0.1-0.3,0-0.6-0.2-0.7c-0.4-0.2-0.4-0.5-0.5-0.8
		c-0.1-0.5-0.3-1-0.3-1.6c0-0.2,0-0.3-0.2-0.4c-0.6-0.3-0.8-0.8-0.8-1.4c0-0.1,0-0.3-0.1-0.3c-0.6,0.3-1-0.2-1.4-0.4
		c-0.1,0-0.1,0-0.2-0.1C25.1,44.6,25.8,44.8,26.4,44.9z"/>
	<path class="st12" d="M36.3,46c0-0.3,0.1-0.5,0.4-0.5c0.1,0,0.1,0,0.2,0c0.1,0,0.1,0,0.2,0c0,0,0,0,0,0c0,0,0.1,0.1,0.1,0.1
		c0.8,0.3,1.5,0.6,1.9,1.4c0.2,0.4,0.2,1.1-0.2,1.4c-0.1,0.1-0.2,0.1-0.2,0.2c-0.1,0.2-0.2,0.6,0.1,0.7c0.3,0.1,0.6-0.1,0.8-0.3
		c0.4-0.4,0.6-1.8,0.3-2.3c0.9,0.1,1.4,0.8,1.1,1.4c-0.3,0.5-0.7,1.1-1.3,1.3c-0.1,0-0.1,0.1-0.2,0.1c0,0-1,0.3-1,0.3
		c0,0-0.1,0-0.1,0c0-0.2,0-0.3-0.2-0.3c0.1-0.6,0.5-1.1,0.5-1.8c0,0,0-0.1,0-0.1c0.4-0.2,0.1-0.3-0.1-0.4
		C37.8,46.7,37.1,46.3,36.3,46z"/>
	<path class="st14" d="M22.4,34.6c-0.9,0.4-1.2,1.1-1.3,2.1c0,0.8,0.1,1.5-0.1,2.3c-0.3,0-0.3-0.3-0.3-0.4c-0.3-0.7-0.5-1.3-0.9-2
		c-0.1-0.2-0.2-0.4-0.2-0.6c0.1-0.5,0.6-0.5,0.8-0.8c0.4-0.5,1.1-0.5,1.7-0.7C22.2,34.4,22.3,34.5,22.4,34.6z"/>
	<path class="st13" d="M38.6,47.6c0.1,0.7-0.3,1.2-0.5,1.8c-0.4,0.3-0.8,0.6-0.8,1.2c0,0.2-0.2,0.4-0.4,0.5
		c-0.7,0.6-1.4,1.3-2.3,1.7c0.1-0.4,0.3-0.7,0.7-1c0.4-0.3,0.6-0.7,0.9-1.1c0.4-0.6,0.8-1.2,1.3-1.7c0.2-0.2,0.2-0.6,0.1-0.8
		c-0.3-0.6,0.1-0.6,0.5-0.6C38.2,47.6,38.4,47.6,38.6,47.6z"/>
	<path class="st12" d="M6.1,48.4c0,0.1,0,0.2,0,0.4c-0.3,0-0.2,0.3-0.2,0.5c0,0.4,0,0.8,0,1.2c0,0.1,0,0.2,0,0.3
		c-0.2,0.3-0.1,0.7-0.1,1.1c-0.1,0.5,0.1,1,0.1,1.5c-0.4,0.2-0.6,0.1-0.6-0.3c0-1.2,0.1-2.3,0.2-3.4c0-0.8,0.1-1.6,0.2-2.4
		c0.1-1,0.3-2,0.4-3c0.3,0.2,0.1,0.6,0.3,0.7c0.1,0.2,0,0.4,0,0.6c-0.1,0-0.2,0.1-0.2,0.2c0,0.4-0.1,0.8-0.1,1.2
		C6,47.4,5.9,47.9,6.1,48.4z"/>
	<path class="st15" d="M28.4,33.2c-0.7,0.3-1.4,0.3-2.1,0c0-0.1,0-0.2,0-0.2c-0.3-0.1-0.5-0.4-0.4-0.6c0.1-0.3,0.4-0.4,0.7-0.5
		c0.7-0.1,1.3-0.2,1.9,0.3c0.3,0.2,0.5,0.4,0.1,0.7C28.3,32.9,28.4,33.1,28.4,33.2z M26.9,32.6c-0.1-0.2-0.2-0.4-0.4-0.4
		c-0.1,0-0.2,0.1-0.2,0.2c0,0.3,0.2,0.4,0.4,0.4C26.8,32.8,26.9,32.8,26.9,32.6z"/>
	<path class="st12" d="M48,39.1c-0.2,0-0.4,0-0.5-0.3c-0.1-0.9-0.8-1.2-1.5-1.5c-1.2-0.6-2.4-1.2-3.6-1.7c-0.4-0.2-0.6-0.6-1.1-0.7
		c0-0.3,0.1-0.5,0.4-0.5c0.3-0.1,0.2,0.2,0.3,0.3c0.5,0.6,1.2,0.9,1.9,1.2c1.3,0.6,2.5,1.2,3.7,2.1C48,38.2,48.2,38.6,48,39.1z"/>
	<path class="st13" d="M22.3,50.3c0.3,0.2,0.4,0.4,0.5,0.7c0.4,1,1.3,1.5,2.2,2.1c0.1,0.1,0.2,0.1,0.3,0.2c0.2,0.2,0.2,0.5,0.1,0.7
		c-0.1,0.2-0.3,0-0.4-0.1c-1.3-0.6-2.2-1.6-2.6-2.9C22.3,50.7,22.2,50.6,22.3,50.3z"/>
	<path class="st13" d="M22.4,34.6c-0.1-0.1-0.2-0.2-0.3-0.2c-0.6,0.2-1.2,0.2-1.7,0.7c-0.3,0.3-0.8,0.4-0.8,0.8
		c-0.4-0.5-0.7-1.1-0.8-1.8c0.5,0.1,0.9,0.6,1.3,0.1c0.1,0,0.2,0,0.2,0c0.4,0.3,0.8-0.1,1.2-0.1c0.6,0.1,1.3-0.2,1.8,0.2
		c0,0,0,0,0,0s0,0,0,0c-0.2,0-0.3,0-0.3,0.2C22.8,34.5,22.6,34.6,22.4,34.6z"/>
	<path class="st13" d="M28.7,54c0.2,0.2,0.5,0.1,0.7,0.1c0.5,0,1,0,1.6,0c0.1,0.1,0.2,0.1,0.2,0.1c-0.1,0.7-0.5,0.8-1.1,0.7
		c-0.6-0.1-1.1,0.1-1.7-0.1c0-0.3,0-0.6,0.1-0.8C28.6,54,28.7,54,28.7,54z"/>
	<path class="st14" d="M16.7,38.2c-0.4,0-0.5,0.4-0.7,0.7c-0.2,0.2-0.4,0.4,0,0.8c-0.4-0.1-0.5-0.4-0.8-0.3
		c-0.2,0.1-0.6,0.1-0.7,0.1c-0.2-0.1,0-0.3,0-0.4c0.2-0.2,0.3-0.5,0.7-0.5c0.4-0.1,0.4-0.6,0.5-0.9c0.2,0,0.3,0.1,0.5,0.1
		C16.3,38,16.6,38,16.7,38.2z M15.3,38.8C15.2,38.8,15.2,38.8,15.3,38.8C15.1,38.8,15.1,38.9,15.3,38.8c0,0.1,0.2,0.3,0.2,0.1
		C15.6,38.8,15.4,38.9,15.3,38.8z"/>
	<path class="st12" d="M20.3,34.3c-0.1,0-0.2,0-0.2,0c-0.4-0.2-0.8-0.4-1.2-0.4c-0.4-0.1-0.4-0.3-0.5-0.6c-0.1-0.2-0.1-0.4,0.1-0.5
		c0.2-0.1,0.3,0,0.4,0.1c0.6,0.5,1.3,0.9,2.1,1C20.9,34.3,20.5,34.1,20.3,34.3z"/>
	<path class="st12" d="M6.4,43.1c0,0.4,0.1,0.7,0.6,0.3c-0.3,0.3,0.3,1-0.5,1.1c0-0.3-0.1-0.5-0.3-0.7c-0.4-0.4-0.4-1.1-0.3-1.6
		c0-0.4,0.1-0.7-0.2-1.1c0.4,0.1,0.7,0.2,0.7,0.6C6.4,42.2,6.4,42.6,6.4,43.1z"/>
	<path class="st14" d="M35,38.8c-0.3,0-0.6,0.4-0.9-0.1c0.4,0.1,0.6-0.1,0.6-0.5c0-0.8,0.1-1.7,0.2-2.5c0.2,0,0.3,0.2,0.3,0.4
		c0,0.2,0,0.4,0.1,0.6C35.2,37.3,35.1,38,35,38.8z"/>
	<path class="st13" d="M32.9,51.7c0.4,0.2,0.7,0.4,1.1,0.6c0.3,0.1,0.4,0.3,0.4,0.6c-0.7,0.1-1.2-0.3-1.9-0.4
		c-0.2,0-0.1-0.2-0.1-0.3C32.5,52,32.7,51.9,32.9,51.7z"/>
	<path class="st13" d="M49.4,40.9c0-0.2,0-0.4-0.2-0.4c-0.6-0.1-1-0.7-1.6-0.7c-0.3,0-0.3-0.2-0.3-0.4c0.4,0,0.9-0.1,1.2,0.3
		c0.5,0.3,1.1,0.3,1.6,0.5C49.9,40.6,49.8,40.8,49.4,40.9z"/>
	<path class="st16" d="M31,54.2c-0.5,0-1,0-1.6,0c-0.1-0.6,0.1-0.8,0.7-0.7c0.3,0,0.6,0,0.9,0c0,0.2,0,0.4,0,0.6
		C31,54,31,54.1,31,54.2z"/>
	<path class="st13" d="M22.2,47.4c0.3,0.2,0.4,0.4,0.4,0.8c-0.1,0.3,0,0.7,0.1,1c0.1,0.2,0,0.4-0.2,0.5c-0.4-0.6-0.5-1.3-0.7-1.9
		C21.8,47.6,21.9,47.4,22.2,47.4z"/>
	<path class="st13" d="M32.2,47.8c-0.3-0.5-0.7-1-0.2-1.6c0.2,0,0.5,0,0.7,0c0,0.4-0.3,0.7,0,1.1c0,0.1,0,0.2,0,0.2
		c-0.2,0-0.3,0-0.4,0.2C32.3,47.8,32.3,47.8,32.2,47.8z"/>
	<path class="st14" d="M40.9,35.3c0.2,0.3,0.4,0.5,0.7,0.6c0.2,0,0.1,0.2,0.1,0.3c-0.2,0.3,0.2,0.1,0.2,0.2c0,0,0,0.1,0,0.1
		c-0.2,0.1-0.3,0.1-0.5,0c0-0.1,0-0.2-0.1-0.1c0,0,0,0.1-0.1,0.2c0,0,0,0,0,0c-0.1-0.3-0.4-0.2-0.6-0.2c-0.2,0-0.3,0-0.5,0
		C40.5,36,40.5,35.5,40.9,35.3z"/>
	<path class="st12" d="M28.6,54c-0.2,0.3-0.1,0.5-0.1,0.8c-0.3,0-0.5-0.2-0.8-0.3c-0.2-0.1-0.3-0.3-0.3-0.6c0.1-0.3,0.4-0.1,0.5-0.1
		c0.1,0,0.2,0,0.2,0C28.3,53.9,28.5,54,28.6,54z"/>
	<path class="st12" d="M33.9,47.9c0,0,0,0.1,0,0.2c0,0.4-0.5,0.5-0.7,0.5c-0.3,0-0.1-0.3,0-0.5c0-0.1,0-0.2,0-0.4
		c0-0.2-0.1-0.5,0.2-0.4C33.6,47.4,34,47.4,33.9,47.9z"/>
	<path class="st12" d="M50.1,40.3c-0.5-0.2-1.1-0.2-1.6-0.5c0.1-0.4,0.2-0.7,0.6-0.2c0.3,0.3,0.7,0.2,1,0.2c0.1,0,0.3,0,0.3,0.2
		C50.5,40.2,50.3,40.3,50.1,40.3z"/>
	<path class="st14" d="M40.1,39.6C40.1,39.6,40.1,39.6,40.1,39.6c-0.1-0.1-0.3-0.2-0.4-0.4c-0.1-0.1,0-0.4-0.3-0.1
		c-0.1,0.1-0.3,0.2-0.5,0.1c0,0,0-0.1,0-0.1c0.2-0.3,0.1-0.7,0.4-0.9c0,0,0.1,0,0.1,0c0.2,0,0.5-0.1,0.2,0.3c-0.2,0.2,0,0.4,0.2,0.5
		C40.2,39.2,40.2,39.2,40.1,39.6z"/>
	<path class="st12" d="M26.3,52.2c0.2-0.1,0.3-0.2,0.5-0.2c0.2,0.2,0.4,0.1,0.7,0.1c0.2,0,0.3,0.1,0.2,0.3c-0.2,0.3-0.6,0.2-0.9,0.3
		C26.5,52.7,26.3,52.5,26.3,52.2z"/>
	<path class="st12" d="M35.1,46.6c-0.1-0.2-0.3-0.1-0.4-0.1c-0.2,0-0.3,0-0.4-0.2c0-0.1,0-0.3,0.2-0.4c0.2-0.2,0.4,0,0.6,0.1
		c0.2,0.1,0.4,0.1,0.4,0.4C35.5,46.6,35.3,46.6,35.1,46.6z"/>
	<path class="st12" d="M32.2,54c0.3,0.1,0.6-0.3,0.7,0c0.1,0.3-0.4,0.3-0.5,0.5c0,0-0.1,0.1-0.1,0.1c-0.1,0.1-0.2,0.3-0.4,0.2
		c-0.2-0.1-0.1-0.3-0.1-0.4c0-0.1,0-0.2,0.1-0.3C32,54,32.1,54,32.2,54z"/>
	<path class="st14" d="M32.2,54c-0.1,0-0.2,0-0.3,0c-0.1,0-0.2,0-0.3,0c-0.2,0-0.4,0-0.6-0.1c0-0.2,0-0.4,0-0.6
		c0.2,0,0.5,0.1,0.7,0.1C32.1,53.6,32.3,53.7,32.2,54z"/>
	<path class="st12" d="M32.7,47.3c-0.3-0.4,0-0.7,0-1.1c0-0.2-0.3-0.4,0-0.4c0.3-0.1,0.1,0.2,0.2,0.3C33.2,46.5,33.1,46.9,32.7,47.3
		z"/>
	<path class="st12" d="M31.8,50c0-0.2,0-0.4,0.2-0.4c0.2,0,0.4,0.2,0.4,0.4c0,0.2,0,0.5-0.3,0.5C32,50.6,31.8,50.3,31.8,50z"/>
	<path class="st12" d="M24.3,46.9c0,0-0.1,0-0.1,0c-0.2-0.4,0.2-0.9,0.6-0.8c0.1,0,0.2,0.1,0.2,0.2c0,0.2,0,0.3-0.2,0.3
		C24.6,46.6,24.3,46.6,24.3,46.9z"/>
	<path class="st14" d="M28.6,54c-0.1,0-0.3-0.1-0.4-0.1c0.1-0.5,0.5-0.4,0.8-0.5c0.1,0,0.2,0.1,0.2,0.2c0,0.1,0,0.2-0.1,0.3
		C29,53.9,28.9,54,28.7,54C28.7,54,28.6,54,28.6,54z"/>
	<path class="st12" d="M7.1,41.4c0,0.5,0,0.9,0,1.4c-0.4-0.4-0.1-0.9-0.4-1.2C6.8,41.4,7,41.4,7.1,41.4z"/>
	<path class="st12" d="M32.4,48.1c0.2,0.5,0,0.8-0.3,1.3C32.1,48.8,32.2,48.4,32.4,48.1z"/>
	<path class="st12" d="M50.2,39.2c0.2,0.1,0.4-0.1,0.5,0.2c0,0.2-0.2,0.3-0.3,0.3c-0.2,0-0.5,0-0.5-0.3
		C49.8,39.1,50.1,39.3,50.2,39.2z"/>
	<path class="st12" d="M8.9,55.4c0-0.2-0.1-0.4,0.2-0.4c0.2,0,0.3,0.2,0.3,0.3c0,0.2-0.1,0.4-0.3,0.4C8.8,55.8,9,55.5,8.9,55.4z"/>
	<path class="st12" d="M6.4,54c0-0.2,0.1-0.3,0.3-0.1c0.2,0.2,0.4,0.2,0.5,0.5C6.5,54.9,6.6,54.1,6.4,54z"/>
	<path class="st12" d="M31.6,51.4c0-0.2,0-0.3,0-0.5c0.2-0.1,0.4-0.2,0.4,0.1C32.2,51.4,31.9,51.4,31.6,51.4z"/>
	<path class="st12" d="M7.6,54.5c0.2,0,0.4,0,0.6,0c0,0.2-0.1,0.4-0.4,0.4C7.6,54.8,7.6,54.7,7.6,54.5z"/>
	<path class="st12" d="M31.1,54c0.2,0,0.4,0,0.6,0.1c0,0.2-0.2,0.2-0.4,0.2c-0.1,0-0.2,0-0.2-0.1C31,54.1,31,54,31.1,54z"/>
	<path class="st12" d="M48.5,39.2c0,0,0-0.1,0-0.1c0.2-0.2,0.5-0.1,0.9-0.1C49,39.1,48.8,39.2,48.5,39.2z"/>
	<path class="st13" d="M26.9,46.1c0,0.1,0,0.3-0.2,0.3c-0.2,0-0.1-0.3-0.1-0.4C26.8,45.9,26.9,46,26.9,46.1z"/>
	<path class="st12" d="M33.9,46.9c0-0.2,0.1-0.4,0.1-0.6C34.2,46.6,34.3,46.8,33.9,46.9z"/>
	<path class="st12" d="M32.3,47.8c0-0.2,0.2-0.2,0.4-0.2C32.7,47.7,32.6,47.9,32.3,47.8z"/>
	<path class="st12" d="M25.5,46.6c-0.1,0-0.2,0-0.3,0c0.1-0.1-0.2-0.3,0.1-0.3C25.5,46.3,25.5,46.5,25.5,46.6z"/>
	<path class="st12" d="M42.3,33.6c0.1,0.1,0.1,0.1,0.1,0.1c0,0.1-0.1,0.1-0.1,0.2c-0.1,0-0.2,0-0.1-0.1
		C42.1,33.7,42.2,33.7,42.3,33.6z"/>
	<path class="st12" d="M9.7,41.3c0,0.1-0.1,0.2-0.2,0.2c-0.1,0-0.1-0.1-0.2-0.2C9.5,41.3,9.6,41.3,9.7,41.3z"/>
	<path class="st12" d="M12.7,47.6c0,0-0.1,0.1-0.1,0c-0.1,0-0.1-0.1-0.1-0.1c0,0,0.1,0,0.1,0C12.7,47.4,12.7,47.5,12.7,47.6z"/>
	<path class="st12" d="M15.1,36.6c0,0.2,0,0.3-0.2,0.1C15,36.6,15,36.6,15.1,36.6z"/>
	<path class="st12" d="M10.2,18.5c0,0,0.1,0,0.1,0c0,0,0,0.1,0,0.1C10.2,18.6,10.2,18.6,10.2,18.5C10.2,18.5,10.2,18.5,10.2,18.5z"
		/>
	<path class="st12" d="M51.1,39.7C51.1,39.6,51,39.6,51.1,39.7c-0.1-0.1-0.1-0.1-0.1-0.1C51.1,39.5,51.1,39.5,51.1,39.7
		C51.2,39.6,51.1,39.6,51.1,39.7z"/>
	<path class="st12" d="M9.1,19.6C9.1,19.6,9.2,19.6,9.1,19.6c0.1,0.1,0.1,0.1,0.1,0.1C9.1,19.7,9.1,19.7,9.1,19.6
		C9.1,19.6,9.1,19.6,9.1,19.6z"/>
	<path class="st12" d="M12,47.3C12,47.3,12,47.3,12,47.3c-0.1,0.1-0.1,0.1-0.1,0.1C11.8,47.3,11.8,47.2,12,47.3
		C11.9,47.2,11.9,47.2,12,47.3z"/>
	<path class="st16" d="M38.9,39.1c0,0,0,0.1,0,0.1c-0.1,0-0.1,0-0.2,0c0-0.1,0-0.2,0-0.3C38.8,39,38.8,39.1,38.9,39.1z"/>
	<path class="st14" d="M14.3,17.3c-0.1,0.1-0.2,0.1-0.4,0.1C14,17.3,14.2,17.3,14.3,17.3z"/>
	<path class="st14" d="M13.9,17.5c-0.1,0.2-0.2,0.1-0.4,0.1C13.7,17.4,13.8,17.5,13.9,17.5z"/>
	<path class="st12" d="M24.2,45.1C24.2,45.1,24.1,45.1,24.2,45.1c-0.1,0-0.2,0-0.2,0C24,45,24.1,45,24.2,45.1
		C24.1,45,24.2,45,24.2,45.1z"/>
	<path class="st13" d="M11.2,18.5c-0.1,0.1-0.2,0.1-0.4,0.1C10.9,18.5,11,18.5,11.2,18.5z"/>
	<path class="st13" d="M11.7,18.3c-0.1,0.1-0.2,0.1-0.4,0.1C11.4,18.3,11.5,18.3,11.7,18.3z"/>
	<path class="st13" d="M13.2,17.7c0,0.1-0.1,0.1-0.2,0.1C13,17.7,13.1,17.7,13.2,17.7z"/>
	<path class="st12" d="M23.4,45.3C23.3,45.3,23.3,45.3,23.4,45.3C23.3,45.3,23.3,45.3,23.4,45.3C23.3,45.3,23.3,45.3,23.4,45.3
		C23.3,45.3,23.3,45.3,23.4,45.3z"/>
	<path class="st12" d="M22.8,45.5c0,0,0.1-0.1,0.1-0.1c0,0,0,0,0,0C22.9,45.4,22.9,45.5,22.8,45.5C22.8,45.5,22.8,45.5,22.8,45.5z"
		/>
	<path class="st12" d="M22.6,45.6c0.1-0.1,0.1-0.1,0.2-0.1c0,0,0,0,0,0C22.8,45.6,22.7,45.6,22.6,45.6L22.6,45.6z"/>
	<path class="st12" d="M22.6,45.6c0,0-0.1,0.1-0.1,0.1c0,0,0,0,0,0C22.5,45.6,22.5,45.6,22.6,45.6C22.6,45.6,22.6,45.6,22.6,45.6z"
		/>
	<path class="st13" d="M13.4,17.7c-0.1,0-0.1,0-0.2,0C13.3,17.6,13.3,17.6,13.4,17.7z"/>
	<path class="st13" d="M37,45.5c-0.1,0-0.1,0-0.2,0C36.9,45.4,37,45.4,37,45.5z"/>
	<path class="st13" d="M37.2,45.6c0,0-0.1-0.1-0.1-0.1C37.1,45.5,37.1,45.6,37.2,45.6z"/>
	<path class="st14" d="M35.1,39c0,0-0.1-0.1-0.1-0.1C35,38.9,35,38.9,35.1,39z"/>
	<path class="st16" d="M39.4,38.3c0,0-0.1,0-0.1,0c0,0,0-0.1,0-0.1C39.4,38.1,39.5,38.2,39.4,38.3z"/>
	<path class="st13" d="M11.3,18.4c0,0-0.1,0.1-0.1,0.1C11.2,18.5,11.3,18.5,11.3,18.4z"/>
	<path class="st13" d="M16.7,16.9c1-0.5,2.1-0.6,3.2-0.8c1.5-0.3,2.9-0.4,4.4-0.6c0.2,0,0.4-0.1,0.5,0.1c0.1,0.2-0.1,0.3-0.2,0.5
		c-0.7,1.3-1.2,2.6-1.5,4c-0.1,0.6-0.3,1.2-0.4,1.7c-0.1,0.7,0,0.9,0.7,1c0.9,0.1,1.8,0.2,2.7,0.2c1.1-0.1,2.3,0.2,3.4,0.2
		c0.9,0.1,1.9,0,2.8,0.1c0.8,0,1.6,0,2.4,0.1c0.7,0.1,1.4,0.1,2.1,0c1.1,0,2.1,0.2,3.1,0.2c1.1,0.1,2.3,0,3.4,0c0.4,0,0.9-1,0.7-1.4
		c-0.2-0.3-0.2-0.6-0.3-1c-0.1-0.5-0.2-0.9-0.7-1.1c-0.2-0.1-0.2-0.2-0.2-0.4c0-0.3-0.1-0.6-0.3-0.8c-0.2-0.3-0.4-0.5-0.1-0.8
		c0.2-0.2,0-0.4-0.2-0.6c-0.1-0.1-0.3-0.3-0.2-0.5c0.4-0.3,0.1-0.4-0.1-0.7c1,0.3,2.1,0.5,3.1,0.8c1.5,0.5,3,0.9,4.3,1.6
		c0,0,0.1,0,0.2,0c0.3,0.7,0.4,1.5,0.5,2.3c0.1,0.7,0.4,1.4,0.5,2.2c0.1,0.6,0.4,1.2,0.1,1.8c-0.1,0.2,0,0.3,0.2,0.3
		c0.2,0,0.5,0,0.4,0.3c0,0.3-0.4,0.4-0.6,0.4c-1.7,0-3.3,0-5-0.4c-1.7-0.4-3.4-0.7-5.1-0.8c-0.5,0-1-0.2-1.5-0.2
		c-2-0.2-4.1-0.5-6.1-0.6c-1.5-0.1-3,0-4.5-0.1c-0.8,0-1.7,0-2.5-0.1c-1,0-1.9,0-2.9,0.2c-0.7,0.1-1.5,0-2.2,0c-0.1,0-0.3,0-0.4,0
		c-1,0.4-2.1,0.2-3.2,0.2c-0.5,0-1.1-0.1-1.7-0.2c-0.7-0.2-0.7-0.3-0.6-0.9c0.1-0.8,0.6-1.6,0.4-2.5c-0.1-0.3,0-0.6,0.4-0.8
		c0.1,0,0.1-0.1,0.1-0.2C16.1,18.7,16.7,17.9,16.7,16.9z"/>
	<path class="st13" d="M52.5,20c-0.3,0.1-0.4,0-0.5-0.2C52.2,19.7,52.3,19.9,52.5,20z"/>
	<path class="st14" d="M39,15.2c-1.5,0-2.9-0.3-4.4-0.4c-0.1,0-0.2,0-0.3,0c-1.8,0-3.6-0.2-5.4-0.1c-0.5,0-0.9,0-1.4-0.2
		c-0.4-0.2-0.5-0.4-0.2-0.8c0.2-0.2,0.5-0.3,0.8-0.4c0.4-0.2,0.7-0.6,1.1-0.9c0.8-0.6,1.7-1.3,2.6-1.8c0.4-0.2,0.4-0.8,0.9-1
		c0.3-0.1,0.6-0.2,1,0c0.7,0.2,1.3,0.6,1.9,0.6c0.6,0,0.6,0.2,0.7,0.6c0.1,0.3,0.3,0.6,0.8,0.5c0.2,0,0.3,0,0.4,0.1
		c0.5,0.9,1.6,1.2,2.1,2.2c0,0.1,0.2,0.2,0.1,0.3c-0.2,0.3,0,0.5,0.2,0.7c0.1,0.1,0.2,0.2,0.2,0.4c-0.1,0.2-0.2,0.2-0.4,0.2
		C39.5,15.2,39.3,15.2,39,15.2z"/>
	<path class="st11" d="M18,16.1c-0.6,0.2-1.3,0.5-1.9,0.5C16.7,16.3,17.4,16.1,18,16.1z"/>
	<path class="st11" d="M16.1,16.6c-0.2,0.2-0.5,0.2-0.8,0.2C15.5,16.6,15.8,16.6,16.1,16.6z"/>
	<path class="st11" d="M18.9,16c-0.2,0-0.4,0.1-0.6,0.1C18.4,15.8,18.6,15.9,18.9,16z"/>
	<path class="st11" d="M15.3,16.9C15.2,17,15,17,14.9,17C15,16.8,15.1,16.9,15.3,16.9z"/>
	<path class="st11" d="M14.8,17.1c-0.1,0-0.2,0-0.2,0C14.6,17,14.7,17,14.8,17.1z"/>
	<path class="st11" d="M6.2,21.2c-0.1,0.2-0.1,0.3-0.3,0.3c0,0-0.1-0.1-0.1-0.1C5.9,21.2,6,21.2,6.2,21.2z"/>
	<path class="st11" d="M3.6,24c0-0.1,0-0.2,0.1-0.3c0.1,0,0.1,0.1,0.1,0.2c0,0,0,0,0,0C3.8,23.9,3.7,23.9,3.6,24L3.6,24z"/>
	<path class="st11" d="M3.6,24C3.6,24,3.6,24,3.6,24C3.6,24,3.6,24,3.6,24C3.6,24,3.6,24,3.6,24z"/>
	<path class="st13" d="M39.3,15.9c0.6,0.1,1.2,0.2,1.8,0.3C40.5,16.3,39.9,16.2,39.3,15.9z"/>
	<path class="st13" d="M26.8,15.4c-0.3,0-0.5,0-0.8,0c0,0,0,0,0-0.1C26.2,15.3,26.5,15.3,26.8,15.4C26.8,15.4,26.8,15.4,26.8,15.4z"
		/>
	<path class="st13" d="M27.8,15.4c0,0-0.1,0-0.1-0.1c0-0.1,0-0.1,0.1-0.1c0,0,0.1,0,0.1,0.1C28,15.4,27.9,15.4,27.8,15.4z"/>
	<path class="st13" d="M25.5,15.3c0.1,0,0.1,0,0.1,0.1c0,0-0.1,0.1-0.1,0.1C25.4,15.5,25.4,15.5,25.5,15.3
		C25.4,15.4,25.5,15.3,25.5,15.3z"/>
	<path class="st12" d="M13.1,38c0.2,0,0.3-0.2,0.6-0.3c0.1,0.3-0.2,0.4-0.3,0.6c-0.3,0.3-0.5,0.7-0.6,1.2c-0.1,0.3-0.1,0.5,0.2,0.7
		c0.2,0.1,0.3,0.3-0.1,0.5c-0.2,0.1-0.2,0.4-0.4,0.3c-0.3-0.2,0.1-0.3,0.1-0.5c0.1-0.1,0-0.2,0-0.3c-0.2-0.6-0.1-1.2,0.3-1.7
		C13,38.4,13.1,38.2,13.1,38C13.1,38,13.1,38,13.1,38z"/>
	<path class="st11" d="M6.1,48.4c-0.3-0.5-0.1-1-0.1-1.5c0-0.4,0.2-0.8,0.1-1.2c0-0.2,0.1-0.2,0.2-0.2c0,0.2,0,0.3,0,0.5
		c0,0.2-0.1,0.4,0.1,0.5c0.1,0.3-0.3,0.5-0.2,0.8c0,0.2-0.1,0.4,0.1,0.6c0,0.1,0,0.2,0,0.2C6.4,48.3,6.3,48.4,6.1,48.4z"/>
	<path class="st11" d="M5.9,50.4c0-0.4,0-0.8,0-1.2c0-0.2,0-0.4,0.2-0.5c0.1,0.4,0,0.9,0.1,1.3c0,0.1,0,0.2,0,0.2
		C6.2,50.4,6,50.4,5.9,50.4z"/>
	<path class="st11" d="M5.8,51.9c0.1-0.4-0.1-0.8,0.1-1.1c0.2,0.3,0.1,0.7,0.2,1c0,0,0,0.1,0,0.1C6,51.9,5.9,51.9,5.8,51.9z"/>
	<path class="st12" d="M6.1,51.8c0,0,0-0.1,0-0.1c0.4,0.1,0.2,0.4,0.3,0.8C6,52.3,6.2,52,6.1,51.8z"/>
	<path class="st12" d="M6.5,46.4c-0.2-0.1-0.1-0.3-0.1-0.5C6.9,46,6.7,46.2,6.5,46.4z"/>
	<path class="st12" d="M6.8,45.2c0,0.1,0,0.2-0.1,0.2c-0.1,0-0.1-0.1-0.1-0.2c0-0.1,0-0.2,0.1-0.2C6.8,45,6.8,45.1,6.8,45.2z"/>
	<path class="st12" d="M14.1,37.3c0.1,0.1,0.1,0.1,0.1,0.1c0,0.1-0.1,0.1-0.1,0.2c-0.1,0-0.2,0-0.1-0.1C14,37.4,14.1,37.4,14.1,37.3
		z"/>
	<path class="st12" d="M6.4,48.1c0-0.1,0-0.2,0-0.2c0.1,0,0.2,0,0.2,0.1C6.5,48.1,6.4,48.1,6.4,48.1z"/>
	<path class="st12" d="M6.2,50.3c0-0.1,0-0.2,0-0.2c0.1,0,0.2,0,0.2,0.1C6.4,50.2,6.3,50.3,6.2,50.3z"/>
	<path class="st12" d="M6.3,52.9C6.3,53,6.3,53,6.3,52.9c-0.1,0-0.1,0-0.1,0C6.2,52.9,6.2,52.9,6.3,52.9C6.3,52.9,6.3,52.9,6.3,52.9
		z"/>
	<path class="st12" d="M6.3,53.4C6.3,53.4,6.3,53.5,6.3,53.4c-0.1,0-0.1,0-0.1-0.1C6.2,53.4,6.3,53.3,6.3,53.4
		C6.3,53.4,6.3,53.4,6.3,53.4z"/>
	<path class="st14" d="M25.8,38.1C25.8,38.1,25.8,38.2,25.8,38.1c0-0.1-0.1-0.2-0.1-0.3c0.1,0,0.2,0.1,0.3,0c0,0,0-0.1,0-0.2
		c-0.1-0.1-0.2,0.1-0.3,0.1c0-0.1,0-0.2,0-0.3c0.1,0,0.3,0.1,0.3-0.1c0,0,0-0.1-0.1-0.1c-0.2,0-0.2,0.1-0.3,0.2
		c-0.1,0-0.3,0-0.3,0.2c0,0.1,0.2,0,0.3,0.1c0,0,0,0.1,0,0.1c-0.1,0.1-0.2,0-0.3,0.2c0,0.1,0.1,0.1,0.1,0.1c0.1,0.3-0.1,0.4-0.4,0.3
		c-0.1-0.2-0.2-0.6-0.6-0.2c0,0,0,0,0,0c-0.1,0-0.1-0.1-0.2-0.1c0.3-0.3,0.3-0.7,0.6-0.9c0.1-0.1,0.1-0.4,0.3-0.3
		c0.2,0.1-0.1,0.3,0.1,0.4c0.3,0.1,0.2-0.3,0.4-0.2c0.1,0,0.4-0.5,0.4,0.1c0,0.1,0.2,0.1,0.2,0c0.3-0.5,0.3-0.5,0.9-0.3
		c0,0,0.5-0.2,0.6-0.2c0.3-0.1,0.6-0.1,0.8,0.2c-0.1-0.1-0.2-0.2-0.3,0c0,0,0,0.1,0,0.1c0.1,0.1,0.3,0,0.3-0.1c0.3,0,0.3,0,0.3-0.5
		c0.3,0.4,0.7,0.5,0.9,0.1c0,0.3,0,0.5,0,0.8c0,0.4,0.4,0.2,0.5,0.4c0,0.1,0.2,0,0.1-0.2c0,0,0.1-0.1,0.1-0.1
		c0.1,0.1,0.2,0.2,0.3,0.1c0,0,0-0.1,0-0.1c-0.1-0.2-0.2-0.1-0.3-0.1l0,0c0-0.1,0-0.2,0-0.3c0.1,0,0.3,0.1,0.4,0c0,0,0-0.1-0.1-0.1
		c-0.2-0.1-0.2,0.1-0.3,0.2c-0.2,0-0.4,0-0.5-0.4c0.3,0.4,0.6,0,0.9,0c0.2,0,1.4,0.3,1.5,0.5c0.2,0.4-0.3,0.2-0.3,0.4
		c0.1,0.2,0.3-0.1,0.5,0.1l0,0c-0.2,0.4-0.6,0.3-0.8,0.5c0.2,0.4,0.3,0,0.5,0c0,0,0,0.1,0,0.1c-0.1,0.1-0.1,0.2-0.2,0.2
		c-0.4,0-0.8,0-1.2,0c-0.2-0.2-0.2-0.5-0.5-0.5c-0.3,0-0.4,0.2-0.5,0.5c-0.2,0-0.4,0-0.6,0c0.2-0.4-0.2-0.5-0.3-0.7
		c-0.1-0.4-0.4-0.4-0.6-0.4c-0.3,0-0.4,0.3-0.3,0.6c0,0.3-0.2,0.4-0.5,0.5c-0.1,0.3-0.4,0-0.6,0.1c0-0.1,0.1-0.2,0-0.3
		c-0.1-0.1-0.2,0.1-0.3,0c0,0,0,0,0,0c0-0.2-0.1-0.3-0.3-0.3c0,0,0,0-0.1,0c0-0.1-0.1-0.2-0.2-0.1c-0.1,0.1,0,0.2,0,0.2l-0.1,0
		l-0.1,0C26,38.1,25.9,38.1,25.8,38.1z M26.4,37.7c0.1,0,0.1,0.3,0.3,0.1c0,0,0-0.1,0-0.1C26.7,37.5,26.5,37.7,26.4,37.7
		c0-0.1,0-0.2-0.1-0.2c0,0-0.1,0.1-0.1,0.1C26.2,37.7,26.3,37.6,26.4,37.7z M25.1,37.5C25.1,37.5,25.1,37.5,25.1,37.5
		C25.1,37.5,25,37.5,25.1,37.5C25,37.5,25,37.6,25.1,37.5C25.1,37.6,25.1,37.6,25.1,37.5z M28.1,37.4c0,0,0.1,0,0.1,0
		c0-0.1,0.1-0.1,0-0.2c0,0-0.1-0.1-0.1-0.1c0,0-0.1,0.1-0.1,0.1C28,37.3,28.1,37.3,28.1,37.4z"/>
	<path class="st14" d="M25,34.2c0.3-0.1,0.7-0.3,1-0.1c0.1,0.2,0.1,0.3,0,0.5c-0.1,0.1-0.2,0.2-0.3,0.1c0-0.6-0.3-0.3-0.6-0.2
		C25.1,34.5,25,34.4,25,34.2z"/>
	<path class="st14" d="M33.4,38.5L33.4,38.5c0-0.4-0.6-0.2-0.5-0.6C33,38.1,33.6,37.9,33.4,38.5z"/>
	<path class="st14" d="M32.6,38.4C32.6,38.4,32.6,38.4,32.6,38.4c-0.1-0.1-0.1-0.2-0.3-0.2c0,0,0-0.1,0-0.1
		C32.6,38,32.7,38.1,32.6,38.4z"/>
	<path class="st14" d="M24.6,38.3c0.1,0,0.2,0.1,0.4,0.1C24.7,38.5,24.6,38.5,24.6,38.3C24.6,38.3,24.6,38.3,24.6,38.3z"/>
	<path class="st14" d="M26.3,34.1c0.1-0.1,0.2-0.1,0.3,0c0,0.1-0.1,0.2-0.2,0.2C26.3,34.3,26.3,34.2,26.3,34.1z"/>
	<path class="st14" d="M32.7,37.6c0-0.1,0.1-0.1,0.1-0.1c0.1,0,0.1,0.1,0.1,0.2l0,0C32.8,37.6,32.8,37.6,32.7,37.6
		C32.7,37.5,32.7,37.6,32.7,37.6z"/>
	<path class="st12" d="M23,34.5c0-0.2,0.2-0.2,0.3-0.2C23.3,34.5,23.1,34.5,23,34.5z"/>
	<path class="st14" d="M30.6,37.5c-0.1-0.1-0.1-0.2,0.1-0.2c0,0,0,0,0,0c0,0,0,0.1,0,0.1C30.6,37.4,30.6,37.5,30.6,37.5z"/>
	<path class="st14" d="M30.4,37.4C30.4,37.4,30.4,37.4,30.4,37.4C30.3,37.4,30.3,37.4,30.4,37.4C30.3,37.3,30.3,37.3,30.4,37.4
		C30.4,37.3,30.4,37.4,30.4,37.4z"/>
	<path class="st14" d="M32.9,37.7c0,0,0.1,0,0.1,0c0,0,0,0,0,0.1C33,37.7,33,37.7,32.9,37.7C32.9,37.7,32.9,37.7,32.9,37.7z"/>
	<path class="st14" d="M41.4,40.2c-0.4,0-0.7-0.3-1-0.4c0.3-0.1-0.1-0.3,0-0.4c0.1-0.1,0.3-0.2,0.4-0.2c0.3,0,0,0.3,0.1,0.3
		C41.1,39.7,41.4,39.9,41.4,40.2z"/>
	<path class="st14" d="M42.9,36.5c0.1,0,0.2,0,0.2,0.1c0,0.3,0.3,0.3,0.5,0.4l0,0c0,0,0,0,0,0c0,0,0,0.1,0,0.1l0,0
		c-0.2,0-0.3,0-0.5,0c0,0,0,0,0,0c-0.1-0.1,0-0.2-0.1-0.2c0-0.1-0.1-0.1-0.1-0.2C42.9,36.6,42.9,36.5,42.9,36.5z"/>
	<path class="st13" d="M42.3,36.9c-0.2,0.1-0.4,0.3-0.5,0.1c-0.2-0.3,0.3-0.2,0.4-0.4C42.3,36.6,42.3,36.8,42.3,36.9z"/>
	<path class="st14" d="M41.8,40.3c-0.1,0-0.2,0-0.2-0.1c0-0.4,0.2-0.3,0.4-0.3C42.1,40.2,41.8,40.1,41.8,40.3z"/>
	<path class="st14" d="M42.3,36.9c0-0.1,0-0.3-0.1-0.3c0,0,0,0,0,0s0,0,0,0c0-0.1,0.1-0.1,0.1-0.2c0.1,0,0.2,0,0.3,0c0,0,0,0,0,0
		c0.2,0.3-0.3,0.2-0.2,0.4c0,0.1,0,0.1,0,0.2C42.4,36.9,42.3,36.9,42.3,36.9z"/>
	<path class="st13" d="M42.4,36.9c0-0.1,0-0.1,0-0.2c0.2,0,0.3-0.1,0.5-0.1c0,0.1,0.1,0.1,0.1,0.2c0,0,0,0.1,0,0.1
		c-0.1,0-0.1,0-0.2,0C42.7,37,42.5,37.1,42.4,36.9z"/>
	<path class="st11" d="M40.7,36.3c0.2,0,0.5-0.1,0.6,0.2C41,36.7,40.9,36.6,40.7,36.3z"/>
	<path class="st12" d="M43.1,37.1c0,0.2,0,0.3-0.2,0.3c-0.2,0-0.1-0.2,0-0.3c0,0,0,0,0,0C43,37,43.1,37,43.1,37.1L43.1,37.1z"/>
	<path class="st14" d="M40.5,38.9c0,0.1,0.1,0.1,0.1,0.2c0,0.1-0.1,0.1-0.1,0.1c0,0-0.1-0.1-0.1-0.1C40.4,39.1,40.4,39,40.5,38.9z"
		/>
	<path class="st14" d="M43.6,37.2c0,0,0-0.1,0-0.1c0,0,0,0,0,0c0.1-0.1,0.2,0,0.3,0c0,0,0,0,0,0c0,0.1,0.1,0.2-0.1,0.2
		C43.7,37.3,43.7,37.2,43.6,37.2z"/>
	<path class="st11" d="M43.6,37.2c0,0,0.1,0.1,0.1,0.1c-0.1,0-0.1,0.2-0.2,0.1C43.4,37.3,43.5,37.2,43.6,37.2z"/>
	<path class="st12" d="M41.3,36.5c0-0.1,0-0.2,0.1-0.2c0.1,0,0.1,0.1,0.1,0.1C41.4,36.5,41.4,36.5,41.3,36.5z"/>
	<path class="st12" d="M42.8,36.9c0.1,0,0.1,0,0.2,0c0,0-0.1,0.1-0.1,0.1c0,0,0,0,0,0C42.9,37,42.8,37,42.8,36.9z"/>
	<path class="st15" d="M39.4,39.1c0.2-0.2,0.2,0,0.3,0.1c0.1,0.1,0.3,0.2,0.4,0.4c0,0.1,0,0.1-0.1,0.2c0-0.1-0.1-0.2-0.2-0.2
		c0,0,0,0,0,0c0,0-0.1-0.1-0.1-0.1c0,0,0,0.1,0,0.1c-0.1,0-0.2,0-0.3-0.1c-0.1,0-0.1,0-0.2,0.1C39.3,39.4,39.7,39.4,39.4,39.1z"/>
	<path class="st14" d="M39.8,39.6c0.1,0,0.2,0.1,0.2,0.2C39.8,39.9,39.8,39.8,39.8,39.6z"/>
	<path class="st14" d="M39.7,39.6c0,0,0-0.1,0-0.1c0,0,0.1,0.1,0.1,0.1C39.8,39.6,39.7,39.6,39.7,39.6z"/>
	<path class="st14" d="M39.2,39.6c0.1,0,0.1,0,0.2-0.1C39.3,39.6,39.3,39.6,39.2,39.6z"/>
	<path class="st13" d="M29.1,48.4c0.1-0.6-0.5-1.1-0.4-1.7c0-0.2,0.1-0.3,0.4-0.3c0.6,0.1,1.2,0.2,1.9,0.1c0.6-0.1,0.7,0,0.5,0.6
		c-0.1,0.2-0.1,0.5-0.2,0.8c-0.2-0.7-0.7-0.6-1.2-0.6c-0.1,0-0.4,0-0.4,0.2c0,0.2,0.1,0.3,0.3,0.3c0.1,0,0.2,0,0.3,0.1
		c-0.2,0.2-0.5,0-0.6,0.4l0,0c-0.2,0-0.3,0-0.4,0.1C29.2,48.4,29.1,48.4,29.1,48.4z"/>
	<path class="st15" d="M29.6,48.3C29.6,48.3,29.7,48.3,29.6,48.3c0.4,0,0.8-0.1,1.1,0.1c-0.3,0.1-0.8,0.2-0.5,0.7
		c0,0.7,0.1,1.4,0.1,2c-0.2,0.4-0.4,0.4-0.6,0c0-0.3,0.1-0.7-0.3-0.9c0,0-0.1-0.1-0.1-0.1c0.3-1,0.3-1,0.2-1.8
		C29.6,48.4,29.6,48.3,29.6,48.3z"/>
	<path class="st13" d="M28.5,50c0-0.7-0.1-1.3-0.4-1.9c-0.3-0.4-0.3-0.9-0.4-1.4c0-0.1,0-0.4,0.3-0.5c0.4,0.2,0.6,0.8,0.3,1.1
		c-0.4,0.4-0.1,0.4,0.1,0.6C28.8,48.4,28.8,49.7,28.5,50z"/>
	<path class="st12" d="M29.8,51.1c0.2,0.4,0.4,0.4,0.6,0c0.1,0,0.3,0,0.4,0c0.2,0,0.2,0.2,0.2,0.3c0,0.1-0.1,0.2-0.2,0.2
		c-0.3-0.1-0.7,0.1-1,0c-0.2,0-0.5,0.1-0.6-0.3C29.3,51.1,29.5,51.1,29.8,51.1z"/>
	<path class="st13" d="M30.3,49.1c-0.3-0.5,0.1-0.6,0.5-0.7c0-0.2-0.2-0.3-0.2-0.4c0.1,0,0.2,0,0.2,0c0.2,0.1,0.6,0,0.6,0.3
		c0,0.3-0.3,0.5-0.6,0.5C30.5,48.7,30.4,48.9,30.3,49.1z"/>
	<path class="st11" d="M30.5,47.9c0,0.2,0.3,0.2,0.2,0.4c-0.4-0.1-0.7-0.1-1.1-0.1c0.1-0.3,0.4-0.2,0.6-0.4
		C30.4,47.9,30.4,47.9,30.5,47.9z"/>
	<path class="st11" d="M29.1,48.4c0,0,0.1,0,0.1,0C29.2,48.4,29.1,48.5,29.1,48.4z"/>
	<path class="st15" d="M42.9,36.7c-0.2,0-0.3,0.1-0.5,0.1c-0.1-0.2,0.4-0.2,0.2-0.4c0.1,0,0.2,0.1,0.3,0.1
		C42.9,36.5,42.9,36.6,42.9,36.7z"/>
	<path class="st15" d="M43.6,36.9c-0.2-0.1-0.5-0.1-0.5-0.4C43.3,36.7,43.6,36.7,43.6,36.9z"/>
	<path class="st15" d="M41.9,36.3c0-0.1-0.4,0.1-0.2-0.2C41.8,36.2,42.2,35.9,41.9,36.3z"/>
	<path class="st15" d="M42.6,36.3c-0.1,0-0.2,0-0.3,0C42.4,36.2,42.5,36.2,42.6,36.3z"/>
	<path class="st15" d="M43.9,37.1c-0.1,0-0.2-0.1-0.3,0c0,0,0-0.1,0-0.1c0,0,0,0,0,0C43.7,37,43.9,36.9,43.9,37.1z"/>
	<path class="st15" d="M27.7,38.3c0.3,0,0.5-0.1,0.5-0.5c0-0.3,0.1-0.6,0.3-0.6c0.2,0,0.5,0,0.6,0.4c0.1,0.2,0.5,0.3,0.3,0.7
		C28.8,38.4,28.2,38.4,27.7,38.3z"/>
	<path class="st15" d="M30,38.4c0.1-0.3,0.2-0.4,0.5-0.5c0.4,0,0.3,0.3,0.5,0.5C30.7,38.4,30.3,38.4,30,38.4z"/>
	<path class="st15" d="M26.8,38.3c0.1,0,0.2-0.1,0.3,0c0.1,0.1,0,0.2,0,0.3C26.9,38.5,26.9,38.4,26.8,38.3z"/>
	<path class="st15" d="M26.5,38c0.2-0.1,0.3,0.1,0.3,0.3C26.7,38.2,26.4,38.3,26.5,38z"/>
	<path class="st15" d="M25.6,38.2c-0.1,0-0.2,0-0.1-0.1c0-0.1,0.2-0.1,0.3-0.2l0,0c0,0.1,0.1,0.2,0.1,0.3
		C25.7,38.2,25.7,38.2,25.6,38.2z"/>
	<path class="st15" d="M32.3,38.1c0.2,0,0.2,0.2,0.3,0.2c-0.2,0.1-0.3,0.1-0.5,0C32.2,38.3,32.3,38.2,32.3,38.1z"/>
	<path class="st15" d="M26.2,38.1c0-0.1-0.1-0.2,0-0.2c0.1-0.1,0.2,0,0.2,0.1C26.4,38.1,26.3,38.1,26.2,38.1z"/>
	<path class="st15" d="M25.8,38.1c0.1,0,0.2,0,0.3,0c0,0.1-0.1,0.1-0.2,0.1C25.8,38.3,25.8,38.2,25.8,38.1z"/>
	<path class="st14" d="M26.9,32.6c0,0.2-0.1,0.2-0.2,0.2c-0.2-0.1-0.4-0.2-0.4-0.4c0-0.1,0.1-0.2,0.2-0.2
		C26.7,32.3,26.8,32.5,26.9,32.6z"/>
	<path class="st15" d="M15.3,38.8c0.1,0,0.3,0,0.2,0.1C15.4,39.1,15.3,39,15.3,38.8C15.2,38.9,15.3,38.9,15.3,38.8z"/>
	<path class="st15" d="M15.2,38.9c-0.1,0-0.1-0.1,0-0.2C15.2,38.8,15.2,38.8,15.2,38.9C15.3,38.9,15.2,38.9,15.2,38.9z"/>
	<path class="st15" d="M25.7,37.5c0,0.1,0,0.2,0,0.3c0,0,0,0,0,0c-0.1-0.1-0.3,0-0.3-0.1C25.4,37.5,25.6,37.5,25.7,37.5L25.7,37.5z"
		/>
	<path class="st15" d="M25.7,37.5c0.1-0.1,0.1-0.3,0.3-0.2c0,0,0.1,0.1,0.1,0.1C26,37.6,25.8,37.5,25.7,37.5
		C25.7,37.5,25.7,37.5,25.7,37.5z"/>
	<path class="st15" d="M25.7,37.9c0,0,0-0.1,0-0.1C25.7,37.8,25.7,37.8,25.7,37.9c0.1-0.1,0.2-0.3,0.3-0.2c0,0,0,0.1,0,0.2
		C25.9,38,25.8,37.9,25.7,37.9C25.7,37.9,25.7,37.9,25.7,37.9z"/>
	<path class="st15" d="M30.7,37.4c0,0,0-0.1,0-0.1c0.1,0,0.3-0.1,0.3,0.1c0,0,0,0.1,0,0.1C30.8,37.6,30.8,37.5,30.7,37.4z"/>
	<path class="st15" d="M30.6,37.1c0.1-0.1,0.1-0.3,0.3-0.2c0,0,0.1,0.1,0.1,0.1C30.9,37.2,30.7,37,30.6,37.1
		C30.6,37,30.6,37.1,30.6,37.1z"/>
	<path class="st15" d="M26.4,37.7c-0.1,0-0.2,0.1-0.2-0.1c0,0,0.1-0.1,0.1-0.1C26.5,37.5,26.5,37.6,26.4,37.7L26.4,37.7z"/>
	<path class="st15" d="M26.4,37.7c0.1,0,0.2-0.2,0.4,0c0,0,0,0.1,0,0.1C26.5,38,26.5,37.7,26.4,37.7C26.4,37.7,26.4,37.7,26.4,37.7z
		"/>
	<path class="st15" d="M28.7,36.9c0,0.2-0.1,0.2-0.3,0.1c0,0,0-0.1,0-0.1C28.5,36.8,28.6,36.9,28.7,36.9
		C28.7,37,28.7,36.9,28.7,36.9z"/>
	<path class="st15" d="M25.1,37.5C25.1,37.6,25.1,37.6,25.1,37.5C25,37.6,25,37.5,25.1,37.5C25,37.5,25.1,37.5,25.1,37.5
		C25.1,37.5,25.1,37.5,25.1,37.5z"/>
	<path class="st15" d="M28.1,37.4c0,0-0.1-0.1-0.1-0.1c0,0,0.1-0.1,0.1-0.1c0,0,0.1,0,0.1,0.1c0,0.1,0,0.1,0,0.2
		C28.2,37.4,28.1,37.4,28.1,37.4z"/>
	<path class="st15" d="M42.9,37.1c0,0,0.1-0.1,0.1-0.1c0,0,0.1,0,0-0.1c0.1,0,0.1,0.1,0.1,0.2C43.1,37,43,37,42.9,37.1z"/>
</g>
</svg>
