<?xml version="1.0" encoding="utf-8"?>
<!-- Generator: Adobe Illustrator 22.0.0, SVG Export Plug-In . SVG Version: 6.00 Build 0)  -->
<svg version="1.1" id="图层_1" xmlns="http://www.w3.org/2000/svg" xmlns:xlink="http://www.w3.org/1999/xlink" x="0px" y="0px"
	 viewBox="0 0 60 60" style="enable-background:new 0 0 60 60;" xml:space="preserve">
<style type="text/css">
	.st0{fill:#E52929;}
	.st1{fill:#D02929;}
	.st2{fill:#CB5756;}
	.st3{fill:#F52B2B;}
	.st4{fill:#7B0D0D;}
	.st5{fill:#FDFDFD;}
	.st6{fill:#DADADA;}
	.st7{fill:#969696;}
	.st8{fill:#BEBEBE;}
	.st9{fill:#ACACAC;}
	.st10{fill:#080808;}
	.st11{fill:#DEDEDE;}
	.st12{fill:#CDCDCD;}
	.st13{fill:#BDBDBD;}
	.st14{fill:#AFAFAF;}
	.st15{fill:#060606;}
	.st16{fill:#FEFEFE;}
	.st17{fill:#CCD8DF;}
	.st18{fill:#BDC6CC;}
	.st19{fill:#A4B0B6;}
	.st20{fill:#809197;}
	.st21{fill:#FFFFFF;}
	.st22{fill:#223636;}
	.st23{fill:#C1494C;}
	.st24{fill:#DEDBE1;}
	.st25{fill:#BA1B13;}
	.st26{fill:#B10D05;}
	.st27{fill:#171014;}
</style>
<g>
	<path class="st6" d="M59.4,36c-0.2,2.1-1.1,4-2.5,5.6c-2.1,2.4-4.8,4-7.8,5.3c-1.2,0.5-2.3,1.1-3.5,1.4c-1,0.2-1.6,0.9-2.4,1.4
		c-2.2,1.3-4.5,2-7,2.4c-2.2,0.4-4.5,0.6-6.7,0.5C26.2,52.4,23,52,20,50.8c-1.2-0.5-2.4-1-3.4-2c0.6,0,0.2-0.4,0.2-0.6
		c0-0.6-0.5-0.5-0.8-0.4c-0.4,0.1,0.2,0.4,0,0.6c-0.8-0.2-1.5-0.4-2.2-0.7c0-0.2,0.3-0.1,0.3-0.3c-0.1-0.2-0.3-0.3-0.5-0.4
		c-1.2-0.5-2.6-0.7-3.8-1.2c-0.1-0.1-0.2-0.1-0.2,0.1l0,0c-0.5,0-0.4-0.4-0.5-0.8c0.2,0,0.4,0,0.7,0.1c0.8,0.3,1.6,0.4,2.4,0.5
		c1,0.4,2.1,0.4,3.3,0.7c-0.6-0.7-1-1.2-1.4-1.7c0-0.3,0-0.5,0-0.8c0-0.2,0.1-0.4,0.1-0.6c0.3-0.3,0.5-0.6,0.7-1
		c0.7-0.3,1.1-0.9,1.6-1.3c1.1-0.7,2.3-1.2,3.5-1.8c-0.6-0.8-0.7-2-1.7-2.5c0.3-0.1,0.2-0.3,0.1-0.5c-0.2-0.2-0.3-0.4-0.5-0.5
		c0-0.2-0.2-0.3-0.3-0.5c-0.2-0.4-0.5-0.6-0.9-0.2c-0.3,0.3-0.7,0.7-1.1,0.8c-0.8,0.3-1.5,0.9-2.2,1.5c-0.6,0.5-1.2,1-1.4,1.9
		c-0.1,0.3-0.4,0.8-1.1,0.8c-1.5-0.1-3.1-0.4-4.6,0.1c-0.1,0-0.2,0-0.2,0c-0.4-0.1-0.9-0.1-1.3-0.1c-0.4,0-0.5,0.1-0.3,0.5
		c0.2,0.4,0.2,0.9,0,1.3c-1.8-1.6-2.8-3.6-3.1-6c-0.1-0.7-0.2-1.3,0-2c0.1,0,0.1,0.3,0.1,0.1c0-0.4,0.2-0.7,0.3-1
		c1.4-2.7,3.2-4.8,6.3-5.6c2.2-0.6,4.3-1.4,6.4-2.2c1.1-0.4,2.1-0.6,3.3-0.6c0.5,0,1,0.1,1.4,0.1c1.6-0.1,3.2-0.1,4.9-0.1
		c2.4,0,4.8,0,7.3,0.1c1.6,0.1,3.3,0,4.9,0.3c1.6,0.2,3.2,0.5,4.8,0c0.2-0.1,0.5,0,0.7,0c1.3,0.1,2.6,0.4,3.8,0.8
		c1.8,0.5,3.5,1.1,5.2,1.8c0.6,0.3,1.3,0.6,1.9,0.8c1.9,0.7,3.8,1.5,5.1,3.2c0.7,0.9,1.1,1.9,1.4,2.9C59.1,35.1,58.8,35.7,59.4,36z
		 M44.9,48c0,0,0.1-0.1,0.1-0.1c0,0,0.1-0.1,0.1-0.1c0,0,0.1-0.1,0.1-0.1c0,0,0-0.1,0.1-0.1c0,0,0,0-0.1,0.1c0,0-0.1,0.1-0.1,0.1
		c0,0-0.1,0.1-0.1,0.1C45,48,45,48,44.9,48C44.9,48.1,44.9,48.1,44.9,48C44.9,48.1,44.9,48.1,44.9,48C44.9,48.1,44.9,48.1,44.9,48z
		 M45.5,47.3C45.5,47.3,45.5,47.3,45.5,47.3C45.5,47.3,45.5,47.3,45.5,47.3c0.1,0,0.1-0.1,0.1-0.1c0,0,0.1-0.1,0.1-0.1
		c0,0,0,0,0.1-0.1c0,0,0,0-0.1,0.1c0,0-0.1,0.1-0.1,0.1C45.6,47.2,45.6,47.3,45.5,47.3z M25.6,33.7c-0.1-0.4-0.3-0.3-0.5-0.1
		c-0.2,0-0.4,0-0.6,0c0,0-0.1-0.1-0.1-0.1c-0.8,0-1.5-0.2-2.2-0.7c-0.2-0.1-0.3,0-0.3,0.2c0.1,0.7,0.1,1.4,0.6,2
		c0.1,0.5,0.1,1,0.3,1.5c0.1,0.3,0,0.8,0.4,1c0.1,0.3,0.1,0.5,0.2,0.8c0.1,0.4,0.2,0.5,0.6,0.2c0.4-0.1,0.8-0.1,1.2-0.2
		c0,0.3,0.1,0.4,0.4,0.4c0.6,0.1,1.2-0.1,1.8-0.1c1.5,0,2.9,0.1,4.4,0.1c1.9,0,3.7,0.3,5.6,0.5c0.5,0,0.5-0.1,0.3-0.4
		c0-0.2,0-0.4,0-0.6c0.2,0,0.3-0.1,0.3-0.3c0.2-1,0.6-2,0.9-2.9c0.1-0.1,0.1-0.3,0-0.4c-0.4-0.2-0.6-0.6-1-0.7
		c-0.9-0.2-1.9-0.3-2.8-0.3c-0.3,0-0.5,0-0.4,0.4c-0.1,0-0.1,0-0.2,0c-0.1-0.1,0-0.4-0.2-0.4c-0.2,0-0.1,0.2-0.2,0.3
		c-0.3,0-0.6,0-1,0c-0.3-0.1-0.5-0.1-0.8,0c-0.1-0.1-0.3-0.2-0.5-0.1c-0.1-0.1-0.2-0.1-0.3,0c-0.2,0-0.4,0.1-0.4-0.1
		c-0.1-0.2,0.1-0.3,0.3-0.3c0.2-0.2,0.4-0.4,0.6-0.6c0.3-0.4,0.2-0.7-0.3-0.9c-0.7-0.3-1.4-0.3-2-0.1c-0.3,0.1-0.5,0.4-0.4,0.7
		c0.1,0.5,0.8,1,1.3,1.1c0.2,0,0.5-0.2,0.5,0.2c0,0.3-0.4,0-0.5,0.1c0,0,0,0-0.1,0c-0.4-0.1-0.7-0.1-1.1,0c-0.1,0-0.3,0-0.4,0
		c-0.1,0-0.1,0-0.2-0.1c-0.1,0-0.2,0-0.3,0c-0.7,0-1.5-0.1-2.2,0.2c-0.2,0-0.3,0-0.5,0C25.7,33.8,25.7,33.8,25.6,33.7z M41.3,39.1
		c-0.2,0-0.2,0.2-0.2,0.4c0,0.1,0,0.2,0,0.2c-0.3,0.4,0.1,0.4,0.3,0.5c1.1,0.3,1.9,1.1,2.8,1.6c0.8,0.4,1.5,0.9,1.8,1.8
		c0.1,0.3,0.3,0.3,0.6,0.1c0.4,0.2,0.1,0.6,0.4,0.8c0.8-0.8,1.7-1.6,2.6-2.3c0.4-0.2,0.8-0.4,1-0.8c0.2,0,0.3,0,0.4-0.3
		c-0.4,0.1-0.7-0.1-1-0.3c-0.3-0.3-0.7-0.3-1.1-0.3c-0.3,0-0.6,0-0.9,0c-0.3,0-0.7-0.2-0.9,0.2c-0.1-0.3-0.1-0.6-0.2-0.8
		c0.3,0,0.2,0.4,0.5,0.4c0.9,0,1.7,0.1,2.6-0.3c-0.4,0-0.8,0-1.1,0c0.6-0.3,0.4-0.6,0.1-1c-0.4-0.6-1.3-0.8-1.5-1.6
		c0,0-0.1-0.1-0.1-0.1c-1.3-0.3-2.2-1.3-3.1-2.2c-0.2-0.2-0.2-0.1-0.3,0c-0.3,0.4-0.6,0.6-0.8,1.1c-0.3,0.4-0.5,0.8-0.8,1.2
		c-0.2,0.4-0.5,0.8-0.7,1.2C41.3,38.5,41.3,38.8,41.3,39.1L41.3,39.1z"/>
	<path class="st7" d="M26.5,4.5c1.5-0.3,3.1-0.3,4.6-0.2c2.7,0.2,5.5,0.4,8.2,1c2.1,0.4,4.2,1,6.3,1.6c0,0.2-0.1,0.4-0.3,0.5
		c-0.2,0.1-0.3,0.3-0.1,0.5c0.2,0.3,0.1,0.6,0,0.9c-0.2,0.7-0.6,1.5-0.7,2.2c-0.1,1.1,0.5,2.1,0.6,3.2c0.1,0.7,0.4,1.4,1,2
		c-0.6-0.1-1-0.2-1.4,0.2c1.5,0.6,3.1,1,4.4,1.7c-1.8-0.5-3.5-1.3-5.3-1.6c0.4,0.2,0.9,0.4,1.3,0.6c1.2,0.6,1.8,1.6,1.6,2.8
		c-0.1,0.6,0,0.9,0.3,1.4c0.4,0.8,0.3,2.2-1,2.4c-1.1,0.2-2.3,0.1-3.4-0.2c-1-0.3-2.1-0.3-3.1-0.5c-0.8-0.2-1.7-0.1-2.6-0.3
		c-1.8-0.4-3.6-0.2-5.4-0.3c-1,0-2-0.2-3.1,0.1c-0.8,0.2-1.5-0.3-2.3-0.1c-0.8,0.2-1.5,0.1-2.3,0c-0.7-0.1-1.3-0.2-1.9-0.4
		c-0.4-0.2-0.7-0.4-0.6-0.9c0.2-0.8,0.1-1.7,0.4-2.5c0.5-1.1,0.8-2.4,1.9-3.3c-1.3,0.1-2.6,0.4-3.8,0.6c-0.7,0.1-1.4,0.4-2.1,0.3
		c1.6-0.4,3.1-0.8,4.7-1c0.2,0,0.4,0,0.6,0c2.1-0.3,4.3-0.6,6.5-0.6c1.1,0,2.2,0,3.4,0c0.1,0,0.4,0.1,0.5-0.2
		c-0.1,0-0.1-0.1-0.2-0.1c-2.1,0-4.1-0.1-6.2,0c-0.8,0-1.6,0-2.4,0.2c-0.7,0.2-0.9-0.1-0.7-0.8c0.3-1.1,0.6-2.1,0.8-3.2
		c0.1-0.5-0.2-1,0.3-1.4c0.5-0.4,0.5-1.1,0-1.6c-0.5-0.6-0.5-1.1,0.1-1.6C25.6,5.5,26,5,26.5,4.5z M43,16.4c0.1,0,0.1,0.1,0.2,0.1
		c0.1,0,0.2,0.1,0.2-0.1C43.3,16.3,43.1,16.3,43,16.4z"/>
	<path class="st8" d="M22.5,15.2c-1.6,0.2-3.2,0.6-4.7,1c-1.2,0.2-2.5,0.5-3.6,1.1c-0.1,0-0.3,0-0.4,0.1c-0.1,0-0.1,0-0.2,0
		c0,0,0,0,0,0c0,0,0.1-0.1,0.1-0.1c0.1,0,0.3,0,0.4-0.1c0.1,0,0.5,0,0.3,0.2c-0.2,0.3-0.2,0.7-0.3,1c-0.4,0.9-0.7,1.9-0.6,2.9
		c0,0.5,0,1-0.4,1.4c-0.2,0.2-0.4,0.5-0.1,0.6c0.3,0.2,0.6,0.4,1,0.5c1.3,0.2,2.5,0,3.7-0.2c1.7-0.3,3.4-0.1,5-0.3
		c0.9-0.1,1.9,0,2.8-0.1c1.4-0.2,2.9-0.2,4.3-0.1c2.8,0.1,5.6-0.1,8.3,0.5c1.2,0.3,2.4,0,3.6,0.4c0.5,0.2,1.1,0.4,1.6,0.4
		c0.7,0,1.3,0.1,2,0.2c0.6,0.1,1.2,0.3,1.7,0.4c1.5,0.2,2.8,0.8,4.1,1.4c1,0.4,2,0.5,3.1,0.5c0.1,0,0.2,0,0.2-0.2
		c0-0.6,0.4-1.1-0.1-1.7c-0.4-0.4-0.4-0.9,0-1.3c0.1-0.1,0.2-0.3,0.1-0.5c-0.3-0.7-0.7-1.4-1-2.1c-0.2-0.5-0.6-0.9-0.8-1.4
		c0.3-0.1,0.5,0.1,0.8,0.2C54,20,54.2,20,54,19.6c-0.1-0.3-0.2-0.6,0-1c0.1-0.3,0.1-0.6,0-0.9c-0.1-0.6-0.3-1.1-0.3-1.7
		c0-0.6,0.5-0.4,0.8-0.7c0.1-0.1,0.4-0.1,0.4,0.1c0.2,0.7,0.6,1,1.2,1.2c0.1,0,0.2,0.1,0.2,0.2c0.5,1.4,0.7,2.9,0.6,4.4
		c0,0.7,0.4,1.4,0.2,2.1c0,0,0,0.1,0.1,0.1c0.3,0.5,0.6,0.9,0.9,1.4c0.3,0.5,0.5,1,0.5,1.7c-0.2-0.4-0.2-0.9-0.7-1.2
		c-0.1,0.5-0.2,0.8-0.1,1.2c0.2,1,0.5,1.9,0.6,2.8c0.1,0.7,0.2,1.5,0.4,2.2c0.1,0.3,0,0.7,0.5,0.7c0.2,1.2,0.4,2.4,0.1,3.6
		c-0.5-0.3-0.2-0.9-0.3-1.3c-0.3-1.1-0.7-2-1.4-2.9c-1.3-1.7-3.2-2.5-5.1-3.2c-0.7-0.2-1.3-0.5-1.9-0.8c-1.7-0.8-3.4-1.3-5.2-1.8
		c-1.2-0.3-2.5-0.7-3.8-0.8c-0.2,0-0.5-0.1-0.7,0c-1.6,0.5-3.2,0.2-4.8,0c-1.6-0.2-3.3-0.2-4.9-0.3c-2.4-0.1-4.8-0.1-7.3-0.1
		c-1.6,0-3.2,0-4.9,0.1c-0.5,0-0.9-0.1-1.4-0.1c-1.1,0-2.2,0.2-3.3,0.6c-2.1,0.8-4.2,1.6-6.4,2.2c-3.1,0.8-4.9,3-6.3,5.6
		c-0.2,0.3-0.3,0.6-0.3,1c0,0.2-0.1,0-0.1-0.1c0.2-2.8,0.5-5.6,0.7-8.5c0.6,0,0.7-0.5,0.6-0.9c-0.1-0.8,0-1.5,0.1-2.3
		c0.1-0.6,0.2-1.2-0.1-1.8c-0.1-0.3-0.2-0.6,0.1-0.9c0.1-0.1,0.2-0.3,0.2-0.5c-0.1-0.3,0-0.6,0-1c0-0.2,0.3-0.6-0.2-0.8
		c0.3-1.6,1.1-3,2.1-4.3c2.2-2.7,5.1-4.3,8.2-5.7c0.6-0.3,1.3-0.6,2-0.7c0.2,0.7,0.8,1.4,0.3,2.2c0,0,0,0.1,0,0.1
		c0.3,0.7,0.3,1.4,0.3,2.1c0,0.3,0.2,0.6,0,0.9c-0.2,0.2-0.2,0.4-0.1,0.6c0.1,0.5,0.1,1.1-0.5,1.4c-0.3,0.2-0.7,1.1-0.6,1.5
		c0,0.1,0.1,0.2,0.2,0.2c0.7,0.2,1.4,0.3,2,0c1.7-0.6,3.5-0.8,5.3-1.1C22.3,14.9,22.5,14.9,22.5,15.2z M3.6,23.8
		c0.1-0.1,0.1-0.1,0.1-0.2c0.2,0,0.2-0.1,0.2-0.2c0,0,0.1-0.1,0.1-0.1c0,0,0.1-0.1,0.1-0.1c0,0,0,0,0,0c0,0.1,0,0.1,0,0.2
		c0,0-0.1,0.1-0.1,0.1c-0.2,0-0.2,0.1-0.2,0.2C3.6,23.6,3.6,23.7,3.6,23.8C3.6,23.8,3.6,23.8,3.6,23.8C3.6,23.8,3.6,23.8,3.6,23.8z
		 M12.9,17.5c-2.4,0.7-4.5,1.8-6.5,3.4C8.4,19.6,10.6,18.5,12.9,17.5z M5,22c-0.3,0.1-0.4,0.2-0.4,0.4C4.9,22.5,5,22.3,5,22z
		 M6.2,21c-0.3,0.1-0.4,0.2-0.4,0.5C6,21.4,6.1,21.4,6.2,21z"/>
	<path class="st9" d="M59.2,32.4c-0.4,0-0.4-0.4-0.5-0.7c-0.2-0.7-0.3-1.5-0.4-2.2c-0.1-1-0.4-1.9-0.6-2.8c-0.1-0.4,0.1-0.8,0.1-1.2
		c0.4,0.3,0.4,0.8,0.7,1.2c0-0.7-0.2-1.2-0.5-1.7c-0.3-0.5-0.6-0.9-0.9-1.4c0,0-0.1-0.1-0.1-0.1c0.2-0.7-0.2-1.4-0.2-2.1
		c0.1-1.5-0.1-3-0.6-4.4c0-0.1-0.1-0.2-0.2-0.2c-0.6-0.2-1.1-0.5-1.2-1.2c0-0.2-0.3-0.2-0.4-0.1c-0.2,0.2-0.8,0.1-0.8,0.7
		c0,0.6,0.2,1.1,0.3,1.7c0,0.3,0.1,0.6,0,0.9c-0.1,0.3-0.1,0.6,0,1c0.2,0.4,0,0.4-0.3,0.3c-0.2-0.1-0.5-0.2-0.8-0.2
		c0.1,0.6,0.6,1,0.8,1.4c0.3,0.7,0.6,1.4,1,2.1c0.1,0.2,0,0.4-0.1,0.5c-0.4,0.4-0.4,0.9,0,1.3c0.5,0.6,0.1,1.1,0.1,1.7
		c0,0.1-0.1,0.2-0.2,0.2c-1,0-2.1-0.1-3.1-0.5c-1.3-0.6-2.6-1.2-4.1-1.4c-0.6-0.1-1.2-0.3-1.7-0.4c-0.7-0.1-1.3-0.2-2-0.2
		c-0.6,0-1.1-0.2-1.6-0.4c-1.2-0.4-2.4-0.1-3.6-0.4c-2.7-0.6-5.5-0.4-8.3-0.5c-1.4-0.1-2.9-0.1-4.3,0.1c-0.9,0.1-1.9,0-2.8,0.1
		c-1.7,0.2-3.3,0.1-5,0.3c-1.2,0.2-2.5,0.4-3.7,0.2c-0.4-0.1-0.7-0.3-1-0.5c-0.3-0.2-0.1-0.5,0.1-0.6c0.4-0.4,0.5-0.9,0.4-1.4
		c-0.1-1,0.2-2,0.6-2.9c0.1-0.3,0.1-0.7,0.3-1c0.2-0.2-0.1-0.2-0.3-0.2c0,0,0,0,0,0c1.1-0.6,2.4-0.9,3.6-1.1
		c0.7,0.1,1.4-0.2,2.1-0.3c1.3-0.2,2.5-0.5,3.8-0.6c-1.1,0.9-1.4,2.2-1.9,3.3c-0.3,0.7-0.3,1.6-0.4,2.5c-0.1,0.5,0.3,0.7,0.6,0.9
		c0.6,0.2,1.3,0.4,1.9,0.4c0.8,0.1,1.5,0.2,2.3,0c0.7-0.2,1.5,0.3,2.3,0.1c1-0.2,2.1-0.1,3.1-0.1c1.8,0.1,3.6-0.1,5.4,0.3
		c0.8,0.2,1.7,0.1,2.6,0.3c1,0.2,2.1,0.2,3.1,0.5c1.1,0.3,2.2,0.4,3.4,0.2c1.3-0.2,1.4-1.6,1-2.4c-0.3-0.5-0.4-0.8-0.3-1.4
		c0.3-1.2-0.4-2.2-1.6-2.8c-0.4-0.2-0.9-0.4-1.3-0.6c1.8,0.3,3.5,1.1,5.3,1.6c-1.4-0.8-2.9-1.2-4.4-1.7c0.4-0.4,0.8-0.3,1.4-0.2
		c-0.6-0.6-0.9-1.3-1-2c-0.1-1.1-0.7-2.1-0.6-3.2c0.1-0.8,0.4-1.5,0.7-2.2c0.1-0.3,0.2-0.6,0-0.9c-0.1-0.2-0.1-0.4,0.1-0.5
		c0.2-0.1,0.3-0.3,0.3-0.5c3.5,1.2,6.7,2.8,9.3,5.4c2,2.1,3.1,4.6,3.3,7.6c0.1,2.3,0.4,4.6,0.5,6.9c0.1,1.2,0.2,2.3,0.2,3.5
		C59,30.9,59,31.6,59.2,32.4z M49.9,18.4c0,0,0.1-0.1,0.1-0.1c-0.1,0-0.2-0.1-0.2-0.1c0,0-0.1,0-0.1,0c0,0.1,0.1,0.1,0.1,0.2
		C49.8,18.5,49.8,18.4,49.9,18.4z"/>
	<path class="st9" d="M22.5,15.2c0-0.2-0.2-0.3-0.4-0.2c-1.8,0.3-3.6,0.5-5.3,1.1c-0.7,0.3-1.4,0.1-2,0c-0.1,0-0.2-0.1-0.2-0.2
		c-0.1-0.3,0.3-1.3,0.6-1.5c0.5-0.3,0.6-0.9,0.5-1.4c0-0.2-0.1-0.4,0.1-0.6c0.3-0.3,0-0.6,0-0.9c0-0.7,0-1.4-0.3-2.1
		c0,0-0.1-0.1,0-0.1c0.5-0.8-0.1-1.5-0.3-2.2c3.7-1.3,7.4-2.1,11.3-2.4c-0.5,0.5-0.9,1-1.4,1.4c-0.6,0.5-0.6,1-0.1,1.6
		c0.4,0.5,0.4,1.2,0,1.6c-0.5,0.4-0.2,0.9-0.3,1.4c-0.2,1.1-0.5,2.1-0.8,3.2c-0.2,0.8,0,1,0.7,0.8c0.8-0.2,1.6-0.1,2.4-0.2
		c2.1-0.1,4.1,0,6.2,0c0.1,0,0.1,0,0.2,0.1c-0.1,0.3-0.3,0.2-0.5,0.2c-1.1,0-2.2,0-3.4,0c-2.2,0-4.3,0.3-6.5,0.6
		C22.9,15.2,22.7,15.2,22.5,15.2z"/>
	<path class="st8" d="M9.1,45.2c0.1,0.3,0,0.8,0.5,0.8c0,0,0,0,0.1,0c0,0,0,0,0-0.1c0-0.2,0.1-0.2,0.2-0.1c1.2,0.6,2.5,0.7,3.8,1.2
		c0.2,0.1,0.5,0.2,0.5,0.4c0.1,0.2-0.3,0.1-0.3,0.3c-0.1,0-0.2,0-0.2,0c-0.2-0.4-0.5-0.3-0.8-0.1c-0.6,0-1.2-0.1-1.8-0.1
		c-0.5-0.1-0.9,0.1-1.1,0.6c-0.2,0-0.2,0.2-0.2,0.4c-0.1,0.8-0.3,1.6-0.5,2.5C8.9,51.5,8.8,52.3,9,53c0.1,0.3,0.1,0.5-0.2,0.5
		c-1,0.2-2.1,0.3-3.1-0.1c-0.3-0.1-0.5-0.2-0.7,0c-0.3,0.2-0.6,0.1-0.9-0.1c-0.1-1.9,0-3.8,0.2-5.7c0.1-1.6,0-3.3,0.3-4.9
		c0-0.2,0-0.4-0.1-0.5c0.2-0.4,0.2-0.9,0-1.3c-0.2-0.3-0.1-0.5,0.3-0.5c0.4,0,0.9-0.1,1.3,0.1c0.1,0,0.2,0,0.2,0
		c1.5-0.5,3-0.2,4.6-0.1c0.7,0,1-0.5,1.1-0.8c0.2-0.9,0.8-1.4,1.4-1.9c0.7-0.5,1.4-1.1,2.2-1.5c0.4-0.2,0.8-0.5,1.1-0.8
		c0.4-0.5,0.7-0.3,0.9,0.2c0.1,0.2,0.3,0.3,0.3,0.5c-0.1,0.1-0.3,0.2-0.2,0.4c-0.7,0-1,0.6-1.5,0.9c-0.3,0-0.5,0.1-0.5,0.4
		c-1.1,0.9-2,1.8-1.9,3.3c-0.1,0-0.1,0-0.2,0c0-0.4-0.1-0.5-0.5-0.5c-0.6,0-1.1,0.1-1.7,0.4c-0.6,0.3-1.4,0.3-2.2,0.1
		c-0.4-0.2-0.7-0.1-0.8,0.5c-0.1,0.4-0.3,0.9-0.7,1c-0.3,0.1-0.5,0.3-0.6,0.5c-0.5,1.4-0.7,2.8-0.7,4.2c-0.1,1.5-0.3,3-0.5,4.5
		c0,0.3-0.2,0.7,0.2,0.9c0.4,0.3,0.8,0.7,1.4,0.4c0.3-0.1,0.5-0.4,0.5-0.7c0-0.7,0-1.4,0.1-2c0.2-1.3,0.3-2.7,0.5-4
		c0.1-0.4,0.1-0.7-0.2-1.1C8.6,45.1,8.9,45,9.1,45.2z M4.3,51.5C4.3,51.5,4.3,51.5,4.3,51.5c-0.1,0.4-0.1,0.8-0.1,1.2c0,0,0,0,0.1,0
		C4.3,52.4,4.3,52,4.3,51.5z"/>
	<path class="st6" d="M4.1,53.3c0.3,0.2,0.6,0.3,0.9,0.1c0.2-0.1,0.4-0.1,0.7,0c1,0.4,2.1,0.3,3.1,0.1c0.3,0,0.3-0.2,0.2-0.5
		c-0.2-0.7-0.1-1.5,0.1-2.2c0.3-0.8,0.4-1.6,0.5-2.5c0-0.2,0-0.3,0.2-0.4c0.2,0.7-0.1,1.3-0.1,1.9c-0.1,1.2-0.2,2.4-0.4,3.6
		C9.2,54.8,8,55.9,6.8,56C5.2,56.2,4,54.5,4.1,53.3z"/>
	<path class="st9" d="M2.8,17.5C3.2,17.7,3,18.2,3,18.4c-0.1,0.3-0.1,0.6,0,1c0,0.2,0,0.4-0.2,0.5c-0.3,0.3-0.3,0.6-0.1,0.9
		c0.3,0.6,0.2,1.2,0.1,1.8c-0.1,0.7-0.2,1.5-0.1,2.3c0,0.4-0.1,0.8-0.6,0.9c0.1-1.3,0.2-2.6,0.4-4c0.1,0,0.2,0,0.2-0.1
		c0-0.1-0.1-0.1-0.2-0.1C2.4,20.1,2.4,18.8,2.8,17.5z"/>
	<path class="st8" d="M16,48.4c0.1-0.2-0.5-0.4,0-0.6c0.3-0.1,0.8-0.2,0.8,0.4c0,0.2,0.5,0.5-0.2,0.6C16.4,48.7,16.2,48.5,16,48.4z"
		/>
	<path class="st6" d="M12.8,47.6c0.3-0.1,0.6-0.3,0.8,0.1C13.3,47.7,13,47.8,12.8,47.6z"/>
	<path class="st8" d="M2.4,21.4c0.1,0,0.2,0,0.2,0.1c0,0.1-0.1,0.1-0.2,0.1C2.4,21.6,2.4,21.5,2.4,21.4z"/>
	<path class="st10" d="M30.4,33.6C30.4,33.6,30.4,33.6,30.4,33.6c0.2-0.1,0.6,0.1,0.6-0.1c0-0.3-0.3-0.1-0.5-0.2
		c-0.5-0.1-1.2-0.6-1.3-1.1c-0.1-0.3,0.1-0.6,0.4-0.7c0.7-0.2,1.3-0.3,2,0.1c0.5,0.3,0.6,0.5,0.3,0.9c-0.2,0.2-0.3,0.5-0.6,0.6
		c-0.1,0.1-0.4,0.1-0.3,0.3c0.1,0.2,0.3,0.1,0.4,0.1c-0.2,0.3-0.2,0.6,0.1,0.6c0.6-0.1,1.1,0.3,1.7,0.2c0.1,0,0.3,0,0.3-0.2
		c0-0.1-0.1-0.2-0.3-0.2c-0.5,0.1-0.3-0.2-0.3-0.4c0.3,0,0.6,0,1,0c0.2,0.1,0,0.4,0.3,0.5c-0.1,0.1-0.2,0.1-0.3,0.2
		c0.3,0,0.6,0.4,0.8,0c0.1-0.3-0.3-0.1-0.5-0.2c0.1-0.1,0.2-0.3,0.1-0.4c0.1,0,0.1,0,0.2,0c0.4,0.1,0.7,0.1,1.1,0.2
		c1.1,0,2,1,1.7,2.2c-0.3,0.8-0.2,1.6-0.4,2.4c-0.5-0.1-1.1-0.2-1.6-0.3c0-0.1,0.1-0.2,0.1-0.3c-0.5,0-0.3-0.3-0.4-0.6
		c0-0.1-0.2-0.2-0.2-0.3c-0.2-0.4-0.7-0.2-1-0.4c-0.5-0.2-1-0.4-1.5-0.1c-0.1,0.1-0.2,0-0.4,0.1c0-0.1,0-0.2-0.2-0.2
		c-0.5,0.1-1,0.2-1.5-0.1c0,0-0.1-0.2-0.2-0.1c-0.1,0.3-0.4,0.2-0.6,0.3c-0.5,0.2-1.1,0.2-1.4,0.7c-0.5,0-0.7,0.4-1.1,0.6
		c0,0.1,0.1,0.1,0.1,0.2c-0.4,0-0.8,0.1-1.2,0.1c-0.2,0-0.3,0-0.5,0.1c-0.1,0-0.1,0-0.2,0c-0.4,0.1-0.8,0.1-1.2,0.2
		c-0.1-1-0.2-2.1-0.4-3.1c0.2-0.3,0.3-0.5,0.5-0.8c0.2-0.3,0.4-0.6,0.9-0.5c0.2-0.1,0.6,0.3,0.8-0.2c0.2,0,0.3,0,0.5,0
		c0.4,0.3,1,0.1,1.4,0.3c0.1-0.4,0.7,0.1,0.7-0.5c0.1,0,0.2,0,0.3,0c0,0.1,0.1,0.1,0.1,0.2c0,0,0.1-0.1,0.1-0.1c0.1,0,0.3,0,0.4,0
		c0.2,0.6,1.1,0.8,1.6,0.5c0.1,0,0.3-0.1,0.2-0.3c0,0-0.1-0.1-0.1-0.1c-0.2,0.1,0,0.2-0.1,0.4c-0.2,0-0.3,0-0.5,0
		C30.1,34,30.2,33.8,30.4,33.6z"/>
	<path class="st9" d="M9.1,45.2c-0.2-0.2-0.4-0.1-0.7-0.1c0.3,0.3,0.3,0.7,0.2,1.1c-0.2,1.3-0.3,2.7-0.5,4c-0.1,0.7-0.1,1.4-0.1,2
		c0,0.3-0.2,0.5-0.5,0.7c-0.6,0.3-1-0.2-1.4-0.4c-0.3-0.2-0.2-0.6-0.2-0.9c0.2-1.5,0.4-3,0.5-4.5c0.1-1.4,0.2-2.9,0.7-4.2
		c0.1-0.3,0.3-0.4,0.6-0.5c0.5-0.1,0.7-0.6,0.7-1c0.1-0.6,0.4-0.6,0.8-0.5c0.7,0.3,1.6,0.2,2.2-0.1c0.6-0.3,1.1-0.4,1.7-0.4
		c0.4,0,0.5,0.1,0.5,0.5c-0.7-0.1-1.2,0.4-1.8,0.6c-0.2,0.1-0.2,0.3,0,0.4c0.5,0.2,0.5,0.7,0.7,1.1c0.2,0.3,0.4,0.6,0.6,0.8
		c0.1,0.1,0.3,0.2,0.5,0.1c0.2-0.1,0.1-0.2,0.1-0.4c0.1-0.4-0.1-0.7,0.1-1.1c0.1,0.5,0,1.1,0.2,1.6c0,0.3,0,0.5,0,0.8
		c-0.7,0.2-1.2,0.8-1.9,1c-0.8-0.2-1.7-0.2-2.4-0.5C9.5,45.2,9.3,45.2,9.1,45.2z"/>
	<path class="st10" d="M14,44c-0.2-0.5-0.1-1.1-0.2-1.6c0-0.5,0-1.1,0-1.6c-0.1-1.5,0.8-2.5,1.9-3.3c-0.1,0.2,0,0.4,0.1,0.5
		c0.3,0.5,0,0.5-0.4,0.5c0.3-0.1,0.2,0.6,0.6,0.3c0.3-0.3,0.7-0.4,1-0.8c0.1,0,0.2,0,0.2-0.1c0.2-0.1,0.2-0.2,0.3-0.4
		c0.4,0,0.4-0.5,0.7-0.6c0-0.1,0-0.2,0-0.2c0.1-0.1,0.2,0,0.2,0.1c1,0.6,1.1,1.7,1.7,2.5c-1.2,0.6-2.4,1-3.5,1.8
		c-0.6,0.4-1,1-1.6,1.3c0.1-0.3,0-0.5-0.1-0.7c-0.1-0.1-0.1-0.3-0.3-0.3c-0.1,0-0.3,0.1-0.3,0.3c0,0.6-0.2,1.1,0.1,1.7
		C14.1,43.6,14,43.8,14,44z"/>
	<path class="st10" d="M41.7,38.5c0.2-0.4,0.5-0.8,0.7-1.2c0.8,0.3,1.3,0.9,1.9,1.4c0.1,0.3,0.3,0.5,0.4,0.8
		c0.1,0.2,0.1,0.5,0.3,0.5c0.3,0,0.6-0.1,0.7-0.4c0.1-0.1,0.1-0.3,0.1-0.4c-0.2-0.1-0.3,0.2-0.4,0.1c0,0,0,0,0-0.1c0,0,0,0,0,0
		c0,0,0,0,0.1,0.1c0,0.1-0.1,0.2-0.2,0.2c-0.1,0-0.1-0.1-0.1-0.2c0-0.2,0.1-0.4,0-0.4c-0.3,0-0.6-0.3-0.9-0.1
		c-0.1-0.3,0-0.5,0.4-0.4c0.1,0,0.3,0.1,0.4-0.1c0-0.1-0.1-0.2-0.3-0.1c-0.1-0.7-0.6-0.4-1-0.4c0-0.1,0-0.2,0-0.3
		c0.4,0,0.9,0.1,1.3-0.1c0.1,0,0.1,0.1,0.2,0.1c0.1,0,0.1,0.1,0.2,0.1c0.3,0.3,0.5,0.6,0.8,0.8c0,0.1,0,0.1,0.1,0.1
		c0.3,0.4,0.5,0.8,0.6,1.3c0.1,0.3,0.1,0.6,0.2,0.8c0,0,0,0,0,0c-0.1,0.1,0,0.2,0.1,0.2C46.9,41,47,41.2,47,41.3
		c-0.1,0.5,0,1.1-0.2,1.7c0-0.2,0-0.3,0-0.5c0-0.4,0.1-0.9-0.4-0.9c-0.4,0-0.4,0.5-0.5,0.8c-0.3-0.4-0.8-0.7-1.2-1
		c-0.8-0.5-1.5-1.2-2.5-1.5c-0.1-0.2,0.2-0.2,0.2-0.3c-0.2,0-0.3,0-0.4,0.2c-0.2-0.1-0.4-0.1-0.6-0.1c0.1-0.1,0.3-0.2,0.4-0.3
		c-0.1-0.1-0.3,0-0.4-0.2c0.1-0.1,0.3-0.1,0.4-0.3c0,0,0,0-0.1,0c0,0,0,0-0.1,0C41.6,38.9,41.7,38.7,41.7,38.5z M42.8,39.7
		C42.8,39.6,42.8,39.6,42.8,39.7c0-0.1,0-0.1,0-0.1C42.8,39.6,42.7,39.6,42.8,39.7C42.7,39.6,42.8,39.6,42.8,39.7z M45.1,38.5
		C45.1,38.5,45.1,38.5,45.1,38.5c-0.1-0.1-0.1,0-0.2,0c0,0,0,0.1,0.1,0.1C45,38.6,45.1,38.5,45.1,38.5z"/>
	<path class="st8" d="M46.2,38.5c-0.3-0.3-0.5-0.6-0.8-0.8c-0.1,0-0.1-0.1-0.2-0.1c-0.1,0-0.1-0.1-0.2-0.1c-0.1-0.3-0.3-0.2-0.5,0
		c0-0.4-0.4-0.4-0.5-0.6c0,0-0.1,0-0.1-0.1c0,0-0.1,0-0.1,0c-0.3,0-0.3-0.5-0.6-0.5c0.2-0.4,0.5-0.7,0.8-1.1c0.1-0.1,0.2-0.1,0.3,0
		c0.9,0.9,1.8,1.9,3.1,2.2c0,0,0.1,0,0.1,0.1c0.2,0.8,1,1,1.5,1.6c0.3,0.4,0.5,0.7-0.1,1c0.4,0,0.8,0,1.1,0
		c-0.8,0.4-1.7,0.2-2.6,0.3c-0.3,0-0.2-0.4-0.5-0.4c-0.1-0.5-0.4-0.9-0.6-1.3C46.2,38.5,46.2,38.5,46.2,38.5z"/>
	<path class="st7" d="M45.9,42.5c0.1-0.3,0.1-0.8,0.5-0.8c0.5,0,0.3,0.6,0.4,0.9c0,0.1,0,0.2,0,0.5c0.2-0.6,0.1-1.2,0.2-1.7
		c0.2-0.1,0.1-0.3,0.1-0.4c-0.1,0-0.1-0.1-0.1-0.2c0.8,0.2,1.5,0.4,2.2,0.8c0.3,0.2,0.4,0.3,0.3,0.6c-0.9,0.8-1.8,1.5-2.6,2.3
		c-0.3-0.2,0-0.7-0.4-0.8C46.5,43.2,46,43,45.9,42.5z"/>
	<path class="st8" d="M25.2,38.3c0.1,0,0.1,0,0.2,0c0.2,0.2,0.4,0.3,0.5-0.1c0.4-0.1,0.8-0.2,1.2-0.1c0.1,0.1,0.2,0,0.2-0.1
		c0.1,0,0.3,0,0.4-0.1l0,0c0.3,0,0.9,0,1-0.1c0.3-0.1,0.4,0.3,0.7,0.2c0.1-0.1,0.3-0.1,0.5-0.1c0.6,0,1.2,0.2,1.8-0.1
		c0.2,0.2,0.4,0,0.6,0.1c0.9,0.3,2,0.2,2.9,0.4c0.5,0.1,1.1,0.2,1.6,0.3c0.2,0.1,0.4,0.1,0.6,0.1c0.2,0.3,0.2,0.5-0.3,0.4
		c-1.9-0.2-3.7-0.4-5.6-0.5c-1.5,0-2.9-0.1-4.4-0.1c-0.6,0-1.2,0.2-1.8,0.1C25.4,38.7,25.2,38.6,25.2,38.3z"/>
	<path class="st8" d="M37.5,36.2c0.3-1.2-0.6-2.2-1.7-2.2c-0.4,0-0.7-0.1-1.1-0.2c0-0.3,0.2-0.4,0.4-0.4c0.9,0,1.9,0.1,2.8,0.3
		c0.4,0.1,0.6,0.5,1,0.7c0.1,0.1,0.1,0.3,0,0.4c-0.4,1-0.7,1.9-0.9,2.9c0,0.2-0.1,0.3-0.3,0.3C37.6,37.5,37.9,36.8,37.5,36.2z"/>
	<path class="st8" d="M45.9,42.5c0.1,0.5,0.6,0.7,0.6,1.2c-0.2,0.2-0.5,0.2-0.6-0.1c-0.3-0.9-1-1.4-1.8-1.8c-1-0.5-1.8-1.3-2.8-1.6
		c-0.2,0-0.6-0.1-0.3-0.5c0.1,0.1,0.3,0.1,0.4,0.2c0.2,0,0.4,0,0.6,0.1c0,0.1,0.1,0.1,0.1,0.1c1,0.3,1.6,1,2.5,1.5
		C45.1,41.8,45.6,42.1,45.9,42.5z"/>
	<path class="st8" d="M22.5,35c-0.5-0.6-0.5-1.3-0.6-2c0-0.2,0.1-0.3,0.3-0.2c0.7,0.5,1.4,0.7,2.2,0.7c0,0,0.1,0.1,0.1,0.1
		C23.9,34.1,23.4,34.9,22.5,35z"/>
	<path class="st8" d="M12.2,45.8c0.7-0.2,1.2-0.8,1.9-1c0.4,0.5,0.9,1,1.4,1.7C14.3,46.2,13.2,46.2,12.2,45.8z"/>
	<path class="st9" d="M22.5,35c0.9-0.1,1.4-0.8,2-1.4c0.2,0,0.4,0,0.6,0c0,0.1-0.1,0.2-0.1,0.3c0,0.1,0,0.1,0,0.2
		c-0.5-0.2-0.7,0.2-0.9,0.5c-0.2,0.3-0.3,0.5-0.5,0.8c-0.4,0-0.6,0.1-0.5,0.5c0.2,0.5,0.1,1.1,0.1,1.6c-0.4-0.2-0.3-0.7-0.4-1
		C22.6,36,22.5,35.5,22.5,35z"/>
	<path class="st7" d="M43.2,36.1c0.3,0,0.3,0.5,0.6,0.5c0,0,0,0.1,0,0.1c-0.1,0-0.2,0-0.2,0.1l0,0l0,0c0,0.1-0.1,0.1-0.1,0.2l0,0
		c0,0.1-0.4,0.1,0,0.2c0,0.1,0,0.1,0,0.2c-0.1,0-0.2,0-0.3,0.1c0,0,0,0.1,0,0.1c0.1,0.1,0.3,0,0.3-0.1c0,0,0.1,0,0.1,0
		c-0.1,0.2,0,0.2,0.2,0.3c0.4,0.1,0.9-0.3,1,0.4c0,0.1-0.1,0.1-0.1,0.2c-0.3-0.1-0.5,0-0.4,0.4l0,0c-0.6-0.5-1.1-1.1-1.9-1.4
		C42.7,36.9,42.9,36.5,43.2,36.1z"/>
	<path class="st7" d="M23.2,37.5c0-0.5,0.1-1.1-0.1-1.6c-0.1-0.4,0.1-0.5,0.5-0.5c0.1,1,0.2,2.1,0.4,3.1c-0.3,0.2-0.5,0.1-0.6-0.2
		C23.4,38,23.3,37.7,23.2,37.5z"/>
	<path class="st9" d="M49.5,42.2c0.1-0.3,0.1-0.4-0.3-0.6c-0.7-0.5-1.4-0.7-2.2-0.8c0,0,0,0,0,0c0.2-0.4,0.6-0.2,0.9-0.2
		c0.3,0,0.6,0,0.9,0c0.2,0.5,0.9,0.9,1.6,0.9C50.3,41.8,49.9,42,49.5,42.2z"/>
	<path class="st7" d="M37.5,36.2c0.4,0.6,0.1,1.3,0.2,1.9c0,0.2,0,0.4,0,0.6c-0.2,0-0.4,0-0.6-0.1C37.3,37.8,37.2,37,37.5,36.2z"/>
	<path class="st7" d="M33.1,33.8c0,0.2-0.2,0.5,0.3,0.4c0.1,0,0.3,0,0.3,0.2c0,0.2-0.1,0.2-0.3,0.2c-0.6,0-1.1-0.3-1.7-0.2
		c-0.3,0-0.3-0.4-0.1-0.6c0.1,0,0.2,0,0.3,0c0,0.2-0.3,0.2-0.2,0.4c0.2,0.2,0.4-0.1,0.6,0c0.1,0.1,0.1-0.2,0.1-0.3
		C32.6,33.6,32.9,33.7,33.1,33.8z"/>
	<path class="st7" d="M14.1,43.4c-0.2-0.6-0.1-1.1-0.1-1.7c0-0.1,0.1-0.3,0.3-0.3c0.2,0,0.2,0.1,0.3,0.3c0.1,0.2,0.2,0.4,0.1,0.7
		C14.6,42.8,14.4,43.2,14.1,43.4z"/>
	<path class="st8" d="M50.5,41.3c-0.8,0-1.5-0.4-1.6-0.9c0.4,0,0.7,0,1.1,0.3c0.2,0.2,0.6,0.4,1,0.3C50.9,41.4,50.7,41.3,50.5,41.3z
		"/>
	<path class="st7" d="M28.4,33.6c0,0.5-0.6,0.1-0.7,0.5c-0.5-0.1-1,0-1.4-0.3C26.9,33.5,27.7,33.6,28.4,33.6z"/>
	<path class="st7" d="M30.4,33.6c-0.1,0.2-0.3,0.4,0.1,0.4c0.2,0,0.3,0,0.5,0l0,0c-0.5,0.4-1.4,0.1-1.6-0.5
		C29.7,33.6,30,33.6,30.4,33.6z"/>
	<path class="st7" d="M41.5,39.9c-0.1-0.1-0.3-0.1-0.4-0.2c0-0.1,0-0.2,0-0.2c0.1-0.1,0.2-0.2,0.2-0.4c0,0,0,0,0,0
		c0.2,0.1,0.3,0,0.5,0c0,0,0,0,0.1,0c0,0,0,0,0.1,0c-0.1,0.2-0.3,0.1-0.4,0.3c0,0.2,0.3,0,0.4,0.2C41.7,39.7,41.6,39.8,41.5,39.9z"
		/>
	<path class="st7" d="M18.3,36.9c0-0.1,0-0.2-0.2-0.1c-0.1,0-0.1,0-0.2,0c-0.1-0.1-0.4,0.2-0.3-0.2c0.2,0,0.3-0.1,0.5-0.1
		c-0.1-0.3-0.3-0.2-0.5-0.3l0,0c0-0.2,0.2-0.2,0.2-0.4c0.2,0.2,0.3,0.3,0.5,0.5C18.5,36.6,18.5,36.7,18.3,36.9z"/>
	<path class="st8" d="M41.8,39.1c-0.2,0-0.3,0.1-0.5,0c0-0.3,0.1-0.5,0.4-0.6C41.7,38.7,41.6,38.9,41.8,39.1z"/>
	<path class="st7" d="M25,34.1c0-0.1,0-0.1,0-0.2c0.2,0,0.4-0.1,0.6-0.1c0,0,0.1,0.1,0.1,0.1C25.6,34.4,25.2,34,25,34.1z"/>
	<path class="st8" d="M34.5,33.8c0.1,0.2,0.1,0.3-0.1,0.4c0,0,0,0,0,0c-0.2-0.1-0.1-0.4-0.3-0.5c0-0.1,0-0.3,0.2-0.3
		C34.5,33.4,34.4,33.7,34.5,33.8z"/>
	<path class="st8" d="M25.6,33.7c-0.2,0-0.4,0.1-0.6,0.1c0-0.1,0.1-0.2,0.1-0.3C25.3,33.4,25.5,33.4,25.6,33.7z"/>
	<path class="st10" d="M32.3,33.8c0,0.1,0.1,0.3-0.1,0.3c-0.2-0.1-0.4,0.2-0.6,0c-0.2-0.2,0.2-0.2,0.2-0.4
		C32,33.6,32.2,33.7,32.3,33.8z"/>
	<path class="st8" d="M41.3,39.1c0,0.2-0.1,0.3-0.2,0.4C41.1,39.3,41.1,39.1,41.3,39.1z"/>
	<path class="st7" d="M28.9,33.7c0,0-0.1,0.1-0.1,0.1c0-0.1-0.1-0.1-0.1-0.2C28.8,33.6,28.8,33.7,28.9,33.7z"/>
	<path class="st9" d="M45.8,47C45.8,47,45.8,47,45.8,47C45.8,47,45.8,47,45.8,47C45.8,47.1,45.8,47,45.8,47z"/>
	<path class="st9" d="M45.7,47.2c0,0,0.1-0.1,0.1-0.1c0,0,0,0,0,0C45.7,47.1,45.7,47.1,45.7,47.2L45.7,47.2z"/>
	<path class="st9" d="M45.5,47.3C45.5,47.3,45.5,47.3,45.5,47.3C45.5,47.3,45.5,47.3,45.5,47.3C45.5,47.3,45.5,47.3,45.5,47.3z"/>
	<path class="st9" d="M45.3,47.7C45.3,47.6,45.3,47.6,45.3,47.7C45.3,47.6,45.3,47.7,45.3,47.7L45.3,47.7z"/>
	<path class="st9" d="M45.3,47.7c0,0-0.1,0.1-0.1,0.1c0,0,0,0,0,0C45.2,47.7,45.2,47.7,45.3,47.7C45.3,47.7,45.3,47.7,45.3,47.7z"/>
	<path class="st9" d="M45.7,47.2c0,0-0.1,0.1-0.1,0.1c0,0,0,0,0,0C45.6,47.3,45.6,47.2,45.7,47.2C45.7,47.2,45.7,47.2,45.7,47.2z"/>
	<path class="st9" d="M45,47.9c0,0,0.1-0.1,0.1-0.1c0,0,0,0,0,0C45.1,47.8,45.1,47.9,45,47.9C45,47.9,45,47.9,45,47.9z"/>
	<path class="st9" d="M44.9,48c0,0,0.1-0.1,0.1-0.1c0,0,0,0,0,0C45,48,45,48,44.9,48C44.9,48,44.9,48,44.9,48z"/>
	<path class="st9" d="M44.9,48C44.9,48.1,44.9,48.1,44.9,48C44.9,48.1,44.9,48.1,44.9,48C44.9,48.1,44.9,48.1,44.9,48
		C44.9,48,44.9,48,44.9,48z"/>
	<path class="st9" d="M43,16.4c0.1-0.1,0.3-0.1,0.3,0c0.1,0.2-0.1,0.1-0.2,0.1C43.1,16.5,43.1,16.4,43,16.4z"/>
	<path class="st6" d="M12.9,17.5c-2.3,1-4.4,2.1-6.5,3.4C8.3,19.4,10.5,18.2,12.9,17.5z"/>
	<path class="st6" d="M5,22c-0.1,0.3-0.2,0.4-0.4,0.4C4.6,22.2,4.8,22.1,5,22z"/>
	<path class="st6" d="M6.2,21c0,0.4-0.2,0.4-0.4,0.5C5.7,21.2,5.9,21.1,6.2,21z"/>
	<path class="st6" d="M3.7,23.5c0-0.2,0.1-0.2,0.2-0.2l0,0C3.9,23.4,3.9,23.5,3.7,23.5C3.7,23.5,3.7,23.5,3.7,23.5z"/>
	<path class="st9" d="M13.8,17.4c0.1-0.1,0.2-0.1,0.4-0.1c0,0,0,0,0,0C14.1,17.4,13.9,17.4,13.8,17.4L13.8,17.4z"/>
	<path class="st9" d="M13.8,17.4c0,0-0.1,0.1-0.1,0.1c0,0,0,0,0,0C13.7,17.5,13.7,17.4,13.8,17.4C13.8,17.4,13.8,17.4,13.8,17.4z"/>
	<path class="st6" d="M4.1,23.1c0-0.1,0-0.1,0-0.2c0,0,0,0,0,0C4.1,23.1,4.1,23.1,4.1,23.1C4.1,23.1,4.1,23.1,4.1,23.1z"/>
	<path class="st6" d="M3.6,23.8c0-0.1,0-0.2,0.1-0.2c0,0,0,0,0,0C3.7,23.6,3.7,23.7,3.6,23.8L3.6,23.8z"/>
	<path class="st6" d="M3.6,23.8C3.6,23.8,3.6,23.8,3.6,23.8C3.6,23.8,3.6,23.8,3.6,23.8L3.6,23.8z"/>
	<path class="st6" d="M3.9,23.3c0,0,0.1-0.1,0.1-0.1c0,0,0,0,0,0C4,23.2,4,23.2,3.9,23.3L3.9,23.3z"/>
	<path class="st7" d="M49.9,18.4c0,0-0.1,0-0.1,0c-0.1,0-0.2-0.1-0.1-0.2c0,0,0.1,0,0.1,0c0.1,0,0.2,0.1,0.2,0.1
		C49.9,18.4,49.9,18.4,49.9,18.4z"/>
	<path class="st7" d="M13.7,40.8c0,0.5,0,1.1,0,1.6c-0.3,0.3-0.1,0.7-0.1,1.1c0,0.1,0,0.3-0.1,0.4c-0.2,0.1-0.3,0-0.5-0.1
		c-0.3-0.2-0.5-0.5-0.6-0.8c-0.2-0.4-0.3-0.9-0.7-1.1c-0.2-0.1-0.2-0.3,0-0.4c0.6-0.2,1.1-0.7,1.8-0.6
		C13.6,40.8,13.7,40.8,13.7,40.8z"/>
	<path class="st7" d="M16.9,38.1c-0.2,0.4-0.6,0.5-1,0.8c-0.4,0.3-0.3-0.4-0.6-0.3c0.4-0.1,0.7-0.1,0.4-0.5
		c-0.1-0.1-0.2-0.3-0.1-0.5c0-0.3,0.2-0.4,0.5-0.4c0.5-0.1,0.3,0.6,0.8,0.6C16.9,37.8,16.9,37.9,16.9,38.1z"/>
	<path class="st9" d="M16.9,37.7c-0.4,0-0.2-0.7-0.8-0.6c0.5-0.2,0.8-0.9,1.5-0.9c0,0,0,0,0,0c0,0.1,0,0.2,0,0.3
		c-0.1,0.3,0.2,0.1,0.3,0.2c0,0.2,0.1,0.2,0.2,0.2c-0.3,0.2-0.3,0.6-0.7,0.6c-0.1-0.1-0.1-0.1-0.2-0.1l0,0c-0.1-0.3-0.3-0.2-0.5-0.2
		C16.8,37.4,16.8,37.6,16.9,37.7L16.9,37.7z"/>
	<ellipse class="st6" cx="4.3" cy="52.2" rx="0" ry="0.9"/>
	<path class="st6" d="M9.6,45.9C9.6,45.9,9.6,46,9.6,45.9C9.6,46,9.6,46,9.6,45.9C9.5,45.9,9.6,45.9,9.6,45.9z"/>
	<path class="st7" d="M35.5,38.3c-1-0.1-2,0-2.9-0.4c-0.2-0.1-0.4,0.1-0.6-0.1c0.3-0.4-0.4-0.3-0.3-0.6c0,0,0,0,0.1-0.1
		c0.3,0.1,0.5-0.2,0.7-0.2c0-0.3-0.3-0.1-0.3-0.3l0,0c0.1,0,0.3,0,0.4-0.1c0.5-0.3,1.1-0.2,1.5,0.1c0.3,0.2,0.8,0,1,0.4
		c0,0.1,0.2,0.2,0.2,0.3c0.1,0.3-0.1,0.6,0.4,0.6C35.5,38.1,35.5,38.2,35.5,38.3z M32.3,37.3C32.3,37.3,32.3,37.3,32.3,37.3
		c0,0.1,0,0.2,0,0.3C32.3,37.5,32.3,37.4,32.3,37.3z M33,37.7c0.1-0.2,0.1-0.2,0.2-0.2c0,0-0.1-0.1-0.1-0.1c-0.1,0-0.1,0-0.1,0.1
		C33,37.5,33,37.6,33,37.7z M32.8,37.6c0,0-0.1-0.1-0.1-0.1c0,0-0.1,0.1-0.1,0.1c0,0,0.1,0.1,0.1,0.1C32.8,37.7,32.8,37.7,32.8,37.6
		z M33.5,37.3c0,0-0.1-0.1-0.1-0.1c0,0,0,0-0.1,0.1C33.4,37.3,33.4,37.3,33.5,37.3C33.5,37.3,33.5,37.3,33.5,37.3z"/>
	<path class="st7" d="M29.7,38c-0.3,0.2-0.4-0.2-0.7-0.2c-0.3,0.1-0.5-0.2-0.7-0.2c0-0.3,0.4-0.1,0.3-0.3c0-0.1-0.2,0-0.3,0
		c0,0,0,0,0-0.1c0.4-0.5,1-0.5,1.4-0.7c0.2-0.1,0.5,0,0.6-0.3c0-0.1,0.1,0,0.2,0.1c0.5,0.3,1,0.2,1.5,0.1c0.1,0,0.2,0.1,0.2,0.2
		c0,0,0,0,0,0c-0.3-0.3-0.4,0.2-0.7,0.2c0,0.2,0.3,0.1,0.3,0.3c0,0,0,0-0.1,0.1c-0.2-0.1-0.4,0.2-0.7,0.1C30.5,37.3,30,37.6,29.7,38
		z"/>
	<path class="st7" d="M34.4,34.2C34.4,34.2,34.4,34.2,34.4,34.2c0.2,0,0.6-0.1,0.5,0.2c-0.1,0.4-0.5,0-0.8,0
		C34.2,34.4,34.3,34.3,34.4,34.2z"/>
	<path class="st7" d="M27.5,38c-0.1,0.1-0.1,0.1-0.2,0.1c0-0.1-0.1-0.1-0.1-0.2c0.4-0.2,0.6-0.6,1.1-0.6c0,0,0,0,0,0.1
		C28,37.5,28,37.8,27.9,38c0,0,0,0,0,0c-0.1-0.1-0.1-0.2-0.2-0.2C27.5,37.7,27.5,37.9,27.5,38z"/>
	<path class="st6" d="M26,38.2c-0.1,0.4-0.3,0.3-0.5,0.1C25.6,38.3,25.8,38.2,26,38.2z"/>
	<path class="st7" d="M31,34.1c0.1-0.1-0.1-0.3,0.1-0.4c0,0,0.1,0,0.1,0.1C31.2,34,31.1,34.1,31,34.1C31,34.1,31,34.1,31,34.1z"/>
	<path class="st9" d="M16.9,38.1c0-0.1,0-0.2,0-0.3l0,0c0.1-0.1,0.2-0.2,0.2-0.2c0,0,0,0,0,0c0,0.2,0,0.3,0,0.5
		C17.1,38,17,38.1,16.9,38.1z"/>
	<path class="st7" d="M17.1,37.9c0-0.2,0-0.3,0-0.5c0.1,0,0.2,0,0.2,0.1C17.3,37.7,17.3,37.9,17.1,37.9z"/>
	<path class="st6" d="M18.1,37c-0.1,0-0.2-0.1-0.2-0.2c0.1,0,0.1,0,0.2,0C18.1,36.8,18.1,36.9,18.1,37z"/>
	<path class="st7" d="M44.3,38.7c0.3-0.2,0.6,0.1,0.9,0.1c0.1,0,0,0.3,0,0.4c0,0.1,0,0.2,0.1,0.2c0.1,0,0.2-0.1,0.2-0.2l0,0
		c0.2,0.1,0.2-0.2,0.4-0.1c0,0.1-0.1,0.3-0.1,0.4c-0.2,0.3-0.5,0.4-0.7,0.4c-0.2,0-0.2-0.3-0.3-0.5C44.6,39.2,44.4,39,44.3,38.7
		C44.3,38.7,44.3,38.7,44.3,38.7z"/>
	<path class="st7" d="M44.6,37.3c0.2-0.1,0.3-0.2,0.5,0c-0.4,0.2-0.8,0.2-1.3,0.1c0,0-0.1,0-0.1,0c0,0,0,0,0,0
		c0.2-0.2,0.3-0.4,0.6-0.1C44.4,37.3,44.5,37.3,44.6,37.3L44.6,37.3z"/>
	<path class="st7" d="M42.2,40.1c-0.1,0-0.1,0-0.1-0.1c0-0.2,0.2-0.2,0.4-0.2C42.4,39.9,42.1,39.9,42.2,40.1z"/>
	<path class="st9" d="M44.7,38.3c0-0.1,0.1-0.1,0.1-0.2c0.1-0.1,0.3-0.1,0.3,0.1C45,38.5,44.8,38.3,44.7,38.3z"/>
	<path class="st7" d="M42.8,39.7C42.8,39.6,42.7,39.6,42.8,39.7c-0.1-0.1,0-0.1,0-0.1C42.8,39.5,42.8,39.6,42.8,39.7
		C42.8,39.6,42.8,39.6,42.8,39.7z"/>
	<path class="st9" d="M47.1,40.9c0,0.2,0,0.3-0.1,0.4C47,41.2,46.9,41,47.1,40.9z"/>
	<path class="st9" d="M43.8,37.7c-0.1-0.1-0.2-0.1-0.2-0.3c0,0,0,0,0,0c0,0,0.1,0,0.1,0C43.8,37.5,43.8,37.6,43.8,37.7z"/>
	<path class="st7" d="M45.1,38.5c0,0-0.1,0-0.1,0c0,0,0,0-0.1-0.1C45,38.5,45,38.5,45.1,38.5C45.1,38.5,45.1,38.5,45.1,38.5z"/>
	<path class="st6" d="M45.2,37.5c0.1,0,0.1,0.1,0.2,0.1C45.3,37.6,45.3,37.5,45.2,37.5z"/>
	<path class="st7" d="M45.4,39.2C45.4,39.2,45.4,39.2,45.4,39.2C45.4,39.2,45.4,39.2,45.4,39.2C45.4,39.2,45.4,39.2,45.4,39.2
		C45.4,39.2,45.4,39.2,45.4,39.2z"/>
	<path class="st6" d="M46.2,38.5c0,0,0.1,0.1,0.1,0.1C46.2,38.6,46.2,38.5,46.2,38.5z"/>
	<path class="st10" d="M44.6,37.3C44.6,37.3,44.6,37.3,44.6,37.3c0,0,0-0.1-0.1-0.1c-0.1,0-0.2,0.1-0.3,0.2
		c-0.2-0.3-0.4-0.1-0.6,0.1c0-0.2,0.2-0.3,0.1-0.6l0,0c0.1,0,0.2,0,0.1-0.2l0,0c0,0,0.1-0.1,0.1-0.1C44.2,36.9,44.6,36.9,44.6,37.3z
		"/>
	<path class="st7" d="M44,36.6c0,0-0.1,0.1-0.1,0.1c0-0.1,0-0.1,0-0.2C43.9,36.6,44,36.6,44,36.6z"/>
	<path class="st9" d="M43.9,36.6c0,0.1,0,0.1,0,0.2c0,0,0,0,0,0c0,0-0.1,0-0.1,0l0,0C43.8,36.7,43.8,36.6,43.9,36.6
		C43.8,36.6,43.9,36.6,43.9,36.6z"/>
	<path class="st10" d="M29.7,38c0.3-0.4,0.8-0.7,1.3-0.7c0.3,0,0.4-0.2,0.7-0.1c-0.1,0.3,0.6,0.2,0.3,0.6c-0.6,0.3-1.2,0.1-1.8,0.1
		C30,38,29.8,37.9,29.7,38z M30.9,37.6L30.9,37.6L30.9,37.6L30.9,37.6z"/>
	<path class="st10" d="M27.9,38c0.1-0.2,0.1-0.5,0.3-0.6c0.1,0,0.2-0.1,0.3,0c0.1,0.3-0.3,0.1-0.3,0.3c0.3-0.1,0.4,0.2,0.7,0.2
		C28.8,37.9,28.2,38,27.9,38z"/>
	<path class="st10" d="M27.5,38c0.1-0.1,0-0.3,0.2-0.3c0.1,0,0.1,0.2,0.2,0.2C27.8,38,27.6,38,27.5,38z"/>
	<path class="st6" d="M43.8,36.9c0.1,0.2-0.1,0.4-0.1,0.6c0,0,0,0,0,0c0,0,0,0,0,0c0,0-0.1,0-0.1,0c0,0,0-0.1-0.1,0
		c0-0.1,0-0.1,0-0.2c0-0.1,0-0.1,0-0.2c0,0,0,0,0,0c0.1,0,0.1-0.1,0.1-0.2l0,0c0,0,0,0,0,0C43.7,36.9,43.7,36.9,43.8,36.9z"/>
	<path class="st10" d="M43.5,37.5c-0.1,0.2-0.2,0.2-0.3,0.1c0,0,0-0.1,0-0.1C43.2,37.4,43.3,37.4,43.5,37.5
		C43.5,37.4,43.5,37.4,43.5,37.5z"/>
	<path class="st10" d="M43.4,37c0,0.1,0,0.1,0,0.2C43.1,37.1,43.5,37.1,43.4,37z"/>
	<path class="st9" d="M43.8,36.9c-0.1,0-0.1,0-0.2,0c0-0.2,0.1-0.1,0.2-0.1c0,0,0,0,0,0C43.8,36.8,43.8,36.8,43.8,36.9L43.8,36.9z"
		/>
	<path class="st10" d="M43.5,36.8c0,0.1,0,0.2-0.1,0.2C43.5,37,43.5,36.9,43.5,36.8z"/>
	<path class="st8" d="M17.7,36.6c0-0.1,0-0.2,0-0.3c0.2,0,0.4,0,0.5,0.3C18,36.5,17.8,36.5,17.7,36.6z"/>
	<path class="st7" d="M17.1,37.5c-0.1,0.1-0.2,0.2-0.2,0.2c-0.1-0.1-0.1-0.3-0.2-0.5C16.9,37.3,17.1,37.2,17.1,37.5z"/>
	<path class="st10" d="M31.7,37.2c0-0.2-0.3-0.1-0.3-0.3c0.3,0.1,0.3-0.5,0.7-0.2c0,0.3,0.3,0,0.3,0.3C32.2,37,32,37.3,31.7,37.2z"
		/>
	<path class="st10" d="M32.3,37.3c0,0.1,0,0.2,0,0.3C32.3,37.5,32.3,37.4,32.3,37.3C32.3,37.3,32.3,37.3,32.3,37.3z"/>
	<path class="st10" d="M33,37.7c0-0.1-0.1-0.2-0.1-0.2c0-0.1,0-0.1,0.1-0.1c0,0,0.1,0,0.1,0.1C33.2,37.5,33.1,37.5,33,37.7z"/>
	<path class="st10" d="M32.8,37.6c0,0.1,0,0.1-0.1,0.1c0,0-0.1-0.1-0.1-0.1c0,0,0.1-0.1,0.1-0.1C32.7,37.5,32.8,37.6,32.8,37.6z"/>
	<path class="st10" d="M33.5,37.3C33.5,37.3,33.5,37.3,33.5,37.3c-0.1,0-0.2,0-0.2,0c0,0,0.1-0.1,0.1-0.1
		C33.5,37.2,33.5,37.2,33.5,37.3z"/>
	<path class="st9" d="M44.3,37.3c0-0.1,0.1-0.2,0.3-0.2c0.1,0,0.1,0.1,0.1,0.2C44.5,37.3,44.4,37.3,44.3,37.3z"/>
	<path class="st8" d="M43.8,36.9c0,0,0-0.1,0-0.1c0,0,0.1,0,0.1,0C44,36.8,43.9,36.8,43.8,36.9z"/>
	<polygon class="st7" points="30.9,37.6 30.9,37.5 30.9,37.5 	"/>
</g>
</svg>
