<?xml version="1.0" encoding="utf-8"?>
<!-- Generator: Adobe Illustrator 22.0.0, SVG Export Plug-In . SVG Version: 6.00 Build 0)  -->
<svg version="1.1" id="图层_1" xmlns="http://www.w3.org/2000/svg" xmlns:xlink="http://www.w3.org/1999/xlink" x="0px" y="0px"
	 viewBox="0 0 60 60" style="enable-background:new 0 0 60 60;" xml:space="preserve">
<style type="text/css">
	.st0{fill:#E52929;}
	.st1{fill:#D02929;}
	.st2{fill:#CB5756;}
	.st3{fill:#F52B2B;}
	.st4{fill:#7B0D0D;}
	.st5{fill:#FDFDFD;}
	.st6{fill:#DADADA;}
	.st7{fill:#969696;}
	.st8{fill:#BEBEBE;}
	.st9{fill:#ACACAC;}
	.st10{fill:#080808;}
	.st11{fill:#DEDEDE;}
	.st12{fill:#CDCDCD;}
	.st13{fill:#BDBDBD;}
	.st14{fill:#AFAFAF;}
	.st15{fill:#060606;}
	.st16{fill:#FEFEFE;}
	.st17{fill:#CCD8DF;}
	.st18{fill:#BDC6CC;}
	.st19{fill:#A4B0B6;}
	.st20{fill:#809197;}
	.st21{fill:#FFFFFF;}
	.st22{fill:#223636;}
	.st23{fill:#C1494C;}
	.st24{fill:#DEDBE1;}
	.st25{fill:#BA1B13;}
	.st26{fill:#B10D05;}
	.st27{fill:#171014;}
</style>
<g>
	<path class="st0" d="M18.7,3.8c3-0.7,6-1.1,9.1-1.2C36,2.4,44.1,3.4,51.4,7.5c1.8,1,3.3,2.2,4.7,3.7c0.2,0.2,0.5,0.4,0.4,0.7
		c-0.5,0.2-0.4,0.6-0.4,1c-0.1,2,0.3,4,0.2,6c0,0.5-0.2,1.1-0.1,1.6c0.3,2.2,0.4,4.5,0.3,6.8c0,0.6,0.1,1.3,0.2,1.9
		c0.5,2.2,0.4,4.4,0.3,6.6c-0.2,2.5-1.4,4.8-1.3,7.3c0,0.1,0,0.1-0.1,0.2c-1,1.4-1.6,3.1-3,4.1c-0.6,0.4-1.1,0.9-1.6,1.3
		c0,0.4-0.5,0.4-0.6,0.8c-1.1,0.5-2.2,1-3.2,1.6c-0.6-0.2-0.3-0.5,0-0.8c0.5-0.5,1.1-0.8,1.7-1.2c0.9-0.6,2.5-0.6,2.4-2.3
		c0.5-0.8,1.5-1.2,1.6-2.2c0.4,0.1,0.8-0.2,1.3-0.1c0.4,0.1,0.3-0.4,0.4-0.6c0.1-0.2,0.2-0.6-0.1-0.6c-0.7-0.2-0.9-0.8-1.3-1.3
		c-0.2-0.2-0.4-0.3-0.6-0.2c-0.9,0.5-2,0.6-2.5,1.6c-0.3,0.2-0.6,0.3-0.8,0.6c-0.3,0.1-0.5,0.3-0.6,0.6c-1,0.5-1.5,1.5-2.4,2.1
		c-0.5,0.3-1.3,0.5-1.4,1.3c-0.2,0.6,0.7,2.2,1.4,2.4c0.2,0.1,0.4,0.1,0.4,0.3c0,0.3-0.3,0.3-0.5,0.3c-0.5,0-0.9,0.2-1.3,0.4
		c-0.9,0.4-1.8,0.8-2.8,0.8c0-0.1,0-0.1,0-0.2c0-0.2,0-0.4-0.2-0.4c-0.2-0.2-0.3-0.4-0.5-0.6c-1.2-1.4-2.8-1.9-4.5-2.4
		c-2.3-0.8-4.7-0.9-7.1-0.9c-2.8,0-5.6,0.5-8.3,1.4c0.4-0.7-0.2-1-0.6-1.4c-0.6-0.5-1.1-1-0.2-1.7c0.4-0.3,0.4-0.8-0.1-1.2
		c-0.8-1.6-1.8-3.1-2.9-4.6c-0.4-0.6-0.7-1.2-1.4-1.5c-0.1-0.5-0.6-0.6-0.9-0.8c-1.1-0.6-1.8-1.5-1.9-2.8c0-0.3-0.1-0.7-0.2-1
		c-0.7-1.3-0.8-2.6,0-3.9c0.3-0.4,0.2-0.9,0.2-1.4c0-0.4,0-0.8,0.1-1.1c1-2.6,1.8-5.3,3.3-7.6c0.9-1.5,0.6-3-0.1-4.4
		c-0.3-0.6-0.4-1,0.4-1.2c0.7-0.2,1.1-0.5,0.6-1.4c-0.4-0.6-0.3-1.4-0.3-2.1c0-1.1,0.5-2.1,0.6-3.2c0.1-1.2-0.1-2.4,0.8-3.4
		C18.7,4.4,18.7,4.1,18.7,3.8z M39.5,46.2c0.1,0.1,0.3,0.1,0.4,0.2c0.3,0.5,0.9,0.5,1.4,0.6c0.3,0.5,0.9,0.5,1.4,0.6
		c1.3,0.2,2.1-0.6,3-1.3c1.4-1.2,2.7-2.4,3.7-4c0.1-0.2,0.6-0.5-0.1-0.7c0-0.3,0.1-0.5,0.4-0.6c0.1,0.5,0.3,0.3,0.4,0.1
		c0.3-0.6,0.8-0.9,1.4-1.1c0.6-0.3,0.8-0.9,0.6-1.6c-0.1-0.3-0.3-0.7-0.2-1c0.4-0.9,0.3-1.8,0.4-2.7c0.2-1.6-0.2-3-0.5-4.5
		C51.7,29,51,28,50.2,27.3c-1.4-1.1-2.6-2.4-4.3-3.1c-2-0.8-4-1.3-6.1-1.2c-1.1,0-2.2,0.2-3.2,0.4c-1.3,0.2-2.2,1.5-3.7,1.5
		c-0.1,0-0.1,0.2-0.2,0.3c-0.7,0.9-1.5,1.6-2.8,1.4c-0.6-0.1-1.2,0.1-1.8,0.3c-1.4,0.4-2.9,0.6-4.3,0.9c-1.7,0.4-3.4,0.8-5,1.4
		c-1.5,0.6-2.9,1.2-4.4,1.8c-1.1,0.4-1.4,0.8-1,1.8c0.2,0.5,0.4,1,0.4,1.6c0.1,0.9,0.5,0.9,1.2,0.7c1.3-0.4,2.6-0.8,3.9-1.1
		c1.1-0.2,2.3-0.5,3.7-0.5c-0.5,0.5-0.9,0.8-0.6,1.3c0.3,0.5,0.8,0.3,1.2,0.3c0.3,0,0.6-0.2,1-0.2c0.4,0,0.8-0.2,1,0.4
		c-1,0.1-1.9,0.3-2.9,0.4c-0.8,0.1-1.8,0-1.7,1.3c-0.8,0.7-0.6,1.7-0.6,2.6c-0.1,0-0.3,0-0.4,0c-0.3-0.3-0.2-0.7-0.3-1
		c0-0.1,0.2-0.2,0.2-0.3c0-0.4-0.2-0.5-0.5-0.3c-0.2,0.2-0.5,0.4-0.3,0.7c0.7,2.3,1.5,4.5,3.2,6.3c0.4,0.4,0.7,0.5,1.3,0.4
		c1.2-0.2,2.4-0.4,3.6-0.4c0.6,0,1,0,1.3-0.5l0,0c0.1-0.1,0.1-0.1,0.2-0.2c0.5-0.1,0.7-0.4,0.9-0.8c0.2-0.6,0.1-1.3,0.1-2
		c0.4-0.6,0.1-1.3,0.2-1.9c0-0.2-0.1-0.6,0.3-0.6c0.3,0,0.3,0.3,0.3,0.5c0,0.6,0,1.2-0.1,1.9c-0.4,1.7,0.2,3.2,1.5,3.5
		c1.7,0.3,3.4,0.6,5.1,0.4c1-0.1,1.7,0.1,2.4,0.6c0.1,0,0.2,0,0.4,0C39.3,46.1,39.4,46.1,39.5,46.2z"/>
	<path class="st1" d="M20.4,44.8c0.5,0.4,0.5,0.9,0.1,1.2c-0.9,0.8-0.4,1.2,0.2,1.7c0.4,0.4,1,0.7,0.6,1.4c-0.8,0.6-1.7,1-2.4,1.7
		c-1.1,1-1.1,2.5,0,3.5c0.1,0.1,0.2,0.1,0.2,0.2l0,0c0.1,0.2,0.1,0.4,0.2,0.6c-1.1-0.9-2.4-1.2-3.8-1.6c0.1,0.5,0.5,0.8,0.3,1.3
		c-3.7-1.2-7.1-3-9.6-6.1c0.4-0.8,0.9-0.3,1.4-0.1c0.4,0.2,0.7,0.6,1-0.1c0.4,0.1,0.8,0.3,1.2,0.4C10,49,10.1,49,10.3,49
		c0.1,0.2,0.2,0.2,0.4,0.2c0.1,0.2,0.2,0.2,0.4,0.2c0,0,0.1,0,0.1,0c0,0-0.1,0-0.1,0c-0.1-0.2-0.2-0.2-0.4-0.2
		C10.6,49,10.4,49,10.3,49c-0.1-0.2-0.2-0.2-0.4-0.2c-0.3-0.4-0.3-0.8-0.2-1.2c1.9-0.5,2.5-0.3,2.8,1.4c0.1,0.7,0.7,0.6,1.2,0.7
		c0.4,0.1,0.9,0.1,1-0.5c0.1-0.5,0.6-0.8,0-1.4c-0.8-0.8-1.9-1.2-2.5-2.2c-0.1-0.1-0.4-0.3-0.5,0c-0.3,0.8-0.9,0.5-1.4,0.4
		c-0.8-0.2-1.7-0.3-2.6-0.5c0.1,1,1.1,1.1,1.4,1.8c-0.8,0.1-0.5,0.6-0.4,1c-1.1-0.4-1.8-1.3-2.6-2.1c-0.6-0.6-0.6-1.5-1.2-2
		c-0.5-0.5-0.6-1-0.4-1.5c0.1-0.5,0.1-0.8-0.1-1.3c-0.4-1.1-0.8-2.2-0.9-3.3c-0.3-2.1-0.6-4.2-0.4-6.3c0.3-3,0.7-5.9,0.6-8.9
		c-0.1-1-0.2-1.9,0.4-2.8c0.1-0.1,0.1-0.3,0.1-0.5c0-2.3,0-4.7,0-7c0-0.4,0-0.8-0.5-0.8c1.8-2.4,4.2-3.9,6.8-5.2
		c2.6-1.3,5.4-2.2,8.3-2.8c0,0.2,0,0.5-0.1,0.7c-0.8,1-0.6,2.2-0.8,3.4c-0.1,1.1-0.7,2.1-0.6,3.2c0,0.7-0.1,1.5,0.3,2.1
		c0.6,0.8,0.1,1.2-0.6,1.4c-0.8,0.2-0.8,0.6-0.4,1.2c0.7,1.4,1,2.9,0.1,4.4c-1.5,2.4-2.3,5-3.3,7.6c-0.1,0.3-0.1,0.7-0.1,1.1
		c0,0.5,0,1-0.2,1.4c-0.8,1.3-0.7,2.6,0,3.9c0.1,0.3,0.2,0.6,0.2,1c0.1,1.3,0.8,2.2,1.9,2.8c0.4,0.2,0.8,0.3,0.9,0.8
		c-0.2,1-2.1,2.8-3,2.8c-0.2,0-0.5-0.2-0.7-0.3c-0.3-0.1-0.5-0.7-0.9-0.4c-0.4,0.3,0,0.8,0.2,1.1c1,1.7,2.5,3.1,4.2,4.2
		c0.5,0.3,1.1,0.4,1.6,0.2C18.4,45.9,19.4,45.3,20.4,44.8z M12.9,50.4C12.9,50.4,12.9,50.4,12.9,50.4C12.9,50.4,12.9,50.4,12.9,50.4
		c-0.1-0.2-0.2-0.2-0.4-0.2C12.4,50,12.2,50,12.1,50c0,0-0.1,0-0.1,0c0,0,0.1,0,0.1,0c0.1,0.2,0.2,0.2,0.4,0.2
		C12.6,50.4,12.7,50.4,12.9,50.4z M9.7,40.9c0.3,2.5,5.5,7.4,7,6.7C14.1,45.7,11.4,43.9,9.7,40.9z M10,50.5c0.6,0.7,1.6,0.8,2.1,1.6
		c0.2,0.2,0.7,0.2,1,0c0.2-0.2,0.2-0.6,0-0.8C12.8,50.8,10.5,50.3,10,50.5z M7.6,45.3L7.6,45.3L7.6,45.3L7.6,45.3z"/>
	<path class="st2" d="M15.9,54.7c0.1-0.4-0.2-0.8-0.3-1.3c1.4,0.4,2.7,0.7,3.8,1.6l0,0c0,0.4,0.3,0.4,0.6,0.4l0,0
		c0,0.4,0.3,0.4,0.6,0.4l0,0c0.1,0.2,0.2,0.2,0.4,0.2l0,0c0.3,0.7,0.9,0.8,1.6,0.6c0.3,0.1,0.7,0.1,1,0.2c0.1,0.2,0.1,0.2,0.2,0
		c0,0,0.1-0.1,0.1-0.1c0,0,0,0-0.1,0c0,0,0,0,0,0.1c-0.1,0-0.1,0-0.2,0c-0.2-1.1-1.1-1.4-1.9-1.8c-0.3-0.2-0.7-0.4-1-0.7
		c-1.2-1-1.2-2.6,0-3.6c0.7-0.6,1.4-1,2.2-1.3c3.5-1.6,7.1-1.3,10.8-1.1c0.2,0,0.3,0.1,0.5,0.1c1.4,0.4,2.7,0.9,4,1.5
		c1.1,0.5,2,1,2.2,2.3c0.2,1.3-0.6,2-1.7,2.5c-0.8,0.4-1.2,1.2-1.8,1.8c-0.4,0.4,0.2,0.3,0.5,0.3c0.2,0,0.4,0.1,0.6-0.2l0,0
		c0.2,0,0.3,0,0.4-0.2l0,0c0.2,0,0.5,0.1,0.6-0.2l0,0c0.2,0,0.3,0,0.4-0.2l0,0c0.1-0.1,0.1-0.1,0.2-0.2l0,0c0.4,0.1,0.7-0.2,0.9-0.4
		c0.1-0.2,0.3-0.3-0.1-0.3c-0.6-0.1-1,0.5-1.8,0.5c1-0.6,1.8-1,2.6-1.5c0,0.2-0.1,0.5-0.1,0.6c0.3-0.2,0.6-0.4,0.8-0.7
		c0.4-0.5,1.9-1.1,2.6-1c0.4,0.1,0.4,0.3,0.3,0.6c-0.3,0.3-0.2,0.6-0.1,0.9c-4.7,2.7-9.9,3.8-15.2,3.6c-3.7-0.2-7.4-0.4-10.8-2.2
		C17.6,55.4,16.7,55.1,15.9,54.7z M33.7,54.8c0.1,0.1,0.1,0.1,0.2,0.2c0,0,0-0.1,0.1-0.1C33.8,54.8,33.8,54.8,33.7,54.8
		c0.1-0.3,0-0.9,0.7-0.4c0.3,0.3,0.9,0.2,1.4-0.1c0.2-0.2,0.5-0.4,0.7-0.4c0.8,0.1,1.3-0.6,1.8-1c0.5-0.4,0.7-1-0.2-1.4
		c-0.2-0.1-0.4-0.2-0.4-0.4c0.3-0.7-0.3-0.7-0.7-0.9c-1.1-0.6-2.3-0.7-3.5-1.1c-1.7-0.6-3.4,0.2-5.1-0.1c-2.2-0.4-4.5,0.5-6.5,1.7
		c-1.1,0.6-1.1,1.7-0.2,2.5c0.5,0.5,1.2,0.5,1.8,0.8c1.7,0.7,3.5,1.2,5.3,1.1c1.5-0.1,3,0.5,4.4-0.4C33.4,54.7,33.6,54.8,33.7,54.8z
		"/>
	<path class="st2" d="M50.9,48.6c0.5-0.4,1.1-0.9,1.6-1.3c1.5-1,2-2.7,3-4.1c0-0.1,0.1-0.1,0.1-0.2c-0.1-2.5,1.1-4.8,1.3-7.3
		c0.2-2.2,0.3-4.4-0.3-6.6c-0.1-0.6-0.2-1.2-0.2-1.9c0-2.3,0-4.5-0.3-6.8c-0.1-0.5,0.1-1,0.1-1.6c0.1-2-0.3-4-0.2-6
		c0-0.4-0.1-0.8,0.4-1c0,0,0,0,0,0c0,0.2,0.1,0.2,0.2,0c1.1,1.3,1.6,2.7,1.7,4.4c0.3,5.5,0.4,11,0.3,16.6c-0.1,3-0.5,5.9-1.4,8.7
		c-0.5,1.7-1.2,3.3-2,4.8c-0.2,0.4-0.4,0.9-0.8,1.1c-0.6-0.2-1.2,0-1.8,0.3C52.1,48.1,51.6,48.7,50.9,48.6z"/>
	<path class="st2" d="M3.6,11.8c0.5,0,0.5,0.4,0.5,0.8c0,2.3,0,4.7,0,7c0,0.2,0,0.4-0.1,0.5c-0.6,0.9-0.4,1.9-0.4,2.8
		c0.2,3-0.3,5.9-0.6,8.9c-0.2,2.1,0.2,4.2,0.4,6.3c0.2,1.2,0.6,2.2,0.9,3.3c0.1,0.4,0.2,0.8,0.1,1.3c-0.2,0.5-0.1,1,0.4,1.5
		c0.5,0.5,0.6,1.4,1.2,2c0.8,0.8,1.4,1.8,2.6,2.1c0,0,0,0,0,0c-0.3,0.7-0.6,0.3-1,0.1c-0.5-0.2-1-0.7-1.4,0.1
		c-1.8-2.2-2.8-4.8-3.6-7.5c-1-3.3-1.3-6.7-1.3-10.1c0.1-5,0.2-9.9,0.3-14.9C1.8,14.5,2.5,13.1,3.6,11.8z"/>
	<path class="st0" d="M44.5,54.4c0-0.3-0.1-0.6,0.1-0.9c1.2,0.1,2.1-0.7,3.2-1.1c0.3-0.1,0.2-0.4,0.1-0.7c1-0.9,2.4-1.1,3.2-2.2
		c0,0,0,0,0,0c0.1,0,0.1,0,0.2,0c0.4,0.3,0.8,0.4,1.2,0.4C50.2,52.2,47.5,53.6,44.5,54.4z"/>
	<path class="st1" d="M52.5,50c-0.4-0.1-0.9-0.1-1.2-0.4c-0.1-0.1-0.1-0.2-0.2,0l0,0c-0.3-0.1-0.6,0.1-0.8-0.2
		c0.1-0.3,0.6-0.4,0.6-0.8c0.7,0.1,1.2-0.5,1.8-0.7c0.6-0.2,1.1-0.5,1.8-0.3c-0.3,0.9-1.1,1.5-1.8,2.2C52.7,49.9,52.6,50,52.5,50
		L52.5,50z"/>
	<path class="st0" d="M52.5,50c0.1-0.1,0.2-0.1,0.2-0.2C52.7,49.9,52.6,50,52.5,50z"/>
	<path class="st0" d="M56.7,12c-0.1,0.1-0.2,0.2-0.2,0C56.6,12,56.6,12,56.7,12z"/>
	<path class="st3" d="M38.9,46c-0.7-0.6-1.4-0.8-2.4-0.6c-1.7,0.2-3.4,0-5.1-0.4c-1.2-0.3-1.9-1.8-1.5-3.5c0.1-0.6,0.1-1.3,0.1-1.9
		c0-0.2,0-0.5-0.3-0.5c-0.4,0-0.3,0.4-0.3,0.6c-0.1,0.6,0.2,1.3-0.2,1.9c-0.4-0.4-0.1-0.8-0.2-1.2c0-0.3,0.1-0.7-0.4-0.8
		c-0.1-0.6-0.3-1.2-0.4-1.8c-0.6-2-1.3-2.6-3.2-2.6c-0.1-0.6-0.6-0.4-1-0.4c-0.3,0-0.6,0.2-1,0.2c-0.4,0-0.9,0.2-1.2-0.3
		c-0.3-0.5,0.2-0.8,0.6-1.3c-1.4,0-2.6,0.2-3.7,0.5c-1.3,0.3-2.6,0.7-3.9,1.1c-0.7,0.2-1.1,0.3-1.2-0.7c0-0.5-0.2-1.1-0.4-1.6
		c-0.4-1-0.1-1.4,1-1.8c1.5-0.5,2.9-1.2,4.4-1.8c1.6-0.6,3.3-1,5-1.4c1.4-0.3,2.9-0.5,4.3-0.9c0.6-0.2,1.1-0.4,1.8-0.3
		c1.3,0.2,2.1-0.5,2.8-1.4c0.1-0.1,0.2-0.3,0.2-0.3c1.4,0,2.3-1.3,3.7-1.5c1.1-0.2,2.2-0.3,3.2-0.4c2.1-0.1,4.1,0.4,6.1,1.2
		c1.7,0.7,3,2,4.3,3.1c0.8,0.6,1.4,1.6,1.6,2.8c0.3,1.5,0.7,2.9,0.5,4.5c-0.1,0.9-0.1,1.8-0.4,2.7c-0.2,0.4,0.1,0.7,0.2,1
		c0.3,0.7,0,1.3-0.6,1.6c-0.6,0.3-1.1,0.6-1.4,1.1c-0.1,0.2-0.3,0.4-0.4-0.1c0.1-0.8,0.6-1.6-0.4-2.2c0-0.9-1.6-2.1-2.3-1.7
		c-0.2,0.1-0.3,0.3-0.2,0.5c-0.2,0.2-0.4,0-0.6-0.1c-1.2-0.4-2.2-0.1-2.8,0.8c-0.7,0.5-1.4,1-1.7,1.8c-0.4,0.8-0.9,1.6-1.4,2.4
		c-0.4,0.6-0.9,1.3-1.1,2.1c-0.3,0.3-0.2,0.7-0.2,1C38.9,45.7,38.9,45.9,38.9,46z M39.7,40.4c0-0.1,0-0.1,0-0.2
		c0.2-0.6,0.4-1.1,0.6-1.7c0.3-1.7-0.4-2.8-1.8-2.9c-1.6-0.2-3.1-0.3-4.7-0.5c-0.9-0.1-1.7,0.3-2.2,1c-0.2,0.2-0.3,0.5,0,0.7
		c-0.7,1.1-1.1,2.3-1,3.6c0.1,0.7-0.1,1.4-0.2,2.1c0,1.3,0.7,2,2,2c1,0.1,2.1,0.2,3.1,0.3c0.8,0.1,1.4,0,1.9-0.7
		c0.2-0.1,0.4-0.3,0.6-0.4c0.7-0.4,0.9-1.1,1-1.8C39.3,41.5,39.5,41,39.7,40.4z M42.8,29c0.1-0.5-0.1-0.9-0.6-1
		c-0.8-0.3-1.6-0.5-2.5-0.7c-0.4-0.1-0.8,0-0.9,0.5c-0.5,1.6-0.3,2,1.4,2.4c0.3,0.1,0.5,0.1,0.8,0.2C42.5,30.7,42.7,30.6,42.8,29z"
		/>
	<path class="st4" d="M28.3,37.8c0.1,0.6,0.3,1.2,0.4,1.8c-0.1,1,0,2.1,0.2,3.1c0,0.3,0.2,0.7-0.3,0.7c-1.4,0.2-2.9,0.4-4.3,0.6
		c-1.4,0.2-2.2-0.1-2.8-1.4c-0.5-1-1-2-1.5-3c0-0.9-0.2-1.9,0.6-2.6c0.9,1,1.8,1.7,3.4,1.3C25.3,37.9,26.8,37.9,28.3,37.8z"/>
	<path class="st4" d="M20.4,44.8c-1,0.5-2,1.1-3,1.5c-0.5,0.2-1.1,0.1-1.6-0.2c-1.7-1.1-3.1-2.4-4.2-4.2c-0.2-0.3-0.5-0.8-0.2-1.1
		c0.4-0.3,0.6,0.2,0.9,0.4c0.2,0.1,0.5,0.3,0.7,0.3c1,0,2.9-1.8,3-2.8c0.7,0.2,1,0.9,1.4,1.5C18.5,41.7,19.6,43.2,20.4,44.8z"/>
	<path class="st4" d="M40.9,54c-0.8,0.5-1.6,0.9-2.6,1.5c0.8,0.1,1.2-0.5,1.8-0.5c-0.3,0.3-0.6,0.5-0.8,0.8c0,0,0,0,0,0
		c-0.1,0.1-0.1,0.1-0.2,0.2c0,0,0,0,0,0c-0.2,0-0.3,0-0.4,0.2c0,0,0,0,0,0c-0.2,0-0.4,0-0.6,0.2c0,0,0,0,0,0
		c-0.1,0.1-0.3,0.1-0.4,0.2c0,0,0,0,0,0c-0.2,0-0.4,0-0.6,0.2c-0.2,0-0.8,0-0.5-0.3c0.6-0.6,1-1.4,1.8-1.8c1.1-0.5,1.9-1.2,1.7-2.5
		c-0.2-1.3-1.1-1.8-2.2-2.3c-1.3-0.6-2.6-1.1-4-1.5c-0.2,0-0.3-0.1-0.5-0.1c-3.6-0.2-7.3-0.4-10.8,1.1c-0.8,0.4-1.6,0.8-2.2,1.3
		c-1.2,1-1.2,2.6,0,3.6c0.3,0.3,0.7,0.5,1,0.7c0.8,0.4,1.7,0.8,1.9,1.8c0,0,0,0,0,0c-0.3-0.1-0.7-0.1-1-0.2c-0.5-0.2-1-0.4-1.6-0.6
		c0,0,0,0,0,0c-0.1-0.2-0.2-0.2-0.4-0.2c0,0,0,0,0,0c-0.1-0.3-0.3-0.4-0.6-0.4c0,0,0,0,0,0c-0.1-0.1-0.1-0.2-0.2-0.4
		c0.4-0.1,0.6,0.4,1.2,0.1c-0.7-0.3-1.1-0.7-1.7-0.7c0,0,0,0,0,0c0-0.2,0-0.4-0.2-0.2c-1.1-1-1-2.4,0-3.5c0.7-0.7,1.6-1.1,2.4-1.7
		c2.7-0.9,5.5-1.4,8.3-1.4c2.4,0,4.8,0.1,7.1,0.9c1.6,0.6,3.3,1.1,4.5,2.4c0.2,0.2,0.3,0.4,0.5,0.6c0.1,0.1,0.1,0.3,0.2,0.4
		c0,0.1,0,0.1,0,0.2C41.8,52.9,41.6,53.6,40.9,54z"/>
	<path class="st1" d="M43.3,38.3c0.6-0.9,1.6-1.2,2.8-0.8c0.2,0.1,0.4,0.3,0.6,0.1c0.9,0.3,1.8,0.6,2.6,1.2c1,0.6,0.5,1.4,0.4,2.2
		c-0.3,0.1-0.4,0.3-0.4,0.6c-1.5,1.9-3.4,3.4-5.2,5c-0.4-0.3,0-0.5,0-0.8l0,0c0,0,0.1-0.1,0.1-0.1c1.4-1,2.6-2.1,3.5-3.5
		c0.4-0.6,0.6-1.4,0.4-2.5c-0.5,0.9-1,1.2-1.7,1.3c-0.8,0.2-1.2-0.4-1.6-0.9C44.4,39.5,43.6,39.1,43.3,38.3z"/>
	<path class="st1" d="M40.9,54c0.6-0.5,0.9-1.1,0.9-1.8c1,0,1.9-0.4,2.8-0.8c0.4-0.2,0.8-0.4,1.3-0.4c0.2,0,0.4,0,0.5-0.3
		c0-0.3-0.2-0.3-0.4-0.3c-0.7-0.2-1.6-1.8-1.4-2.4c0.3,0.2,0.5,0.4,0.6,0.7c0.2,0.5,0.5,0.9,1,0.7c0.6-0.2,1.5-0.2,1.7-1.1
		c0.5-1.5,0.5-1.5,2.1-1.5c0.3,0,0.6,0,0.9,0c0.1,1.7-1.5,1.6-2.4,2.3c-0.5,0.4-1.2,0.7-1.7,1.2c-0.3,0.3-0.6,0.5,0,0.8
		c0.3,0.3,0.7,0.4,0.8,0.9c0.2,0.2,0.3,0.5-0.1,0.7c-1.1,0.4-1.9,1.2-3.2,1.1c0-0.3,0-0.5-0.3-0.6c-0.7-0.1-2.2,0.4-2.6,1
		c-0.2,0.3-0.5,0.4-0.8,0.7C40.9,54.5,40.9,54.2,40.9,54z"/>
	<path class="st1" d="M28.3,37.8c-1.5,0.1-3,0.1-4.4,0.5c-1.6,0.4-2.5-0.3-3.4-1.3c-0.1-1.3,0.9-1.2,1.7-1.3c1-0.2,1.9-0.3,2.9-0.4
		C27,35.2,27.6,35.8,28.3,37.8z"/>
	<path class="st4" d="M51.1,46.8c-0.3,0-0.6,0-0.9,0c-1.6,0-1.6,0-2.1,1.5c-0.3,0.9-1.1,0.8-1.7,1.1c-0.6,0.2-0.8-0.2-1-0.7
		c-0.1-0.3-0.3-0.6-0.6-0.7c0.1-0.8,0.9-0.9,1.4-1.3c0.9-0.6,1.5-1.6,2.4-2.1c0.3,1.2,0.3,1.2,2.2,0.9c-0.3-0.8-1.1-1-1.7-1.5
		c0.2-0.3,0.5-0.4,0.8-0.6c0.7,0.9,1.7,1.2,2.8,1.2C52.5,45.6,51.6,46,51.1,46.8z"/>
	<path class="st1" d="M19.9,39.6c0.5,1,1,2,1.5,3c0.7,1.3,1.4,1.6,2.8,1.4c1.4-0.2,2.8-0.4,4.3-0.6c0.5-0.1,0.4-0.5,0.3-0.7
		c-0.1-1-0.2-2-0.2-3.1c0.5,0.1,0.4,0.4,0.4,0.8c0.1,0.4-0.2,0.9,0.2,1.2c0,0.7,0.1,1.3-0.1,2c-0.2,0.4-0.3,0.8-0.9,0.8
		c-0.1,0.1-0.1,0.1-0.2,0.2c0,0,0,0,0,0c-1.4,0-2.8,0.2-4.2,0.5c-0.6,0.1-1.1,0-1.5-0.4c-1.4-1.4-2.2-3.2-2.8-5
		C19.6,39.6,19.8,39.6,19.9,39.6z"/>
	<path class="st1" d="M52.7,44.6c-1.1,0-2.1-0.3-2.8-1.2c0.6-1,1.7-1.1,2.5-1.6c0.2-0.1,0.4,0,0.6,0.2c0.4,0.4,0.6,1.1,1.3,1.3
		c0.2,0,0.2,0.4,0.1,0.6c-0.1,0.2,0,0.6-0.4,0.6C53.5,44.4,53.2,44.7,52.7,44.6z"/>
	<path class="st3" d="M19.5,39.6c0.6,1.9,1.4,3.6,2.8,5c0.4,0.4,0.9,0.5,1.5,0.4c1.4-0.2,2.8-0.5,4.2-0.5c-0.3,0.5-0.8,0.5-1.3,0.5
		c-1.2,0-2.4,0.2-3.6,0.4c-0.6,0.1-1-0.1-1.3-0.4c-1.8-1.7-2.5-4-3.2-6.3c-0.1-0.4,0.1-0.6,0.3-0.7c0.3-0.3,0.5-0.1,0.5,0.3
		c0,0.1-0.2,0.2-0.2,0.3C19.3,38.9,19.2,39.3,19.5,39.6z"/>
	<path class="st3" d="M44.1,46.6c1.8-1.6,3.7-3.1,5.2-5c0.7,0.2,0.2,0.5,0.1,0.7c-1,1.5-2.3,2.8-3.7,4c-0.9,0.7-1.7,1.5-3,1.3
		c0-0.1,0-0.2,0-0.4C43.2,47.1,43.7,47.1,44.1,46.6z"/>
	<path class="st4" d="M47.9,51.8c-0.1-0.5-0.5-0.6-0.8-0.9c1-0.6,2.1-1.1,3.2-1.6c0.2,0.3,0.5,0.2,0.8,0.2
		C50.3,50.7,48.9,51,47.9,51.8z"/>
	<path class="st1" d="M49.1,44c0.5,0.5,1.3,0.7,1.7,1.5c-1.9,0.3-1.9,0.3-2.2-0.9C48.6,44.3,48.8,44.1,49.1,44z"/>
	<path class="st2" d="M42.6,47.2c0,0.1,0,0.2,0,0.4c-0.5-0.1-1-0.1-1.4-0.6c0,0,0,0,0,0C41.7,47.1,42.2,47.1,42.6,47.2z"/>
	<path class="st2" d="M41.3,47c-0.5-0.1-1.1-0.1-1.4-0.6c0,0,0,0,0,0C40.4,46.5,40.9,46.5,41.3,47L41.3,47z"/>
	<path class="st2" d="M38.9,46c0-0.1,0-0.2,0-0.4c0.2,0.1,0.3,0.2,0.4,0.4l0,0C39.2,46,39,46,38.9,46z"/>
	<path class="st2" d="M39.9,46.4c-0.1-0.1-0.3-0.1-0.4-0.2c0,0,0,0,0,0C39.6,46.2,39.8,46.2,39.9,46.4L39.9,46.4z"/>
	<path class="st1" d="M41.9,52c-0.1-0.1-0.1-0.3-0.2-0.4C41.9,51.7,41.9,51.9,41.9,52z"/>
	<path class="st2" d="M39.5,46.2c-0.1-0.1-0.1-0.1-0.2-0.2c0,0,0,0,0,0C39.4,46.1,39.4,46.1,39.5,46.2L39.5,46.2z"/>
	<path class="st3" d="M28.1,44.6c0.1-0.1,0.1-0.1,0.2-0.2C28.2,44.5,28.1,44.5,28.1,44.6z"/>
	<path class="st4" d="M9.1,47.4c-0.3-0.7-1.3-0.8-1.4-1.8c0.9,0.2,1.7,0.4,2.6,0.5c0.5,0.1,1.1,0.4,1.4-0.4c0.1-0.3,0.4-0.1,0.5,0
		c0.6,1,1.7,1.4,2.5,2.2c0.6,0.6,0.1,1,0,1.4c-0.1,0.6-0.6,0.6-1,0.5c-0.5-0.1-1.1-0.1-1.2-0.7c-0.3-1.7-0.9-2-2.8-1.4
		C9.5,47.5,9.3,47.5,9.1,47.4z"/>
	<path class="st0" d="M9.7,40.9c1.7,3,4.4,4.9,7,6.7C15.2,48.2,10,43.4,9.7,40.9z"/>
	<path class="st4" d="M10,50.5c0.6-0.2,2.8,0.3,3.1,0.8c0.2,0.3,0.2,0.6,0,0.8c-0.3,0.3-0.8,0.3-1,0C11.5,51.3,10.5,51.1,10,50.5z"
		/>
	<path class="st0" d="M9.1,47.4c0.2,0.1,0.4,0.1,0.6,0.2c-0.1,0.4-0.1,0.8,0.2,1.2l0,0c-0.4-0.1-0.8-0.3-1.2-0.4c0,0,0,0,0,0
		C8.6,48,8.3,47.4,9.1,47.4z"/>
	<path class="st2" d="M19.1,54.4c0.6,0,1.1,0.5,1.7,0.7c-0.5,0.3-0.8-0.2-1.2-0.1c-0.1,0-0.3,0-0.4,0c0,0,0,0,0,0
		C19.2,54.8,19.2,54.6,19.1,54.4z"/>
	<path class="st0" d="M10.7,49.2c-0.2,0-0.3,0-0.4-0.2c0,0,0,0,0,0C10.4,49,10.6,49,10.7,49.2C10.7,49.2,10.7,49.2,10.7,49.2z"/>
	<path class="st0" d="M11.1,49.4c-0.2,0-0.3,0-0.4-0.2c0,0,0,0,0,0C10.8,49.2,11,49.2,11.1,49.4L11.1,49.4z"/>
	<path class="st0" d="M12.5,50.2c-0.2,0-0.3,0-0.4-0.2l0,0C12.2,50,12.4,50,12.5,50.2C12.5,50.2,12.5,50.2,12.5,50.2z"/>
	<path class="st0" d="M9.9,48.8c0.2,0,0.3,0,0.4,0.2c0,0,0,0,0,0C10.1,49,10,49,9.9,48.8C9.9,48.8,9.9,48.8,9.9,48.8z"/>
	<path class="st0" d="M12.9,50.4c-0.2,0-0.3,0-0.4-0.2c0,0,0,0,0,0C12.6,50.2,12.8,50.2,12.9,50.4L12.9,50.4z"/>
	<path class="st2" d="M18.9,54.2c0.3-0.2,0.3,0,0.2,0.2C19,54.3,18.9,54.3,18.9,54.2z"/>
	<path class="st0" d="M12.1,50C12.1,50,12,50,12.1,50C12,50,12.1,50,12.1,50C12.1,50,12.1,50,12.1,50z"/>
	<path class="st0" d="M12.9,50.4C12.9,50.4,12.9,50.4,12.9,50.4C12.9,50.4,12.9,50.4,12.9,50.4C12.9,50.4,12.9,50.4,12.9,50.4z"/>
	<path class="st0" d="M11.1,49.4C11.1,49.4,11.1,49.4,11.1,49.4C11.1,49.4,11.1,49.4,11.1,49.4C11.1,49.4,11.1,49.4,11.1,49.4z"/>
	<polygon class="st4" points="7.6,45.3 7.6,45.3 7.6,45.3 	"/>
	<path class="st5" d="M33.7,54.8c-0.1,0-0.3-0.1-0.4-0.1c-1.4,0.9-2.9,0.3-4.4,0.4c-1.8,0.1-3.6-0.4-5.3-1.1
		c-0.6-0.2-1.3-0.3-1.8-0.8c-0.9-0.8-0.9-1.9,0.2-2.5c2-1.2,4.3-2.1,6.5-1.7c1.8,0.3,3.4-0.6,5.1,0.1c1.1,0.4,2.4,0.5,3.5,1.1
		c0.4,0.2,1,0.2,0.7,0.9c-0.1,0.2,0.2,0.3,0.4,0.4c0.9,0.3,0.6,1,0.2,1.4c-0.5,0.4-0.9,1.1-1.8,1c-0.2,0-0.5,0.2-0.7,0.4
		c-0.5,0.3-1.1,0.4-1.4,0.1C33.7,53.9,33.8,54.5,33.7,54.8L33.7,54.8z M28.6,51.7c0.2,0,0.4,0,0.6,0c0.3,0,0.5-0.1,0.4-0.4
		c-0.2-0.5-0.7-0.2-1-0.3c-0.3,0-0.8-0.3-0.9,0.3c-0.1,0.2,0,0.5,0.4,0.5C28.2,51.8,28.4,51.8,28.6,51.7z M31.2,51
		C31.2,51,31.2,51,31.2,51c-0.2,0-0.5,0-0.7,0c-0.3,0-0.3,0.2-0.3,0.4c0.1,0.5,0.5,0.3,0.7,0.3c0.4-0.1,0.9,0.3,1.2-0.2
		c0.1-0.2,0-0.4-0.3-0.4C31.7,51,31.4,51,31.2,51z M36.2,52.5c-0.6-0.1-1.1-0.7-1.6-0.2c-0.2,0.2,0.4,0.4,0.6,0.6
		C35.8,53.5,35.8,52.6,36.2,52.5z M24.4,53.2c0.5-0.2,1-0.3,1.8-0.6C25.3,52.3,24.9,52.7,24.4,53.2z"/>
	<path class="st1" d="M20.9,56c0.5,0.2,1,0.4,1.6,0.6C21.8,56.8,21.2,56.7,20.9,56z"/>
	<path class="st1" d="M39.3,55.8c0.3-0.3,0.6-0.5,0.8-0.8c0.4,0,0.2,0.2,0.1,0.3C40,55.7,39.7,55.9,39.3,55.8z"/>
	<path class="st1" d="M19.3,55c0.1,0,0.3,0,0.4,0c0.1,0.1,0.1,0.2,0.2,0.4C19.6,55.4,19.3,55.4,19.3,55z"/>
	<path class="st1" d="M19.9,55.4c0.3,0,0.5,0.1,0.6,0.4C20.2,55.8,19.9,55.8,19.9,55.4z"/>
	<path class="st1" d="M38.1,56.4c0.2-0.2,0.4-0.2,0.6-0.2C38.5,56.4,38.3,56.4,38.1,56.4z"/>
	<path class="st1" d="M37.1,56.8c0.1-0.2,0.4-0.2,0.6-0.2C37.5,56.8,37.3,56.8,37.1,56.8z"/>
	<path class="st1" d="M20.5,55.8c0.2,0,0.3,0,0.4,0.2C20.7,56,20.6,56,20.5,55.8z"/>
	<path class="st5" d="M33.7,54.8c0.1,0,0.2,0,0.2,0c0,0,0,0.1-0.1,0.1C33.8,54.9,33.7,54.8,33.7,54.8C33.7,54.8,33.7,54.8,33.7,54.8
		z"/>
	<path class="st1" d="M38.7,56.2c0.1-0.2,0.2-0.2,0.4-0.2C39,56.2,38.8,56.2,38.7,56.2z"/>
	<path class="st1" d="M37.7,56.6c0.1-0.1,0.3-0.1,0.4-0.2C38,56.6,37.8,56.6,37.7,56.6z"/>
	<path class="st1" d="M39.1,56c0.1-0.1,0.1-0.1,0.2-0.2C39.2,55.9,39.1,55.9,39.1,56z"/>
	<path class="st4" d="M23.7,56.8C23.7,56.8,23.7,56.7,23.7,56.8C23.7,56.7,23.7,56.7,23.7,56.8C23.7,56.7,23.7,56.8,23.7,56.8
		C23.7,56.8,23.7,56.8,23.7,56.8z"/>
	<path class="st4" d="M23.7,56.8c-0.1,0.2-0.1,0.2-0.2,0c0,0,0,0,0,0C23.6,56.8,23.6,56.8,23.7,56.8C23.7,56.8,23.7,56.8,23.7,56.8z
		"/>
	<path class="st4" d="M51.1,49.6c0.1-0.2,0.1-0.1,0.2,0C51.2,49.6,51.1,49.6,51.1,49.6z"/>
	<path class="st4" d="M30.3,42.6c0.1-0.7,0.3-1.4,0.2-2.1c-0.1-1.3,0.2-2.5,1-3.6c0.1-0.1,0.2-0.1,0.3-0.2c0.2-0.2,0.4-0.5,0.7-0.4
		c0.4,0.2,0.2,0.5,0.1,0.8c-0.2,0.6,0.1,0.7,0.6,0.7c1.1,0.1,2.2,0.3,3.3,0.4c0.7,0.1,1.5,0.4,1.7-0.7c0-0.2,0.3-0.6,0.6-0.6
		c0.3,0.1,0.5,0.4,0.6,0.8c0.1,0.9,0.1,1.7-0.2,2.5c-0.2,0.5-0.2,1.2-0.8,1.3c-1.2,0.3-1.2,1.1-1.3,2.1c-0.4,0.3-0.8,0.4-1.3,0.3
		C33.8,43.5,31.9,43.9,30.3,42.6z"/>
	<path class="st4" d="M43.3,38.3c0.3,0.8,1.1,1.2,1.6,1.8c0.4,0.5,0.8,1,1.6,0.9c0.7-0.2,1.2-0.5,1.7-1.3c0.2,1.1,0.1,1.8-0.4,2.5
		c-0.9,1.4-2.1,2.5-3.5,3.5c0,0-0.1,0.1-0.1,0.1c0,0,0,0,0,0c-0.9,0.5-1.7,0.3-2.6-0.2c-0.8-0.4-1.6-0.7-2.4-1
		c0.2-0.8,0.7-1.4,1.1-2.1c0.5-0.8,1-1.6,1.4-2.4C41.9,39.3,42.6,38.8,43.3,38.3z"/>
	<path class="st1" d="M36.9,43.6c0-0.9,0.1-1.8,1.3-2.1c0.5-0.1,0.6-0.8,0.8-1.3c0.3-0.8,0.4-1.7,0.2-2.5c0-0.3-0.2-0.7-0.6-0.8
		c-0.3-0.1-0.5,0.4-0.6,0.6c-0.2,1.1-0.9,0.8-1.7,0.7c-1.1-0.2-2.2-0.3-3.3-0.4c-0.5-0.1-0.8-0.2-0.6-0.7c0.1-0.3,0.3-0.6-0.1-0.8
		c-0.3-0.2-0.5,0.2-0.7,0.4c-0.1,0.1-0.2,0.1-0.3,0.2c-0.3-0.2-0.2-0.4,0-0.7c0.6-0.7,1.3-1.1,2.2-1c1.6,0.1,3.1,0.3,4.7,0.5
		c1.4,0.2,2.2,1.3,1.8,2.9c-0.1,0.6-0.4,1.1-0.6,1.7c0,0-0.1,0-0.1,0c0,0,0,0.1,0.1,0.1c-0.2,0.6-0.4,1.1-0.8,1.6
		c-0.6,0.4-0.8,1.1-1,1.8c-0.2,0.1-0.4,0.3-0.6,0.4C37.3,44,37.3,43.7,36.9,43.6z"/>
	<path class="st5" d="M42.8,29c-0.1,1.6-0.3,1.7-1.8,1.3c-0.3-0.1-0.5-0.2-0.8-0.2c-1.6-0.4-1.8-0.8-1.4-2.4
		c0.1-0.5,0.5-0.6,0.9-0.5c0.8,0.2,1.7,0.5,2.5,0.7C42.7,28.1,42.9,28.5,42.8,29z"/>
	<path class="st0" d="M36.9,43.6c0.4,0,0.3,0.4,0.3,0.6c-0.5,0.7-1.1,0.8-1.9,0.7c-1-0.1-2.1-0.3-3.1-0.3c-1.2-0.1-2-0.8-2-2
		c1.6,1.3,3.6,0.9,5.3,1.4C36.1,44.1,36.5,43.9,36.9,43.6z"/>
	<path class="st0" d="M39.1,44.6c0.8,0.3,1.7,0.6,2.4,1c0.9,0.5,1.7,0.7,2.6,0.2c0,0.3-0.4,0.5,0,0.8c-0.3,0.5-0.9,0.5-1.5,0.6
		c-0.4-0.1-0.9-0.2-1.3-0.2c-0.4-0.5-0.9-0.5-1.4-0.6c-0.1-0.2-0.2-0.2-0.4-0.2c-0.1-0.1-0.1-0.1-0.2-0.2c-0.1-0.2-0.2-0.3-0.4-0.4
		C38.9,45.3,38.7,44.9,39.1,44.6z"/>
	<path class="st2" d="M49.3,38.8c-0.8-0.6-1.7-0.9-2.6-1.2c0-0.2,0-0.4,0.2-0.5C47.7,36.8,49.3,37.9,49.3,38.8z"/>
	<path class="st0" d="M37.9,43.8c0.2-0.7,0.3-1.4,1-1.8C38.8,42.7,38.6,43.4,37.9,43.8z"/>
	<path class="st0" d="M39.7,40.4c0,0-0.1-0.1-0.1-0.1c0,0,0.1,0,0.1,0C39.7,40.3,39.7,40.3,39.7,40.4z"/>
	<path class="st0" d="M44.1,45.8c0,0,0.1-0.1,0.1-0.1C44.2,45.7,44.2,45.8,44.1,45.8z"/>
	<path class="st2" d="M28.6,51.7c-0.2,0-0.4,0.1-0.6,0.1c-0.3,0-0.4-0.2-0.4-0.5c0.1-0.5,0.6-0.3,0.9-0.3c0.3,0,0.8-0.3,1,0.3
		c0.1,0.3-0.1,0.4-0.4,0.4C29,51.7,28.8,51.7,28.6,51.7z"/>
	<path class="st2" d="M31.2,51c0.2,0,0.5,0,0.7,0c0.3,0,0.3,0.3,0.3,0.4c-0.3,0.6-0.8,0.2-1.2,0.2c-0.2,0-0.6,0.2-0.7-0.3
		c0-0.2,0-0.4,0.3-0.4C30.7,51,31,51,31.2,51C31.2,51,31.2,51,31.2,51z"/>
	<path class="st2" d="M36.2,52.5c-0.4,0.1-0.4,1-1,0.4c-0.2-0.2-0.8-0.4-0.6-0.6C35.1,51.8,35.6,52.4,36.2,52.5z"/>
	<path class="st2" d="M24.4,53.2c0.4-0.5,0.9-0.9,1.8-0.6C25.5,52.9,25,53.1,24.4,53.2z"/>
</g>
</svg>
